  0
SECTION
  2
HEADER
  9
$ACADVER
  1
AC1015
  9
$ACADMAINTVER
 70
     6
  9
$DWGCODEPAGE
  3
ANSI_1252
  9
$INSBASE
 10
0.0
 20
0.0
 30
0.0
  9
$EXTMIN
 10
0.0
 20
0.0
 30
0.0
  9
$EXTMAX
 10
41.3385826772
 20
58.4645669291
 30
0.0
  9
$LIMMIN
 10
0.0
 20
0.0
  9
$LIMMAX
 10
41.3385826772
 20
58.4645669291
  9
$ORTHOMODE
 70
     0
  9
$REGENMODE
 70
     1
  9
$FILLMODE
 70
     1
  9
$QTEXTMODE
 70
     0
  9
$MIRRTEXT
 70
     1
  9
$LTSCALE
 40
5.0
  9
$ATTMODE
 70
     1
  9
$TEXTSIZE
 40
0.688976378
  9
$TRACEWID
 40
0.05
  9
$TEXTSTYLE
  7
Standard
  9
$CLAYER
  8
0
  9
$CELTYPE
  6
ByLayer
  9
$CECOLOR
 62
   256
  9
$CELTSCALE
 40
1.0
  9
$DISPSILH
 70
     0
  9
$DIMSCALE
 40
1.0
  9
$DIMASZ
 40
0.65
  9
$DIMEXO
 40
0.1968503937
  9
$DIMDLI
 40
0.38
  9
$DIMRND
 40
0.0
  9
$DIMDLE
 40
0.0
  9
$DIMEXE
 40
0.1968503937
  9
$DIMTP
 40
0.0
  9
$DIMTM
 40
0.0
  9
$DIMTXT
 40
0.688976378
  9
$DIMCEN
 40
0.09
  9
$DIMTSZ
 40
0.0
  9
$DIMTOL
 70
     0
  9
$DIMLIM
 70
     0
  9
$DIMTIH
 70
     1
  9
$DIMTOH
 70
     1
  9
$DIMSE1
 70
     0
  9
$DIMSE2
 70
     0
  9
$DIMTAD
 70
     1
  9
$DIMZIN
 70
     0
  9
$DIMBLK
  1

  9
$DIMASO
 70
     1
  9
$DIMSHO
 70
     1
  9
$DIMPOST
  1

  9
$DIMAPOST
  1

  9
$DIMALT
 70
     0
  9
$DIMALTD
 70
     2
  9
$DIMALTF
 40
25.4
  9
$DIMLFAC
 40
1.0
  9
$DIMTOFL
 70
     0
  9
$DIMTVP
 40
0.0
  9
$DIMTIX
 70
     0
  9
$DIMSOXD
 70
     0
  9
$DIMSAH
 70
     0
  9
$DIMBLK1
  1

  9
$DIMBLK2
  1

  9
$DIMSTYLE
  2
Standard
  9
$DIMCLRD
 70
     0
  9
$DIMCLRE
 70
     0
  9
$DIMCLRT
 70
     0
  9
$DIMTFAC
 40
1.0
  9
$DIMGAP
 40
0.3
  9
$DIMJUST
 70
     0
  9
$DIMSD1
 70
     0
  9
$DIMSD2
 70
     0
  9
$DIMTOLJ
 70
     1
  9
$DIMTZIN
 70
     0
  9
$DIMALTZ
 70
     0
  9
$DIMALTTZ
 70
     0
  9
$DIMUPT
 70
     0
  9
$DIMDEC
 70
     2
  9
$DIMTDEC
 70
     2
  9
$DIMALTU
 70
     2
  9
$DIMALTTD
 70
     2
  9
$DIMTXSTY
  7
Standard
  9
$DIMAUNIT
 70
     0
  9
$DIMADEC
 70
     2
  9
$DIMALTRND
 40
0.0
  9
$DIMAZIN
 70
     0
  9
$DIMDSEP
 70
    46
  9
$DIMATFIT
 70
     3
  9
$DIMFRAC
 70
     0
  9
$DIMLDRBLK
  1

  9
$DIMLUNIT
 70
     2
  9
$DIMLWD
 70
    -2
  9
$DIMLWE
 70
    -2
  9
$DIMTMOVE
 70
     0
  9
$LUNITS
 70
     2
  9
$LUPREC
 70
     2
  9
$SKETCHINC
 40
0.1
  9
$FILLETRAD
 40
0.5
  9
$AUNITS
 70
     0
  9
$AUPREC
 70
     2
  9
$MENU
  1
.
  9
$ELEVATION
 40
0.0
  9
$PELEVATION
 40
0.0
  9
$THICKNESS
 40
0.0
  9
$LIMCHECK
 70
     0
  9
$CHAMFERA
 40
0.0
  9
$CHAMFERB
 40
0.0
  9
$CHAMFERC
 40
0.0
  9
$CHAMFERD
 40
0.0
  9
$SKPOLY
 70
     0
  9
$TDCREATE
 40
2456714.476765255
  9
$TDUCREATE
 40
2456714.768431921
  9
$TDUPDATE
 40
2456714.476766331
  9
$TDUUPDATE
 40
2456714.768432998
  9
$TDINDWG
 40
0.0000000116
  9
$TDUSRTIMER
 40
0.0000000116
  9
$USRTIMER
 70
     1
  9
$ANGBASE
 50
0.0
  9
$ANGDIR
 70
     0
  9
$PDMODE
 70
     0
  9
$PDSIZE
 40
-1.0
  9
$PLINEWID
 40
0.0
  9
$SPLFRAME
 70
     0
  9
$SPLINETYPE
 70
     6
  9
$SPLINESEGS
 70
     8
  9
$HANDSEED
  5
2CD
  9
$SURFTAB1
 70
     6
  9
$SURFTAB2
 70
     6
  9
$SURFTYPE
 70
     6
  9
$SURFU
 70
     6
  9
$SURFV
 70
     6
  9
$UCSBASE
  2

  9
$UCSNAME
  2

  9
$UCSORG
 10
0.0
 20
0.0
 30
0.0
  9
$UCSXDIR
 10
1.0
 20
0.0
 30
0.0
  9
$UCSYDIR
 10
0.0
 20
1.0
 30
0.0
  9
$UCSORTHOREF
  2

  9
$UCSORTHOVIEW
 70
     0
  9
$UCSORGTOP
 10
0.0
 20
0.0
 30
0.0
  9
$UCSORGBOTTOM
 10
0.0
 20
0.0
 30
0.0
  9
$UCSORGLEFT
 10
0.0
 20
0.0
 30
0.0
  9
$UCSORGRIGHT
 10
0.0
 20
0.0
 30
0.0
  9
$UCSORGFRONT
 10
0.0
 20
0.0
 30
0.0
  9
$UCSORGBACK
 10
0.0
 20
0.0
 30
0.0
  9
$PUCSBASE
  2

  9
$PUCSNAME
  2

  9
$PUCSORG
 10
0.0
 20
0.0
 30
0.0
  9
$PUCSXDIR
 10
1.0
 20
0.0
 30
0.0
  9
$PUCSYDIR
 10
0.0
 20
1.0
 30
0.0
  9
$PUCSORTHOREF
  2

  9
$PUCSORTHOVIEW
 70
     0
  9
$PUCSORGTOP
 10
0.0
 20
0.0
 30
0.0
  9
$PUCSORGBOTTOM
 10
0.0
 20
0.0
 30
0.0
  9
$PUCSORGLEFT
 10
0.0
 20
0.0
 30
0.0
  9
$PUCSORGRIGHT
 10
0.0
 20
0.0
 30
0.0
  9
$PUCSORGFRONT
 10
0.0
 20
0.0
 30
0.0
  9
$PUCSORGBACK
 10
0.0
 20
0.0
 30
0.0
  9
$USERI1
 70
     0
  9
$USERI2
 70
     0
  9
$USERI3
 70
     0
  9
$USERI4
 70
     0
  9
$USERI5
 70
     0
  9
$USERR1
 40
0.0
  9
$USERR2
 40
0.0
  9
$USERR3
 40
0.0
  9
$USERR4
 40
0.0
  9
$USERR5
 40
0.0
  9
$WORLDVIEW
 70
     1
  9
$SHADEDGE
 70
     3
  9
$SHADEDIF
 70
    70
  9
$TILEMODE
 70
     1
  9
$MAXACTVP
 70
    64
  9
$PINSBASE
 10
0.0
 20
0.0
 30
0.0
  9
$PLIMCHECK
 70
     0
  9
$PEXTMIN
 10
1.0000000000E+20
 20
1.0000000000E+20
 30
1.0000000000E+20
  9
$PEXTMAX
 10
-1.0000000000E+20
 20
-1.0000000000E+20
 30
-1.0000000000E+20
  9
$PLIMMIN
 10
0.0
 20
0.0
  9
$PLIMMAX
 10
12.0
 20
9.0
  9
$UNITMODE
 70
     0
  9
$VISRETAIN
 70
     1
  9
$PLINEGEN
 70
     0
  9
$PSLTSCALE
 70
     1
  9
$TREEDEPTH
 70
  3020
  9
$CMLSTYLE
  2
Standard
  9
$CMLJUST
 70
     0
  9
$CMLSCALE
 40
1.0
  9
$PROXYGRAPHICS
 70
     1
  9
$MEASUREMENT
 70
     0
  9
$CELWEIGHT
370
    -1
  9
$ENDCAPS
280
     0
  9
$JOINSTYLE
280
     0
  9
$LWDISPLAY
290
     1
  9
$INSUNITS
 70
     1
  9
$HYPERLINKBASE
  1

  9
$STYLESHEET
  1

  9
$XEDIT
290
     1
  9
$CEPSNTYPE
380
     0
  9
$PSTYLEMODE
290
     1
  9
$FINGERPRINTGUID
  2
{805FA845-A116-4BAA-921C-600DD2AF7EDE}
  9
$VERSIONGUID
  2
{FAEB1C32-E019-11D5-929B-00C0DF256EC4}
  9
$EXTNAMES
290
     1
  9
$PSVPSCALE
 40
0.0
  9
$OLESTARTUP
290
     0
  0
ENDSEC
  0
SECTION
  2
CLASSES
  0
CLASS
  1
ACDBDICTIONARYWDFLT
  2
AcDbDictionaryWithDefault
  3
ObjectDBX Classes
 90
        0
280
     0
281
     0
  0
CLASS
  1
VISUALSTYLE
  2
AcDbVisualStyle
  3
ObjectDBX Classes
 90
     4095
280
     0
281
     0
  0
CLASS
  1
MATERIAL
  2
AcDbMaterial
  3
ObjectDBX Classes
 90
     1153
280
     0
281
     0
  0
CLASS
  1
SCALE
  2
AcDbScale
  3
ObjectDBX Classes
 90
     1153
280
     0
281
     0
  0
CLASS
  1
SUN
  2
AcDbSun
  3
SCENEOE
 90
     1153
280
     0
281
     0
  0
CLASS
  1
ACDBPLACEHOLDER
  2
AcDbPlaceHolder
  3
ObjectDBX Classes
 90
        0
280
     0
281
     0
  0
CLASS
  1
LAYOUT
  2
AcDbLayout
  3
ObjectDBX Classes
 90
        0
280
     0
281
     0
  0
ENDSEC
  0
SECTION
  2
TABLES
  0
TABLE
  2
VPORT
  5
8
330
0
100
AcDbSymbolTable
 70
     1
  0
VPORT
  5
29
330
8
100
AcDbSymbolTableRecord
100
AcDbViewportTableRecord
  2
*Active
 70
     0
 10
0.0
 20
0.0
 11
1.0
 21
1.0
 12
20.6692913386
 22
29.2322834646
 13
0.0
 23
0.0
 14
0.5
 24
0.5
 15
0.5
 25
0.5
 16
0.0
 26
0.0
 36
1.0
 17
0.0
 27
0.0
 37
0.0
 40
58.4645669291
 41
0.7070707071
 42
50.0
 43
0.0
 44
0.0
 50
0.0
 51
0.0
 71
     0
 72
  2000
 73
     1
 74
     3
 75
     0
 76
     0
 77
     0
 78
     0
281
     0
 65
     1
110
0.0
120
0.0
130
0.0
111
1.0
121
0.0
131
0.0
112
0.0
122
1.0
132
0.0
 79
     0
146
0.0
  0
ENDTAB
  0
TABLE
  2
LTYPE
  5
5
330
0
100
AcDbSymbolTable
 70
     6
  0
LTYPE
  5
14
330
5
100
AcDbSymbolTableRecord
100
AcDbLinetypeTableRecord
  2
ByBlock
 70
     0
  3

 72
    65
 73
     0
 40
0.0
  0
LTYPE
  5
15
330
5
100
AcDbSymbolTableRecord
100
AcDbLinetypeTableRecord
  2
ByLayer
 70
     0
  3

 72
    65
 73
     0
 40
0.0
  0
LTYPE
  5
16
330
5
100
AcDbSymbolTableRecord
100
AcDbLinetypeTableRecord
  2
Continuous
 70
     0
  3
Solid line
 72
    65
 73
     0
 40
0.0
  0
LTYPE
  5
6A
330
5
100
AcDbSymbolTableRecord
100
AcDbLinetypeTableRecord
  2
HIDDEN
 70
     0
  3
Hidden __ __ __ __ __ __ __ __ __ __ __ __ __ __
 72
    65
 73
     2
 40
0.075
 49
0.05
 74
     0
 49
-0.025
 74
     0
  0
LTYPE
  5
6B
330
5
100
AcDbSymbolTableRecord
100
AcDbLinetypeTableRecord
  2
PHANTOM
 70
     0
  3
Phantom ______  __  __  ______  __  __  ______
 72
    65
 73
     6
 40
0.5
 49
0.25
 74
     0
 49
-0.05
 74
     0
 49
0.05
 74
     0
 49
-0.05
 74
     0
 49
0.05
 74
     0
 49
-0.05
 74
     0
  0
LTYPE
  5
6C
330
5
100
AcDbSymbolTableRecord
100
AcDbLinetypeTableRecord
  2
CENTER
 70
     0
  3
Center ____ _ ____ _ ____ _ ____ _ ____ _ ____
 72
    65
 73
     4
 40
0.4
 49
0.25
 74
     0
 49
-0.05
 74
     0
 49
0.05
 74
     0
 49
-0.05
 74
     0
  0
LTYPE
  5
6D
330
5
100
AcDbSymbolTableRecord
100
AcDbLinetypeTableRecord
  2
CENTERX2
 70
     0
  3
Center (2x) ________  __  ________  __  _____
 72
    65
 73
     4
 40
0.8
 49
0.5
 74
     0
 49
-0.1
 74
     0
 49
0.1
 74
     0
 49
-0.1
 74
     0
  0
LTYPE
  5
6E
330
5
100
AcDbSymbolTableRecord
100
AcDbLinetypeTableRecord
  2
DOT2
 70
     0
  3
Dot (.5x) ........................................
 72
    65
 73
     2
 40
0.025
 49
0.0
 74
     0
 49
-0.025
 74
     0
  0
ENDTAB
  0
TABLE
  2
LAYER
  5
2
330
0
100
AcDbSymbolTable
 70
     2
  0
LAYER
  5
10
330
2
100
AcDbSymbolTableRecord
100
AcDbLayerTableRecord
  2
0
 70
     0
 62
     7
  6
Continuous
370
    -3
390
F
  0
LAYER
  5
6F
330
2
100
AcDbSymbolTableRecord
100
AcDbLayerTableRecord
  2
FORMAT
 70
     0
 62
     7
  6
Continuous
370
    -3
390
F
  0
ENDTAB
  0
TABLE
  2
STYLE
  5
3
330
0
100
AcDbSymbolTable
 70
     3
  0
STYLE
  5
11
330
3
100
AcDbSymbolTableRecord
100
AcDbTextStyleTableRecord
  2
Standard
 70
     0
 40
0.0
 41
1.0
 50
0.0
 71
     0
 42
0.688976378
  3
txt
  4

  0
STYLE
  5
93
330
3
100
AcDbSymbolTableRecord
100
AcDbTextStyleTableRecord
  2
SLDTEXTSTYLE0
 70
     0
 40
0.0
 41
0.75
 50
0.0
 71
     0
 42
0.688976378
  3
TXT
  4

  0
STYLE
  5
97
330
3
100
AcDbSymbolTableRecord
100
AcDbTextStyleTableRecord
  2
SLDTEXTSTYLE1
 70
     0
 40
0.0
 41
0.6875
 50
0.0
 71
     0
 42
0.688976378
  3
TXT
  4

  0
ENDTAB
  0
TABLE
  2
VIEW
  5
6
330
0
100
AcDbSymbolTable
 70
     0
  0
ENDTAB
  0
TABLE
  2
UCS
  5
7
330
0
100
AcDbSymbolTable
 70
     0
  0
ENDTAB
  0
TABLE
  2
APPID
  5
9
330
0
100
AcDbSymbolTable
 70
     1
  0
APPID
  5
12
330
9
100
AcDbSymbolTableRecord
100
AcDbRegAppTableRecord
  2
ACAD
 70
     0
  0
ENDTAB
  0
TABLE
  2
DIMSTYLE
  5
A
330
0
100
AcDbSymbolTable
 70
     1
100
AcDbDimStyleTable
  0
DIMSTYLE
105
27
330
A
100
AcDbSymbolTableRecord
100
AcDbDimStyleTableRecord
  2
Standard
 70
     0
178
     0
340
11
  0
ENDTAB
  0
TABLE
  2
BLOCK_RECORD
  5
1
330
0
100
AcDbSymbolTable
 70
     3
  0
BLOCK_RECORD
  5
1F
330
1
100
AcDbSymbolTableRecord
100
AcDbBlockTableRecord
  2
*Model_Space
340
22
  0
BLOCK_RECORD
  5
1B
330
1
100
AcDbSymbolTableRecord
100
AcDbBlockTableRecord
  2
*Paper_Space
340
1E
  0
BLOCK_RECORD
  5
23
330
1
100
AcDbSymbolTableRecord
100
AcDbBlockTableRecord
  2
*Paper_Space0
340
26
  0
BLOCK_RECORD
  5
A2
330
1
100
AcDbSymbolTableRecord
100
AcDbBlockTableRecord
  2
SW_NOTE_0
340
0
102
{BLKREFS
331
A8
102
}
  0
BLOCK_RECORD
  5
AA
330
1
100
AcDbSymbolTableRecord
100
AcDbBlockTableRecord
  2
SW_NOTE_1
340
0
102
{BLKREFS
331
B3
102
}
  0
ENDTAB
  0
ENDSEC
  0
SECTION
  2
BLOCKS
  0
BLOCK
  5
20
330
1F
100
AcDbEntity
  8
0
100
AcDbBlockBegin
  2
*Model_Space
 70
     0
 10
0.0
 20
0.0
 30
0.0
  3
*Model_Space
  1
*Model_Space
  0
ENDBLK
  5
21
330
1F
100
AcDbEntity
  8
0
100
AcDbBlockEnd
  0
BLOCK
  5
1C
330
1B
100
AcDbEntity
 67
     1
  8
0
100
AcDbBlockBegin
  2
*Paper_Space
 70
     0
 10
0.0
 20
0.0
 30
0.0
  3
*Paper_Space
  1
*Paper_Space
  0
ENDBLK
  5
1D
330
1B
100
AcDbEntity
 67
     1
  8
0
100
AcDbBlockEnd
  0
BLOCK
  5
24
330
23
100
AcDbEntity
  8
0
100
AcDbBlockBegin
  2
*Paper_Space0
 70
     0
 10
0.0
 20
0.0
 30
0.0
  3
*Paper_Space0
  1
*Paper_Space0
  0
ENDBLK
  5
25
330
23
100
AcDbEntity
  8
0
100
AcDbBlockEnd
  0
BLOCK
  5
A3
330
A2
100
AcDbEntity
  8
0
100
AcDbBlockBegin
  2
SW_NOTE_0
 70
     0
 10
0.0
 20
0.0
 30
0.0
  3
SW_NOTE_0
  1
SW_NOTE_0
  0
MTEXT
  5
A5
330
A2
100
AcDbEntity
  8
0
  6
Continuous
 62
     0
370
     0
100
AcDbMText
 10
0.0
 20
0.3806302381
 30
0.0
 40
0.2952755906
 41
0.0
 71
     1
 72
     1
  1
DEBUR AND
  7
SLDTEXTSTYLE0
 73
     1
 44
1.0
  0
MTEXT
  5
A6
330
A2
100
AcDbEntity
  8
0
  6
Continuous
 62
     0
370
     0
100
AcDbMText
 10
0.0
 20
-0.1114957351
 30
0.0
 40
0.2952755906
 41
0.0
 71
     1
 72
     1
  1
BREAK SHARP
  7
SLDTEXTSTYLE0
 73
     1
 44
1.0
  0
MTEXT
  5
A7
330
A2
100
AcDbEntity
  8
0
  6
Continuous
 62
     0
370
     0
100
AcDbMText
 10
0.0
 20
-0.6036217084
 30
0.0
 40
0.2952755906
 41
0.0
 71
     1
 72
     1
  1
EDGES
  7
SLDTEXTSTYLE0
 73
     1
 44
1.0
  0
ENDBLK
  5
A4
330
A2
100
AcDbEntity
  8
0
100
AcDbBlockEnd
  0
BLOCK
  5
AB
330
AA
100
AcDbEntity
  8
0
100
AcDbBlockBegin
  2
SW_NOTE_1
 70
     0
 10
0.0
 20
0.0
 30
0.0
  3
SW_NOTE_1
  1
SW_NOTE_1
  0
MTEXT
  5
AD
330
AA
100
AcDbEntity
  8
0
  6
Continuous
 62
     0
370
     0
100
AcDbMText
 10
0.0
 20
0.3806302381
 30
0.0
 40
0.2952755906
 41
0.0
 71
     1
 72
     1
  1
UNLESS OTHERWISE SPECIFIED:
  7
SLDTEXTSTYLE0
 73
     1
 44
1.0
  0
MTEXT
  5
AE
330
AA
100
AcDbEntity
  8
0
  6
Continuous
 62
     0
370
     0
100
AcDbMText
 10
0.0
 20
-0.1114957351
 30
0.0
 40
0.2952755906
 41
0.0
 71
     1
 72
     1
  1
DIMENSIONS ARE IN MILLIMETERS
  7
SLDTEXTSTYLE0
 73
     1
 44
1.0
  0
MTEXT
  5
AF
330
AA
100
AcDbEntity
  8
0
  6
Continuous
 62
     0
370
     0
100
AcDbMText
 10
0.0
 20
-0.6036217084
 30
0.0
 40
0.2952755906
 41
0.0
 71
     1
 72
     1
  1
SURFACE FINISH:
  7
SLDTEXTSTYLE0
 73
     1
 44
1.0
  0
MTEXT
  5
B0
330
AA
100
AcDbEntity
  8
0
  6
Continuous
 62
     0
370
     0
100
AcDbMText
 10
0.0
 20
-1.0957476816
 30
0.0
 40
0.2952755906
 41
0.0
 71
     1
 72
     1
  1
TOLERANCES:
  7
SLDTEXTSTYLE0
 73
     1
 44
1.0
  0
MTEXT
  5
B1
330
AA
100
AcDbEntity
  8
0
  6
Continuous
 62
     0
370
     0
100
AcDbMText
 10
0.3321850394
 20
-1.5878736549
 30
0.0
 40
0.2952755906
 41
0.0
 71
     1
 72
     1
  1
LINEAR:
  7
SLDTEXTSTYLE0
 73
     1
 44
1.0
  0
MTEXT
  5
B2
330
AA
100
AcDbEntity
  8
0
  6
Continuous
 62
     0
370
     0
100
AcDbMText
 10
0.3321850394
 20
-2.0799996281
 30
0.0
 40
0.2952755906
 41
0.0
 71
     1
 72
     1
  1
ANGULAR:
  7
SLDTEXTSTYLE0
 73
     1
 44
1.0
  0
ENDBLK
  5
AC
330
AA
100
AcDbEntity
  8
0
100
AcDbBlockEnd
  0
ENDSEC
  0
SECTION
  2
ENTITIES
  0
LINE
  5
70
330
1F
100
AcDbEntity
  8
0
  6
Continuous
 62
     7
370
    40
100
AcDbLine
 10
1.9840243239
 20
1.0265315269
 30
0.0
 11
40.3698510955
 21
1.0265315269
 31
0.0
  0
LINE
  5
71
330
1F
100
AcDbEntity
  8
0
  6
Continuous
 62
     7
370
    40
100
AcDbLine
 10
0.0155203869
 20
0.0422795584
 30
0.0
 11
41.354103064
 21
0.0422795584
 31
0.0
  0
LINE
  5
72
330
1F
100
AcDbEntity
  8
0
  6
Continuous
 62
     7
370
    40
100
AcDbLine
 10
0.0155203869
 20
0.0422795584
 30
0.0
 11
0.0155203869
 21
58.5068464875
 31
0.0
  0
LINE
  5
73
330
1F
100
AcDbEntity
  8
0
  6
Continuous
 62
     7
370
    40
100
AcDbLine
 10
0.0155203869
 20
58.5068464875
 30
0.0
 11
41.354103064
 21
58.5068464875
 31
0.0
  0
LINE
  5
74
330
1F
100
AcDbEntity
  8
0
  6
Continuous
 62
     7
370
    40
100
AcDbLine
 10
41.354103064
 20
0.0422795584
 30
0.0
 11
41.354103064
 21
58.5068464875
 31
0.0
  0
LINE
  5
75
330
1F
100
AcDbEntity
  8
0
  6
Continuous
 62
     7
370
    40
100
AcDbLine
 10
1.9840243239
 20
57.522594519
 30
0.0
 11
40.3698510955
 21
57.522594519
 31
0.0
  0
LINE
  5
76
330
1F
100
AcDbEntity
  8
0
  6
Continuous
 62
     7
370
    40
100
AcDbLine
 10
40.3698510955
 20
1.0265315269
 30
0.0
 11
35.6276204426
 21
1.0265315269
 31
0.0
  0
LINE
  5
77
330
1F
100
AcDbEntity
  8
0
  6
Continuous
 62
     7
370
    40
100
AcDbLine
 10
1.9840243239
 20
1.0265315269
 30
0.0
 11
1.9840243239
 21
57.522594519
 31
0.0
  0
LINE
  5
78
330
1F
100
AcDbEntity
  8
0
  6
Continuous
 62
     7
370
    40
100
AcDbLine
 10
1.9903190771
 20
1.84467072
 30
0.0
 11
40.3698510955
 21
1.84467072
 31
0.0
  0
LINE
  5
79
330
1F
100
AcDbEntity
  8
0
  6
Continuous
 62
     7
370
    40
100
AcDbLine
 10
40.3698510955
 20
8.5375841058
 30
0.0
 11
1.9903190771
 21
8.5375841058
 31
0.0
  0
LINE
  5
7A
330
1F
100
AcDbEntity
  8
0
  6
Continuous
 62
     7
370
    40
100
AcDbLine
 10
1.9903190771
 20
11.8840407988
 30
0.0
 11
40.3698510955
 21
11.8840407988
 31
0.0
  0
LINE
  5
7B
330
1F
100
AcDbEntity
  8
0
  6
Continuous
 62
     7
370
    40
100
AcDbLine
 10
41.354103064
 20
57.522594519
 30
0.0
 11
41.354103064
 21
58.5068464875
 31
0.0
  0
LINE
  5
7C
330
1F
100
AcDbEntity
  8
0
  6
Continuous
 62
     7
370
    40
100
AcDbLine
 10
7.30349869
 20
8.5375841058
 30
0.0
 11
7.30349869
 21
1.0080565468
 31
0.0
  0
LINE
  5
7D
330
1F
100
AcDbEntity
  8
0
  6
Continuous
 62
     7
370
    40
100
AcDbLine
 10
21.4391379747
 20
5.1911274129
 30
0.0
 11
1.9903190771
 21
5.1911274129
 31
0.0
  0
LINE
  5
7E
330
1F
100
AcDbEntity
  8
0
  6
Continuous
 62
     7
370
    40
100
AcDbLine
 10
21.4391379747
 20
6.0277415862
 30
0.0
 11
1.9903190771
 21
6.0277415862
 31
0.0
  0
LINE
  5
7F
330
1F
100
AcDbEntity
  8
0
  6
Continuous
 62
     7
370
    40
100
AcDbLine
 10
21.4391379747
 20
6.8643557594
 30
0.0
 11
1.9903190771
 21
6.8643557594
 31
0.0
  0
LINE
  5
80
330
1F
100
AcDbEntity
  8
0
  6
Continuous
 62
     7
370
    40
100
AcDbLine
 10
21.4391379747
 20
7.7009699326
 30
0.0
 11
1.9903190771
 21
7.7009699326
 31
0.0
  0
LINE
  5
81
330
1F
100
AcDbEntity
  8
0
  6
Continuous
 62
     7
370
    40
100
AcDbLine
 10
12.7383505732
 20
1.0080565468
 30
0.0
 11
12.7383505732
 21
8.5375841058
 31
0.0
  0
LINE
  5
82
330
1F
100
AcDbEntity
  8
0
  6
Continuous
 62
     7
370
    40
100
AcDbLine
 10
1.9903190771
 20
11.8840407988
 30
0.0
 11
1.9903190771
 21
1.0080565468
 31
0.0
  0
LINE
  5
83
330
1F
100
AcDbEntity
  8
0
  6
Continuous
 62
     7
370
    40
100
AcDbLine
 10
3.525752148
 20
8.5375841058
 30
0.0
 11
3.525752148
 21
1.0080565468
 31
0.0
  0
LINE
  5
84
330
1F
100
AcDbEntity
  8
0
  6
Continuous
 62
     7
370
    40
100
AcDbLine
 10
8.6438623842
 20
8.5375841058
 30
0.0
 11
8.6438623842
 21
11.8840407988
 31
0.0
  0
LINE
  5
85
330
1F
100
AcDbEntity
  8
0
  6
Continuous
 62
     7
370
    40
100
AcDbLine
 10
10.7302651723
 20
8.5375841058
 30
0.0
 11
10.7302651723
 21
1.0080565468
 31
0.0
  0
LINE
  5
86
330
1F
100
AcDbEntity
  8
0
  6
Continuous
 62
     7
370
    40
100
AcDbLine
 10
14.7855946676
 20
5.1911274129
 30
0.0
 11
14.7855946676
 21
8.5375841058
 31
0.0
  0
LINE
  5
87
330
1F
100
AcDbEntity
  8
0
  6
Continuous
 62
     7
370
    40
100
AcDbLine
 10
12.7383505732
 20
2.6812848932
 30
0.0
 11
1.9903190771
 21
2.6812848932
 31
0.0
  0
LINE
  5
88
330
1F
100
AcDbEntity
  8
0
  6
Continuous
 62
     7
370
    40
100
AcDbLine
 10
17.8564608094
 20
11.8840407988
 30
0.0
 11
17.8564608094
 21
4.3545132397
 31
0.0
  0
LINE
  5
89
330
1F
100
AcDbEntity
  8
0
  6
Continuous
 62
     7
370
    40
100
AcDbLine
 10
12.7383505732
 20
3.5178848932
 30
0.0
 11
1.9903190771
 21
3.5178848932
 31
0.0
  0
LINE
  5
8A
330
1F
100
AcDbEntity
  8
0
  6
Continuous
 62
     7
370
    40
100
AcDbLine
 10
12.7383505732
 20
4.3545132397
 30
0.0
 11
1.9903190771
 21
4.3545132397
 31
0.0
  0
LINE
  5
8B
330
1F
100
AcDbEntity
  8
0
  6
Continuous
 62
     7
370
    40
100
AcDbLine
 10
12.7383505732
 20
4.3545132397
 30
0.0
 11
40.3698510955
 21
4.3545132397
 31
0.0
  0
LINE
  5
8C
330
1F
100
AcDbEntity
  8
0
  6
Continuous
 62
     7
370
    40
100
AcDbLine
 10
21.4391379747
 20
11.8840407988
 30
0.0
 11
21.4391379747
 21
1.0080565468
 31
0.0
  0
LINE
  5
8D
330
1F
100
AcDbEntity
  8
0
  6
Continuous
 62
     7
370
    40
100
AcDbLine
 10
31.669063694
 20
1.0265315269
 30
0.0
 11
31.669063694
 21
1.8631457001
 31
0.0
  0
LINE
  5
8E
330
1F
100
AcDbEntity
  8
0
  6
Continuous
 62
     7
370
    40
100
AcDbLine
 10
33.2044967648
 20
10.647594519
 30
0.0
 11
33.2044967648
 21
11.9025157789
 31
0.0
  0
LINE
  5
8F
330
1F
100
AcDbEntity
  8
0
  6
Continuous
 62
     7
370
    40
100
AcDbLine
 10
37.8107959774
 20
1.8631457001
 30
0.0
 11
37.8107959774
 21
4.3729882198
 31
0.0
  0
LINE
  5
90
330
1F
100
AcDbEntity
  8
0
  6
Continuous
 62
     7
370
    40
100
AcDbLine
 10
40.3698510955
 20
10.6291195389
 30
0.0
 11
21.4391379747
 21
10.6291195389
 31
0.0
  0
LINE
  5
91
330
1F
100
AcDbEntity
  8
0
  6
Continuous
 62
     7
370
    40
100
AcDbLine
 10
40.3698510955
 20
2.6997598734
 30
0.0
 11
37.8107959774
 21
2.6997598734
 31
0.0
  0
LINE
  5
92
330
1F
100
AcDbEntity
  8
0
  6
Continuous
 62
     7
370
    40
100
AcDbLine
 10
40.3698510955
 20
1.0265315269
 30
0.0
 11
40.3698510955
 21
57.522594519
 31
0.0
  0
MTEXT
  5
94
330
1F
100
AcDbEntity
  8
0
  6
Continuous
 62
     7
370
     0
100
AcDbMText
 10
31.1160908707
 20
3.9067949934
 30
0.0
 40
1.25
 41
0.0
 71
     2
 72
     1
  1
MatrixBezelPrototype
  7
SLDTEXTSTYLE0
 73
     1
 44
1.0
  0
MTEXT
  5
95
330
1F
100
AcDbEntity
  8
0
  6
Continuous
 62
     7
370
     0
100
AcDbMText
 10
12.9387070944
 20
1.5886297562
 30
0.0
 40
0.295
 41
0.0
 71
     1
 72
     1
  1
WEIGHT:
  7
SLDTEXTSTYLE0
 73
     1
 44
1.0
  0
MTEXT
  5
96
330
1F
100
AcDbEntity
  8
0
  6
Continuous
 62
     7
370
     0
100
AcDbMText
 10
38.5826433881
 20
3.841579659
 30
0.0
 40
0.5729166667
 41
0.0
 71
     1
 72
     1
  1
A4
  7
SLDTEXTSTYLE0
 73
     1
 44
1.0
  0
MTEXT
  5
98
330
1F
100
AcDbEntity
  8
0
  6
Continuous
 62
     7
370
     0
100
AcDbMText
 10
31.9600665341
 20
1.5974148487
 30
0.0
 40
0.2952755906
 41
0.0
 71
     1
 72
     1
  1
SHEET 1 OF 1
  7
SLDTEXTSTYLE1
 73
     1
 44
1.0
  0
MTEXT
  5
99
330
1F
100
AcDbEntity
  8
0
  6
Continuous
 62
     7
370
     0
100
AcDbMText
 10
21.6899187065
 20
1.5789398685
 30
0.0
 40
0.2952755906
 41
0.0
 71
     1
 72
     1
  1
SCALE:1:5
  7
SLDTEXTSTYLE0
 73
     1
 44
1.0
  0
MTEXT
  5
9A
330
1F
100
AcDbEntity
  8
0
  6
Continuous
 62
     7
370
     0
100
AcDbMText
 10
21.6899187065
 20
3.9349537568
 30
0.0
 40
0.2952755906
 41
0.0
 71
     1
 72
     1
  1
DWG NO.
  7
SLDTEXTSTYLE0
 73
     1
 44
1.0
  0
MTEXT
  5
9B
330
1F
100
AcDbEntity
  8
0
  6
Continuous
 62
     7
370
     0
100
AcDbMText
 10
21.6667338284
 20
8.1494609338
 30
0.0
 40
0.2952755906
 41
0.0
 71
     1
 72
     1
  1
TITLE:
  7
SLDTEXTSTYLE0
 73
     1
 44
1.0
  0
MTEXT
  5
9C
330
1F
100
AcDbEntity
  8
0
  6
Continuous
 62
     7
370
     0
100
AcDbMText
 10
33.7020522175
 20
11.3286789049
 30
0.0
 40
0.2952755906
 41
0.0
 71
     1
 72
     1
  1
REVISION
  7
SLDTEXTSTYLE0
 73
     1
 44
1.0
  0
MTEXT
  5
9D
330
1F
100
AcDbEntity
  8
0
  6
Continuous
 62
     7
370
     0
100
AcDbMText
 10
25.6876937182
 20
11.3676719944
 30
0.0
 40
0.2952755906
 41
0.0
 71
     1
 72
     1
  1
DO NOT SCALE DRAWING
  7
SLDTEXTSTYLE0
 73
     1
 44
1.0
  0
MTEXT
  5
9E
330
1F
100
AcDbEntity
  8
0
  6
Continuous
 62
     7
370
     0
100
AcDbMText
 10
12.9442289804
 20
4.154918021
 30
0.0
 40
0.2952755906
 41
0.0
 71
     1
 72
     1
  1
MATERIAL:
  7
SLDTEXTSTYLE0
 73
     1
 44
1.0
  0
MTEXT
  5
9F
330
1F
100
AcDbEntity
  8
0
  6
Continuous
 62
     7
370
     0
100
AcDbMText
 10
11.2845517475
 20
8.2080918266
 30
0.0
 40
0.2952755906
 41
0.0
 71
     1
 72
     1
  1
DATE
  7
SLDTEXTSTYLE0
 73
     1
 44
1.0
  0
MTEXT
  5
A0
330
1F
100
AcDbEntity
  8
0
  6
Continuous
 62
     7
370
     0
100
AcDbMText
 10
7.9024426132
 20
8.2052526845
 30
0.0
 40
0.2952755906
 41
0.0
 71
     1
 72
     1
  1
SIGNATURE
  7
SLDTEXTSTYLE0
 73
     1
 44
1.0
  0
MTEXT
  5
A1
330
1F
100
AcDbEntity
  8
0
  6
Continuous
 62
     7
370
     0
100
AcDbMText
 10
4.8096575058
 20
8.1933877738
 30
0.0
 40
0.2952755906
 41
0.0
 71
     1
 72
     1
  1
NAME
  7
SLDTEXTSTYLE0
 73
     1
 44
1.0
  0
INSERT
  5
A8
330
1F
100
AcDbEntity
  8
0
  6
Continuous
 62
     7
370
     0
100
AcDbBlockReference
  2
SW_NOTE_0
 10
17.9960701964
 20
11.2579560828
 30
0.0
  0
MTEXT
  5
A9
330
1F
100
AcDbEntity
  8
0
  6
Continuous
 62
     7
370
     0
100
AcDbMText
 10
8.7563214721
 20
11.6220864671
 30
0.0
 40
0.2952755906
 41
0.0
 71
     1
 72
     1
  1
FINISH:
  7
SLDTEXTSTYLE0
 73
     1
 44
1.0
  0
INSERT
  5
B3
330
1F
100
AcDbEntity
  8
0
  6
Continuous
 62
     7
370
     0
100
AcDbBlockReference
  2
SW_NOTE_1
 10
2.1071830034
 20
11.241790774
 30
0.0
  0
MTEXT
  5
B4
330
1F
100
AcDbEntity
  8
0
  6
Continuous
 62
     7
370
     0
100
AcDbMText
 10
2.1220204279
 20
4.0296410364
 30
0.0
 40
0.2952755906
 41
0.0
 71
     1
 72
     1
  1
Q.A
  7
SLDTEXTSTYLE0
 73
     1
 44
1.0
  0
MTEXT
  5
B5
330
1F
100
AcDbEntity
  8
0
  6
Continuous
 62
     7
370
     0
100
AcDbMText
 10
2.0799227187
 20
4.8926440764
 30
0.0
 40
0.2952755906
 41
0.0
 71
     1
 72
     1
  1
MFG
  7
SLDTEXTSTYLE0
 73
     1
 44
1.0
  0
MTEXT
  5
B6
330
1F
100
AcDbEntity
  8
0
  6
Continuous
 62
     7
370
     0
100
AcDbMText
 10
2.0693982913
 20
5.7451226891
 30
0.0
 40
0.2952755906
 41
0.0
 71
     1
 72
     1
  1
APPV'D
  7
SLDTEXTSTYLE0
 73
     1
 44
1.0
  0
MTEXT
  5
B7
330
1F
100
AcDbEntity
  8
0
  6
Continuous
 62
     7
370
     0
100
AcDbMText
 10
2.0711200353
 20
6.5502626806
 30
0.0
 40
0.2952755906
 41
0.0
 71
     1
 72
     1
  1
CHK'D
  7
SLDTEXTSTYLE0
 73
     1
 44
1.0
  0
MTEXT
  5
B8
330
1F
100
AcDbEntity
  8
0
  6
Continuous
 62
     7
370
     0
100
AcDbMText
 10
2.0320807393
 20
7.3918586897
 30
0.0
 40
0.2952755906
 41
0.0
 71
     1
 72
     1
  1
DRAWN
  7
SLDTEXTSTYLE0
 73
     1
 44
1.0
  0
LINE
  5
B9
330
1F
100
AcDbEntity
  8
0
  6
Continuous
 62
     7
370
    15
100
AcDbLine
 10
15.4324383627
 20
39.3972608946
 30
0.0
 11
23.7788955162
 21
39.3972608946
 31
0.0
  0
LINE
  5
BA
330
1F
100
AcDbEntity
  8
0
  6
Continuous
 62
     7
370
    15
100
AcDbLine
 10
23.7788955162
 20
39.3972608946
 30
0.0
 11
23.7788955162
 21
31.0508043003
 31
0.0
  0
LINE
  5
BB
330
1F
100
AcDbEntity
  8
0
  6
Continuous
 62
     7
370
    15
100
AcDbLine
 10
23.7788955162
 20
31.0508043003
 30
0.0
 11
15.4324383627
 21
31.0508043003
 31
0.0
  0
LINE
  5
BC
330
1F
100
AcDbEntity
  8
0
  6
Continuous
 62
     7
370
    15
100
AcDbLine
 10
15.4324383627
 20
31.0508043003
 30
0.0
 11
15.4324383627
 21
39.3972608946
 31
0.0
  0
ARC
  5
BD
330
1F
100
AcDbEntity
  8
0
  6
Continuous
 62
     7
370
    15
100
AcDbCircle
 10
15.90487983
 20
32.0350562229
 30
0.0
 40
0.0787401574803148
100
AcDbArc
 50
90.0
 51
180.0
  0
LINE
  5
BE
330
1F
100
AcDbEntity
  8
0
  6
Continuous
 62
     7
370
    15
100
AcDbLine
 10
15.8261401233
 20
31.5232453226
 30
0.0
 11
15.8261401233
 21
32.0350562101
 31
0.0
  0
ARC
  5
BF
330
1F
100
AcDbEntity
  8
0
  6
Continuous
 62
     7
370
    15
100
AcDbCircle
 10
15.90487983
 20
31.5232451993
 30
0.0
 40
0.0787401574803148
100
AcDbArc
 50
180.0
 51
270.0
  0
LINE
  5
C0
330
1F
100
AcDbEntity
  8
0
  6
Continuous
 62
     7
370
    15
100
AcDbLine
 10
16.4166910139
 20
31.4445050056
 30
0.0
 11
15.9048800332
 21
31.4445050056
 31
0.0
  0
ARC
  5
C1
330
1F
100
AcDbEntity
  8
0
  6
Continuous
 62
     7
370
    15
100
AcDbCircle
 10
16.4166908536
 20
31.5232451993
 30
0.0
 40
0.0787401574803148
100
AcDbArc
 50
270.0
 51
0.0
  0
LINE
  5
C2
330
1F
100
AcDbEntity
  8
0
  6
Continuous
 62
     7
370
    15
100
AcDbLine
 10
16.4954308625
 20
32.0350562101
 30
0.0
 11
16.4954308625
 21
31.5232453226
 31
0.0
  0
ARC
  5
C3
330
1F
100
AcDbEntity
  8
0
  6
Continuous
 62
     7
370
    15
100
AcDbCircle
 10
16.4166908536
 20
32.0350562229
 30
0.0
 40
0.0787401574803184
100
AcDbArc
 50
0.0
 51
90.0
  0
LINE
  5
C4
330
1F
100
AcDbEntity
  8
0
  6
Continuous
 62
     7
370
    15
100
AcDbLine
 10
15.9048800332
 20
32.1137962338
 30
0.0
 11
16.4166910139
 21
32.1137962338
 31
0.0
  0
ARC
  5
C5
330
1F
100
AcDbEntity
  8
0
  6
Continuous
 62
     7
370
    15
100
AcDbCircle
 10
16.8891317985
 20
32.0350562229
 30
0.0
 40
0.0787401574803184
100
AcDbArc
 50
90.0
 51
180.0
  0
LINE
  5
C6
330
1F
100
AcDbEntity
  8
0
  6
Continuous
 62
     7
370
    15
100
AcDbLine
 10
16.8103916076
 20
31.5232453226
 30
0.0
 11
16.8103916076
 21
32.0350562101
 31
0.0
  0
ARC
  5
C7
330
1F
100
AcDbEntity
  8
0
  6
Continuous
 62
     7
370
    15
100
AcDbCircle
 10
16.8891317985
 20
31.5232451993
 30
0.0
 40
0.0787401574803184
100
AcDbArc
 50
180.0
 51
270.0
  0
LINE
  5
C8
330
1F
100
AcDbEntity
  8
0
  6
Continuous
 62
     7
370
    15
100
AcDbLine
 10
17.4009430203
 20
31.4445050056
 30
0.0
 11
16.8891320396
 21
31.4445050056
 31
0.0
  0
ARC
  5
C9
330
1F
100
AcDbEntity
  8
0
  6
Continuous
 62
     7
370
    15
100
AcDbCircle
 10
17.4009428221
 20
31.5232451993
 30
0.0
 40
0.0787401574803148
100
AcDbArc
 50
270.0
 51
0.0
  0
LINE
  5
CA
330
1F
100
AcDbEntity
  8
0
  6
Continuous
 62
     7
370
    15
100
AcDbLine
 10
17.4796829302
 20
32.0350562101
 30
0.0
 11
17.4796829302
 21
31.5232453226
 31
0.0
  0
ARC
  5
CB
330
1F
100
AcDbEntity
  8
0
  6
Continuous
 62
     7
370
    15
100
AcDbCircle
 10
17.4009428221
 20
32.0350562229
 30
0.0
 40
0.0787401574803184
100
AcDbArc
 50
0.0
 51
90.0
  0
LINE
  5
CC
330
1F
100
AcDbEntity
  8
0
  6
Continuous
 62
     7
370
    15
100
AcDbLine
 10
16.8891320396
 20
32.1137962338
 30
0.0
 11
17.4009430203
 21
32.1137962338
 31
0.0
  0
ARC
  5
CD
330
1F
100
AcDbEntity
  8
0
  6
Continuous
 62
     7
370
    15
100
AcDbCircle
 10
17.873383767
 20
32.0350562229
 30
0.0
 40
0.0787401574803184
100
AcDbArc
 50
90.0
 51
180.0
  0
LINE
  5
CE
330
1F
100
AcDbEntity
  8
0
  6
Continuous
 62
     7
370
    15
100
AcDbLine
 10
17.7946436141
 20
31.5232453226
 30
0.0
 11
17.7946436141
 21
32.0350562101
 31
0.0
  0
ARC
  5
CF
330
1F
100
AcDbEntity
  8
0
  6
Continuous
 62
     7
370
    15
100
AcDbCircle
 10
17.873383767
 20
31.5232451993
 30
0.0
 40
0.0787401574803184
100
AcDbArc
 50
180.0
 51
270.0
  0
LINE
  5
D0
330
1F
100
AcDbEntity
  8
0
  6
Continuous
 62
     7
370
    15
100
AcDbLine
 10
18.3851945046
 20
31.4445050056
 30
0.0
 11
17.8733835239
 21
31.4445050056
 31
0.0
  0
ARC
  5
D1
330
1F
100
AcDbEntity
  8
0
  6
Continuous
 62
     7
370
    15
100
AcDbCircle
 10
18.3851947906
 20
31.5232451993
 30
0.0
 40
0.0787401574803184
100
AcDbArc
 50
270.0
 51
0.0
  0
LINE
  5
D2
330
1F
100
AcDbEntity
  8
0
  6
Continuous
 62
     7
370
    15
100
AcDbLine
 10
18.463934998
 20
32.0350562101
 30
0.0
 11
18.463934998
 21
31.5232453226
 31
0.0
  0
ARC
  5
D3
330
1F
100
AcDbEntity
  8
0
  6
Continuous
 62
     7
370
    15
100
AcDbCircle
 10
18.3851947906
 20
32.0350562229
 30
0.0
 40
0.0787401574803184
100
AcDbArc
 50
0.0
 51
90.0
  0
LINE
  5
D4
330
1F
100
AcDbEntity
  8
0
  6
Continuous
 62
     7
370
    15
100
AcDbLine
 10
17.8733835239
 20
32.1137962338
 30
0.0
 11
18.3851945046
 21
32.1137962338
 31
0.0
  0
ARC
  5
D5
330
1F
100
AcDbEntity
  8
0
  6
Continuous
 62
     7
370
    15
100
AcDbCircle
 10
18.8576357355
 20
32.0350562229
 30
0.0
 40
0.0787401574803148
100
AcDbArc
 50
90.0
 51
180.0
  0
LINE
  5
D6
330
1F
100
AcDbEntity
  8
0
  6
Continuous
 62
     7
370
    15
100
AcDbLine
 10
18.7788956818
 20
31.5232453226
 30
0.0
 11
18.7788956818
 21
32.0350562101
 31
0.0
  0
ARC
  5
D7
330
1F
100
AcDbEntity
  8
0
  6
Continuous
 62
     7
370
    15
100
AcDbCircle
 10
18.8576357355
 20
31.5232451993
 30
0.0
 40
0.0787401574803184
100
AcDbArc
 50
180.0
 51
270.0
  0
LINE
  5
D8
330
1F
100
AcDbEntity
  8
0
  6
Continuous
 62
     7
370
    15
100
AcDbLine
 10
19.3694465724
 20
31.4445050056
 30
0.0
 11
18.8576355917
 21
31.4445050056
 31
0.0
  0
ARC
  5
D9
330
1F
100
AcDbEntity
  8
0
  6
Continuous
 62
     7
370
    15
100
AcDbCircle
 10
19.3694467591
 20
31.5232451993
 30
0.0
 40
0.0787401574803184
100
AcDbArc
 50
270.0
 51
0.0
  0
LINE
  5
DA
330
1F
100
AcDbEntity
  8
0
  6
Continuous
 62
     7
370
    15
100
AcDbLine
 10
19.4481870044
 20
32.0350562101
 30
0.0
 11
19.4481870044
 21
31.5232453226
 31
0.0
  0
ARC
  5
DB
330
1F
100
AcDbEntity
  8
0
  6
Continuous
 62
     7
370
    15
100
AcDbCircle
 10
19.3694467591
 20
32.0350562229
 30
0.0
 40
0.0787401574803184
100
AcDbArc
 50
0.0
 51
90.0
  0
LINE
  5
DC
330
1F
100
AcDbEntity
  8
0
  6
Continuous
 62
     7
370
    15
100
AcDbLine
 10
18.8576355917
 20
32.1137962338
 30
0.0
 11
19.3694465724
 21
32.1137962338
 31
0.0
  0
ARC
  5
DD
330
1F
100
AcDbEntity
  8
0
  6
Continuous
 62
     7
370
    15
100
AcDbCircle
 10
19.841887704
 20
32.0350562229
 30
0.0
 40
0.0787401574803184
100
AcDbArc
 50
90.0
 51
180.0
  0
LINE
  5
DE
330
1F
100
AcDbEntity
  8
0
  6
Continuous
 62
     7
370
    15
100
AcDbLine
 10
19.7631477496
 20
31.5232453226
 30
0.0
 11
19.7631477496
 21
32.0350562101
 31
0.0
  0
ARC
  5
DF
330
1F
100
AcDbEntity
  8
0
  6
Continuous
 62
     7
370
    15
100
AcDbCircle
 10
19.841887704
 20
31.5232451993
 30
0.0
 40
0.0787401574803148
100
AcDbArc
 50
180.0
 51
270.0
  0
LINE
  5
E0
330
1F
100
AcDbEntity
  8
0
  6
Continuous
 62
     7
370
    15
100
AcDbLine
 10
20.3536985789
 20
31.4445050056
 30
0.0
 11
19.8418875982
 21
31.4445050056
 31
0.0
  0
ARC
  5
E1
330
1F
100
AcDbEntity
  8
0
  6
Continuous
 62
     7
370
    15
100
AcDbCircle
 10
20.3536987276
 20
31.5232451993
 30
0.0
 40
0.0787401574803148
100
AcDbArc
 50
270.0
 51
0.0
  0
LINE
  5
E2
330
1F
100
AcDbEntity
  8
0
  6
Continuous
 62
     7
370
    15
100
AcDbLine
 10
20.4324390722
 20
32.0350562101
 30
0.0
 11
20.4324390722
 21
31.5232453226
 31
0.0
  0
ARC
  5
E3
330
1F
100
AcDbEntity
  8
0
  6
Continuous
 62
     7
370
    15
100
AcDbCircle
 10
20.3536987276
 20
32.0350562229
 30
0.0
 40
0.0787401574803184
100
AcDbArc
 50
0.0
 51
90.0
  0
LINE
  5
E4
330
1F
100
AcDbEntity
  8
0
  6
Continuous
 62
     7
370
    15
100
AcDbLine
 10
19.8418875982
 20
32.1137962338
 30
0.0
 11
20.3536985789
 21
32.1137962338
 31
0.0
  0
ARC
  5
E5
330
1F
100
AcDbEntity
  8
0
  6
Continuous
 62
     7
370
    15
100
AcDbCircle
 10
20.8261396725
 20
32.0350562229
 30
0.0
 40
0.0787401574803148
100
AcDbArc
 50
90.0
 51
180.0
  0
LINE
  5
E6
330
1F
100
AcDbEntity
  8
0
  6
Continuous
 62
     7
370
    15
100
AcDbLine
 10
20.747399756
 20
31.5232453226
 30
0.0
 11
20.747399756
 21
32.0350562101
 31
0.0
  0
ARC
  5
E7
330
1F
100
AcDbEntity
  8
0
  6
Continuous
 62
     7
370
    15
100
AcDbCircle
 10
20.8261396725
 20
31.5232451993
 30
0.0
 40
0.0787401574803148
100
AcDbArc
 50
180.0
 51
270.0
  0
LINE
  5
E8
330
1F
100
AcDbEntity
  8
0
  6
Continuous
 62
     7
370
    15
100
AcDbLine
 10
21.3379506466
 20
31.4445050056
 30
0.0
 11
20.8261396659
 21
31.4445050056
 31
0.0
  0
ARC
  5
E9
330
1F
100
AcDbEntity
  8
0
  6
Continuous
 62
     7
370
    15
100
AcDbCircle
 10
21.3379506961
 20
31.5232451993
 30
0.0
 40
0.0787401574803148
100
AcDbArc
 50
270.0
 51
0.0
  0
LINE
  5
EA
330
1F
100
AcDbEntity
  8
0
  6
Continuous
 62
     7
370
    15
100
AcDbLine
 10
21.41669114
 20
32.0350562101
 30
0.0
 11
21.41669114
 21
31.5232453226
 31
0.0
  0
ARC
  5
EB
330
1F
100
AcDbEntity
  8
0
  6
Continuous
 62
     7
370
    15
100
AcDbCircle
 10
21.3379506961
 20
32.0350562229
 30
0.0
 40
0.0787401574803148
100
AcDbArc
 50
0.0
 51
90.0
  0
LINE
  5
EC
330
1F
100
AcDbEntity
  8
0
  6
Continuous
 62
     7
370
    15
100
AcDbLine
 10
20.8261396659
 20
32.1137962338
 30
0.0
 11
21.3379506466
 21
32.1137962338
 31
0.0
  0
ARC
  5
ED
330
1F
100
AcDbEntity
  8
0
  6
Continuous
 62
     7
370
    15
100
AcDbCircle
 10
21.810391641
 20
32.0350562229
 30
0.0
 40
0.0787401574803184
100
AcDbArc
 50
90.0
 51
180.0
  0
LINE
  5
EE
330
1F
100
AcDbEntity
  8
0
  6
Continuous
 62
     7
370
    15
100
AcDbLine
 10
21.7316515321
 20
31.5232453226
 30
0.0
 11
21.7316515321
 21
32.0350562101
 31
0.0
  0
ARC
  5
EF
330
1F
100
AcDbEntity
  8
0
  6
Continuous
 62
     7
370
    15
100
AcDbCircle
 10
21.810391641
 20
31.5232451993
 30
0.0
 40
0.0787401574803184
100
AcDbArc
 50
180.0
 51
270.0
  0
LINE
  5
F0
330
1F
100
AcDbEntity
  8
0
  6
Continuous
 62
     7
370
    15
100
AcDbLine
 10
22.3222027144
 20
31.4445050056
 30
0.0
 11
21.8103917337
 21
31.4445050056
 31
0.0
  0
ARC
  5
F1
330
1F
100
AcDbEntity
  8
0
  6
Continuous
 62
     7
370
    15
100
AcDbCircle
 10
22.3222026646
 20
31.5232451993
 30
0.0
 40
0.0787401574803113
100
AcDbArc
 50
270.0
 51
0.0
  0
LINE
  5
F2
330
1F
100
AcDbEntity
  8
0
  6
Continuous
 62
     7
370
    15
100
AcDbLine
 10
22.4009428547
 20
32.0350562101
 30
0.0
 11
22.4009428547
 21
31.5232453226
 31
0.0
  0
ARC
  5
F3
330
1F
100
AcDbEntity
  8
0
  6
Continuous
 62
     7
370
    15
100
AcDbCircle
 10
22.3222026646
 20
32.0350562229
 30
0.0
 40
0.0787401574803113
100
AcDbArc
 50
0.0
 51
90.0
  0
LINE
  5
F4
330
1F
100
AcDbEntity
  8
0
  6
Continuous
 62
     7
370
    15
100
AcDbLine
 10
21.8103917337
 20
32.1137962338
 30
0.0
 11
22.3222027144
 21
32.1137962338
 31
0.0
  0
ARC
  5
F5
330
1F
100
AcDbEntity
  8
0
  6
Continuous
 62
     7
370
    15
100
AcDbCircle
 10
15.90487983
 20
38.9248200024
 30
0.0
 40
0.0787401574803184
100
AcDbArc
 50
90.0
 51
180.0
  0
LINE
  5
F6
330
1F
100
AcDbEntity
  8
0
  6
Continuous
 62
     7
370
    15
100
AcDbLine
 10
15.8261401233
 20
38.4130089848
 30
0.0
 11
15.8261401233
 21
38.9248198723
 31
0.0
  0
ARC
  5
F7
330
1F
100
AcDbEntity
  8
0
  6
Continuous
 62
     7
370
    15
100
AcDbCircle
 10
15.90487983
 20
38.4130089788
 30
0.0
 40
0.0787401574803184
100
AcDbArc
 50
180.0
 51
270.0
  0
LINE
  5
F8
330
1F
100
AcDbEntity
  8
0
  6
Continuous
 62
     7
370
    15
100
AcDbLine
 10
16.4166910139
 20
38.3342689611
 30
0.0
 11
15.9048800332
 21
38.3342689611
 31
0.0
  0
ARC
  5
F9
330
1F
100
AcDbEntity
  8
0
  6
Continuous
 62
     7
370
    15
100
AcDbCircle
 10
16.4166908536
 20
38.4130089788
 30
0.0
 40
0.0787401574803184
100
AcDbArc
 50
270.0
 51
0.0
  0
LINE
  5
FA
330
1F
100
AcDbEntity
  8
0
  6
Continuous
 62
     7
370
    15
100
AcDbLine
 10
16.4954308625
 20
38.9248198723
 30
0.0
 11
16.4954308625
 21
38.4130089848
 31
0.0
  0
ARC
  5
FB
330
1F
100
AcDbEntity
  8
0
  6
Continuous
 62
     7
370
    15
100
AcDbCircle
 10
16.4166908536
 20
38.9248200024
 30
0.0
 40
0.0787401574803184
100
AcDbArc
 50
0.0
 51
90.0
  0
LINE
  5
FC
330
1F
100
AcDbEntity
  8
0
  6
Continuous
 62
     7
370
    15
100
AcDbLine
 10
15.9048800332
 20
39.0035601894
 30
0.0
 11
16.4166910139
 21
39.0035601894
 31
0.0
  0
ARC
  5
FD
330
1F
100
AcDbEntity
  8
0
  6
Continuous
 62
     7
370
    15
100
AcDbCircle
 10
15.90487983
 20
37.9405680339
 30
0.0
 40
0.0787401574803148
100
AcDbArc
 50
90.0
 51
180.0
  0
LINE
  5
FE
330
1F
100
AcDbEntity
  8
0
  6
Continuous
 62
     7
370
    15
100
AcDbLine
 10
15.8261401233
 20
37.428757075
 30
0.0
 11
15.8261401233
 21
37.9405679625
 31
0.0
  0
ARC
  5
FF
330
1F
100
AcDbEntity
  8
0
  6
Continuous
 62
     7
370
    15
100
AcDbCircle
 10
15.90487983
 20
37.4287570103
 30
0.0
 40
0.0787401574803184
100
AcDbArc
 50
180.0
 51
270.0
  0
LINE
  5
100
330
1F
100
AcDbEntity
  8
0
  6
Continuous
 62
     7
370
    15
100
AcDbLine
 10
16.4166910139
 20
37.3500169046
 30
0.0
 11
15.9048800332
 21
37.3500169046
 31
0.0
  0
ARC
  5
101
330
1F
100
AcDbEntity
  8
0
  6
Continuous
 62
     7
370
    15
100
AcDbCircle
 10
16.4166908536
 20
37.4287570103
 30
0.0
 40
0.0787401574803184
100
AcDbArc
 50
270.0
 51
0.0
  0
LINE
  5
102
330
1F
100
AcDbEntity
  8
0
  6
Continuous
 62
     7
370
    15
100
AcDbLine
 10
16.4954308625
 20
37.9405679625
 30
0.0
 11
16.4954308625
 21
37.428757075
 31
0.0
  0
ARC
  5
103
330
1F
100
AcDbEntity
  8
0
  6
Continuous
 62
     7
370
    15
100
AcDbCircle
 10
16.4166908536
 20
37.9405680339
 30
0.0
 40
0.0787401574803184
100
AcDbArc
 50
0.0
 51
90.0
  0
LINE
  5
104
330
1F
100
AcDbEntity
  8
0
  6
Continuous
 62
     7
370
    15
100
AcDbLine
 10
15.9048800332
 20
38.0193082795
 30
0.0
 11
16.4166910139
 21
38.0193082795
 31
0.0
  0
ARC
  5
105
330
1F
100
AcDbEntity
  8
0
  6
Continuous
 62
     7
370
    15
100
AcDbCircle
 10
15.90487983
 20
36.9563160654
 30
0.0
 40
0.0787401574803148
100
AcDbArc
 50
90.0
 51
180.0
  0
LINE
  5
106
330
1F
100
AcDbEntity
  8
0
  6
Continuous
 62
     7
370
    15
100
AcDbLine
 10
15.8261401233
 20
36.4445050185
 30
0.0
 11
15.8261401233
 21
36.9563160526
 31
0.0
  0
ARC
  5
107
330
1F
100
AcDbEntity
  8
0
  6
Continuous
 62
     7
370
    15
100
AcDbCircle
 10
15.90487983
 20
36.4445050418
 30
0.0
 40
0.0787401574803148
100
AcDbArc
 50
180.0
 51
270.0
  0
LINE
  5
108
330
1F
100
AcDbEntity
  8
0
  6
Continuous
 62
     7
370
    15
100
AcDbLine
 10
16.4166910139
 20
36.3657648481
 30
0.0
 11
15.9048800332
 21
36.3657648481
 31
0.0
  0
ARC
  5
109
330
1F
100
AcDbEntity
  8
0
  6
Continuous
 62
     7
370
    15
100
AcDbCircle
 10
16.4166908536
 20
36.4445050418
 30
0.0
 40
0.0787401574803184
100
AcDbArc
 50
270.0
 51
0.0
  0
LINE
  5
10A
330
1F
100
AcDbEntity
  8
0
  6
Continuous
 62
     7
370
    15
100
AcDbLine
 10
16.4954308625
 20
36.9563160526
 30
0.0
 11
16.4954308625
 21
36.4445050185
 31
0.0
  0
ARC
  5
10B
330
1F
100
AcDbEntity
  8
0
  6
Continuous
 62
     7
370
    15
100
AcDbCircle
 10
16.4166908536
 20
36.9563160654
 30
0.0
 40
0.0787401574803148
100
AcDbArc
 50
0.0
 51
90.0
  0
LINE
  5
10C
330
1F
100
AcDbEntity
  8
0
  6
Continuous
 62
     7
370
    15
100
AcDbLine
 10
15.9048800332
 20
37.035056223
 30
0.0
 11
16.4166910139
 21
37.035056223
 31
0.0
  0
ARC
  5
10D
330
1F
100
AcDbEntity
  8
0
  6
Continuous
 62
     7
370
    15
100
AcDbCircle
 10
15.90487983
 20
35.9720640969
 30
0.0
 40
0.0787401574803184
100
AcDbArc
 50
90.0
 51
180.0
  0
LINE
  5
10E
330
1F
100
AcDbEntity
  8
0
  6
Continuous
 62
     7
370
    15
100
AcDbLine
 10
15.8261401233
 20
35.460253072
 30
0.0
 11
15.8261401233
 21
35.9720640695
 31
0.0
  0
ARC
  5
10F
330
1F
100
AcDbEntity
  8
0
  6
Continuous
 62
     7
370
    15
100
AcDbCircle
 10
15.90487983
 20
35.4602530733
 30
0.0
 40
0.0787401574803184
100
AcDbArc
 50
180.0
 51
270.0
  0
LINE
  5
110
330
1F
100
AcDbEntity
  8
0
  6
Continuous
 62
     7
370
    15
100
AcDbLine
 10
16.4166910139
 20
35.3815129199
 30
0.0
 11
15.9048800332
 21
35.3815129199
 31
0.0
  0
ARC
  5
111
330
1F
100
AcDbEntity
  8
0
  6
Continuous
 62
     7
370
    15
100
AcDbCircle
 10
16.4166908536
 20
35.4602530733
 30
0.0
 40
0.0787401574803184
100
AcDbArc
 50
270.0
 51
0.0
  0
LINE
  5
112
330
1F
100
AcDbEntity
  8
0
  6
Continuous
 62
     7
370
    15
100
AcDbLine
 10
16.4954308625
 20
35.9720640695
 30
0.0
 11
16.4954308625
 21
35.460253072
 31
0.0
  0
ARC
  5
113
330
1F
100
AcDbEntity
  8
0
  6
Continuous
 62
     7
370
    15
100
AcDbCircle
 10
16.4166908536
 20
35.9720640969
 30
0.0
 40
0.0787401574803184
100
AcDbArc
 50
0.0
 51
90.0
  0
LINE
  5
114
330
1F
100
AcDbEntity
  8
0
  6
Continuous
 62
     7
370
    15
100
AcDbLine
 10
15.9048800332
 20
36.0508042399
 30
0.0
 11
16.4166910139
 21
36.0508042399
 31
0.0
  0
ARC
  5
115
330
1F
100
AcDbEntity
  8
0
  6
Continuous
 62
     7
370
    15
100
AcDbCircle
 10
15.90487983
 20
34.9878121284
 30
0.0
 40
0.0787401574803184
100
AcDbArc
 50
90.0
 51
180.0
  0
LINE
  5
116
330
1F
100
AcDbEntity
  8
0
  6
Continuous
 62
     7
370
    15
100
AcDbLine
 10
15.8261401233
 20
34.4760011255
 30
0.0
 11
15.8261401233
 21
34.987812123
 31
0.0
  0
ARC
  5
117
330
1F
100
AcDbEntity
  8
0
  6
Continuous
 62
     7
370
    15
100
AcDbCircle
 10
15.90487983
 20
34.4760011048
 30
0.0
 40
0.0787401574803148
100
AcDbArc
 50
180.0
 51
270.0
  0
LINE
  5
118
330
1F
100
AcDbEntity
  8
0
  6
Continuous
 62
     7
370
    15
100
AcDbLine
 10
16.4166910139
 20
34.3972609551
 30
0.0
 11
15.9048800332
 21
34.3972609551
 31
0.0
  0
ARC
  5
119
330
1F
100
AcDbEntity
  8
0
  6
Continuous
 62
     7
370
    15
100
AcDbCircle
 10
16.4166908536
 20
34.4760011048
 30
0.0
 40
0.0787401574803184
100
AcDbArc
 50
270.0
 51
0.0
  0
LINE
  5
11A
330
1F
100
AcDbEntity
  8
0
  6
Continuous
 62
     7
370
    15
100
AcDbLine
 10
16.4954308625
 20
34.987812123
 30
0.0
 11
16.4954308625
 21
34.4760011255
 31
0.0
  0
ARC
  5
11B
330
1F
100
AcDbEntity
  8
0
  6
Continuous
 62
     7
370
    15
100
AcDbCircle
 10
16.4166908536
 20
34.9878121284
 30
0.0
 40
0.0787401574803184
100
AcDbArc
 50
0.0
 51
90.0
  0
LINE
  5
11C
330
1F
100
AcDbEntity
  8
0
  6
Continuous
 62
     7
370
    15
100
AcDbLine
 10
15.9048800332
 20
35.0665522934
 30
0.0
 11
16.4166910139
 21
35.0665522934
 31
0.0
  0
ARC
  5
11D
330
1F
100
AcDbEntity
  8
0
  6
Continuous
 62
     7
370
    15
100
AcDbCircle
 10
15.90487983
 20
34.0035601599
 30
0.0
 40
0.0787401574803184
100
AcDbArc
 50
90.0
 51
180.0
  0
LINE
  5
11E
330
1F
100
AcDbEntity
  8
0
  6
Continuous
 62
     7
370
    15
100
AcDbLine
 10
15.8261401233
 20
33.4917491423
 30
0.0
 11
15.8261401233
 21
34.0035601765
 31
0.0
  0
ARC
  5
11F
330
1F
100
AcDbEntity
  8
0
  6
Continuous
 62
     7
370
    15
100
AcDbCircle
 10
15.90487983
 20
33.4917491363
 30
0.0
 40
0.0787401574803148
100
AcDbArc
 50
180.0
 51
270.0
  0
LINE
  5
120
330
1F
100
AcDbEntity
  8
0
  6
Continuous
 62
     7
370
    15
100
AcDbLine
 10
16.4166910139
 20
33.4130089719
 30
0.0
 11
15.9048800332
 21
33.4130089719
 31
0.0
  0
ARC
  5
121
330
1F
100
AcDbEntity
  8
0
  6
Continuous
 62
     7
370
    15
100
AcDbCircle
 10
16.4166908536
 20
33.4917491363
 30
0.0
 40
0.0787401574803184
100
AcDbArc
 50
270.0
 51
0.0
  0
LINE
  5
122
330
1F
100
AcDbEntity
  8
0
  6
Continuous
 62
     7
370
    15
100
AcDbLine
 10
16.4954308625
 20
34.0035601765
 30
0.0
 11
16.4954308625
 21
33.4917491423
 31
0.0
  0
ARC
  5
123
330
1F
100
AcDbEntity
  8
0
  6
Continuous
 62
     7
370
    15
100
AcDbCircle
 10
16.4166908536
 20
34.0035601599
 30
0.0
 40
0.0787401574803184
100
AcDbArc
 50
0.0
 51
90.0
  0
LINE
  5
124
330
1F
100
AcDbEntity
  8
0
  6
Continuous
 62
     7
370
    15
100
AcDbLine
 10
15.9048800332
 20
34.0823003469
 30
0.0
 11
16.4166910139
 21
34.0823003469
 31
0.0
  0
ARC
  5
125
330
1F
100
AcDbEntity
  8
0
  6
Continuous
 62
     7
370
    15
100
AcDbCircle
 10
15.90487983
 20
33.0193081914
 30
0.0
 40
0.0787401574803148
100
AcDbArc
 50
90.0
 51
180.0
  0
LINE
  5
126
330
1F
100
AcDbEntity
  8
0
  6
Continuous
 62
     7
370
    15
100
AcDbLine
 10
15.8261401233
 20
32.5074972324
 30
0.0
 11
15.8261401233
 21
33.01930812
 31
0.0
  0
ARC
  5
127
330
1F
100
AcDbEntity
  8
0
  6
Continuous
 62
     7
370
    15
100
AcDbCircle
 10
15.90487983
 20
32.5074971678
 30
0.0
 40
0.0787401574803148
100
AcDbArc
 50
180.0
 51
270.0
  0
LINE
  5
128
330
1F
100
AcDbEntity
  8
0
  6
Continuous
 62
     7
370
    15
100
AcDbLine
 10
16.4166910139
 20
32.4287569154
 30
0.0
 11
15.9048800332
 21
32.4287569154
 31
0.0
  0
ARC
  5
129
330
1F
100
AcDbEntity
  8
0
  6
Continuous
 62
     7
370
    15
100
AcDbCircle
 10
16.4166908536
 20
32.5074971678
 30
0.0
 40
0.0787401574803184
100
AcDbArc
 50
270.0
 51
0.0
  0
LINE
  5
12A
330
1F
100
AcDbEntity
  8
0
  6
Continuous
 62
     7
370
    15
100
AcDbLine
 10
16.4954308625
 20
33.01930812
 30
0.0
 11
16.4954308625
 21
32.5074972324
 31
0.0
  0
ARC
  5
12B
330
1F
100
AcDbEntity
  8
0
  6
Continuous
 62
     7
370
    15
100
AcDbCircle
 10
16.4166908536
 20
33.0193081914
 30
0.0
 40
0.0787401574803148
100
AcDbArc
 50
0.0
 51
90.0
  0
LINE
  5
12C
330
1F
100
AcDbEntity
  8
0
  6
Continuous
 62
     7
370
    15
100
AcDbLine
 10
15.9048800332
 20
33.0980482903
 30
0.0
 11
16.4166910139
 21
33.0980482903
 31
0.0
  0
ARC
  5
12D
330
1F
100
AcDbEntity
  8
0
  6
Continuous
 62
     7
370
    15
100
AcDbCircle
 10
16.8891317985
 20
38.9248200024
 30
0.0
 40
0.0787401574803184
100
AcDbArc
 50
90.0
 51
180.0
  0
LINE
  5
12E
330
1F
100
AcDbEntity
  8
0
  6
Continuous
 62
     7
370
    15
100
AcDbLine
 10
16.8103916076
 20
38.4130089848
 30
0.0
 11
16.8103916076
 21
38.9248198723
 31
0.0
  0
ARC
  5
12F
330
1F
100
AcDbEntity
  8
0
  6
Continuous
 62
     7
370
    15
100
AcDbCircle
 10
16.8891317985
 20
38.4130089788
 30
0.0
 40
0.0787401574803184
100
AcDbArc
 50
180.0
 51
270.0
  0
LINE
  5
130
330
1F
100
AcDbEntity
  8
0
  6
Continuous
 62
     7
370
    15
100
AcDbLine
 10
17.4009430203
 20
38.3342689611
 30
0.0
 11
16.8891320396
 21
38.3342689611
 31
0.0
  0
ARC
  5
131
330
1F
100
AcDbEntity
  8
0
  6
Continuous
 62
     7
370
    15
100
AcDbCircle
 10
17.4009428221
 20
38.4130089788
 30
0.0
 40
0.0787401574803148
100
AcDbArc
 50
270.0
 51
0.0
  0
LINE
  5
132
330
1F
100
AcDbEntity
  8
0
  6
Continuous
 62
     7
370
    15
100
AcDbLine
 10
17.4796829302
 20
38.9248198723
 30
0.0
 11
17.4796829302
 21
38.4130089848
 31
0.0
  0
ARC
  5
133
330
1F
100
AcDbEntity
  8
0
  6
Continuous
 62
     7
370
    15
100
AcDbCircle
 10
17.4009428221
 20
38.9248200024
 30
0.0
 40
0.0787401574803184
100
AcDbArc
 50
0.0
 51
90.0
  0
LINE
  5
134
330
1F
100
AcDbEntity
  8
0
  6
Continuous
 62
     7
370
    15
100
AcDbLine
 10
16.8891320396
 20
39.0035601894
 30
0.0
 11
17.4009430203
 21
39.0035601894
 31
0.0
  0
ARC
  5
135
330
1F
100
AcDbEntity
  8
0
  6
Continuous
 62
     7
370
    15
100
AcDbCircle
 10
16.8891317985
 20
37.9405680339
 30
0.0
 40
0.0787401574803184
100
AcDbArc
 50
90.0
 51
180.0
  0
LINE
  5
136
330
1F
100
AcDbEntity
  8
0
  6
Continuous
 62
     7
370
    15
100
AcDbLine
 10
16.8103916076
 20
37.428757075
 30
0.0
 11
16.8103916076
 21
37.9405679625
 31
0.0
  0
ARC
  5
137
330
1F
100
AcDbEntity
  8
0
  6
Continuous
 62
     7
370
    15
100
AcDbCircle
 10
16.8891317985
 20
37.4287570103
 30
0.0
 40
0.0787401574803184
100
AcDbArc
 50
180.0
 51
270.0
  0
LINE
  5
138
330
1F
100
AcDbEntity
  8
0
  6
Continuous
 62
     7
370
    15
100
AcDbLine
 10
17.4009430203
 20
37.3500169046
 30
0.0
 11
16.8891320396
 21
37.3500169046
 31
0.0
  0
ARC
  5
139
330
1F
100
AcDbEntity
  8
0
  6
Continuous
 62
     7
370
    15
100
AcDbCircle
 10
17.4009428221
 20
37.4287570103
 30
0.0
 40
0.0787401574803184
100
AcDbArc
 50
270.0
 51
0.0
  0
LINE
  5
13A
330
1F
100
AcDbEntity
  8
0
  6
Continuous
 62
     7
370
    15
100
AcDbLine
 10
17.4796829302
 20
37.9405679625
 30
0.0
 11
17.4796829302
 21
37.428757075
 31
0.0
  0
ARC
  5
13B
330
1F
100
AcDbEntity
  8
0
  6
Continuous
 62
     7
370
    15
100
AcDbCircle
 10
17.4009428221
 20
37.9405680339
 30
0.0
 40
0.0787401574803184
100
AcDbArc
 50
0.0
 51
90.0
  0
LINE
  5
13C
330
1F
100
AcDbEntity
  8
0
  6
Continuous
 62
     7
370
    15
100
AcDbLine
 10
16.8891320396
 20
38.0193082795
 30
0.0
 11
17.4009430203
 21
38.0193082795
 31
0.0
  0
ARC
  5
13D
330
1F
100
AcDbEntity
  8
0
  6
Continuous
 62
     7
370
    15
100
AcDbCircle
 10
16.8891317985
 20
36.9563160654
 30
0.0
 40
0.0787401574803184
100
AcDbArc
 50
90.0
 51
180.0
  0
LINE
  5
13E
330
1F
100
AcDbEntity
  8
0
  6
Continuous
 62
     7
370
    15
100
AcDbLine
 10
16.8103916076
 20
36.4445050185
 30
0.0
 11
16.8103916076
 21
36.9563160526
 31
0.0
  0
ARC
  5
13F
330
1F
100
AcDbEntity
  8
0
  6
Continuous
 62
     7
370
    15
100
AcDbCircle
 10
16.8891317985
 20
36.4445050418
 30
0.0
 40
0.0787401574803184
100
AcDbArc
 50
180.0
 51
270.0
  0
LINE
  5
140
330
1F
100
AcDbEntity
  8
0
  6
Continuous
 62
     7
370
    15
100
AcDbLine
 10
17.4009430203
 20
36.3657648481
 30
0.0
 11
16.8891320396
 21
36.3657648481
 31
0.0
  0
ARC
  5
141
330
1F
100
AcDbEntity
  8
0
  6
Continuous
 62
     7
370
    15
100
AcDbCircle
 10
17.4009428221
 20
36.4445050418
 30
0.0
 40
0.0787401574803148
100
AcDbArc
 50
270.0
 51
0.0
  0
LINE
  5
142
330
1F
100
AcDbEntity
  8
0
  6
Continuous
 62
     7
370
    15
100
AcDbLine
 10
17.4796829302
 20
36.9563160526
 30
0.0
 11
17.4796829302
 21
36.4445050185
 31
0.0
  0
ARC
  5
143
330
1F
100
AcDbEntity
  8
0
  6
Continuous
 62
     7
370
    15
100
AcDbCircle
 10
17.4009428221
 20
36.9563160654
 30
0.0
 40
0.0787401574803184
100
AcDbArc
 50
0.0
 51
90.0
  0
LINE
  5
144
330
1F
100
AcDbEntity
  8
0
  6
Continuous
 62
     7
370
    15
100
AcDbLine
 10
16.8891320396
 20
37.035056223
 30
0.0
 11
17.4009430203
 21
37.035056223
 31
0.0
  0
ARC
  5
145
330
1F
100
AcDbEntity
  8
0
  6
Continuous
 62
     7
370
    15
100
AcDbCircle
 10
16.8891317985
 20
35.9720640969
 30
0.0
 40
0.0787401574803184
100
AcDbArc
 50
90.0
 51
180.0
  0
LINE
  5
146
330
1F
100
AcDbEntity
  8
0
  6
Continuous
 62
     7
370
    15
100
AcDbLine
 10
16.8103916076
 20
35.460253072
 30
0.0
 11
16.8103916076
 21
35.9720640695
 31
0.0
  0
ARC
  5
147
330
1F
100
AcDbEntity
  8
0
  6
Continuous
 62
     7
370
    15
100
AcDbCircle
 10
16.8891317985
 20
35.4602530733
 30
0.0
 40
0.0787401574803148
100
AcDbArc
 50
180.0
 51
270.0
  0
LINE
  5
148
330
1F
100
AcDbEntity
  8
0
  6
Continuous
 62
     7
370
    15
100
AcDbLine
 10
17.4009430203
 20
35.3815129199
 30
0.0
 11
16.8891320396
 21
35.3815129199
 31
0.0
  0
ARC
  5
149
330
1F
100
AcDbEntity
  8
0
  6
Continuous
 62
     7
370
    15
100
AcDbCircle
 10
17.4009428221
 20
35.4602530733
 30
0.0
 40
0.0787401574803148
100
AcDbArc
 50
270.0
 51
0.0
  0
LINE
  5
14A
330
1F
100
AcDbEntity
  8
0
  6
Continuous
 62
     7
370
    15
100
AcDbLine
 10
17.4796829302
 20
35.9720640695
 30
0.0
 11
17.4796829302
 21
35.460253072
 31
0.0
  0
ARC
  5
14B
330
1F
100
AcDbEntity
  8
0
  6
Continuous
 62
     7
370
    15
100
AcDbCircle
 10
17.4009428221
 20
35.9720640969
 30
0.0
 40
0.0787401574803184
100
AcDbArc
 50
0.0
 51
90.0
  0
LINE
  5
14C
330
1F
100
AcDbEntity
  8
0
  6
Continuous
 62
     7
370
    15
100
AcDbLine
 10
16.8891320396
 20
36.0508042399
 30
0.0
 11
17.4009430203
 21
36.0508042399
 31
0.0
  0
ARC
  5
14D
330
1F
100
AcDbEntity
  8
0
  6
Continuous
 62
     7
370
    15
100
AcDbCircle
 10
16.8891317985
 20
34.9878121284
 30
0.0
 40
0.0787401574803148
100
AcDbArc
 50
90.0
 51
180.0
  0
LINE
  5
14E
330
1F
100
AcDbEntity
  8
0
  6
Continuous
 62
     7
370
    15
100
AcDbLine
 10
16.8103916076
 20
34.4760011255
 30
0.0
 11
16.8103916076
 21
34.987812123
 31
0.0
  0
ARC
  5
14F
330
1F
100
AcDbEntity
  8
0
  6
Continuous
 62
     7
370
    15
100
AcDbCircle
 10
16.8891317985
 20
34.4760011048
 30
0.0
 40
0.0787401574803148
100
AcDbArc
 50
180.0
 51
270.0
  0
LINE
  5
150
330
1F
100
AcDbEntity
  8
0
  6
Continuous
 62
     7
370
    15
100
AcDbLine
 10
17.4009430203
 20
34.3972609551
 30
0.0
 11
16.8891320396
 21
34.3972609551
 31
0.0
  0
ARC
  5
151
330
1F
100
AcDbEntity
  8
0
  6
Continuous
 62
     7
370
    15
100
AcDbCircle
 10
17.4009428221
 20
34.4760011048
 30
0.0
 40
0.0787401574803148
100
AcDbArc
 50
270.0
 51
0.0
  0
LINE
  5
152
330
1F
100
AcDbEntity
  8
0
  6
Continuous
 62
     7
370
    15
100
AcDbLine
 10
17.4796829302
 20
34.987812123
 30
0.0
 11
17.4796829302
 21
34.4760011255
 31
0.0
  0
ARC
  5
153
330
1F
100
AcDbEntity
  8
0
  6
Continuous
 62
     7
370
    15
100
AcDbCircle
 10
17.4009428221
 20
34.9878121284
 30
0.0
 40
0.0787401574803148
100
AcDbArc
 50
0.0
 51
90.0
  0
LINE
  5
154
330
1F
100
AcDbEntity
  8
0
  6
Continuous
 62
     7
370
    15
100
AcDbLine
 10
16.8891320396
 20
35.0665522934
 30
0.0
 11
17.4009430203
 21
35.0665522934
 31
0.0
  0
ARC
  5
155
330
1F
100
AcDbEntity
  8
0
  6
Continuous
 62
     7
370
    15
100
AcDbCircle
 10
16.8891317985
 20
34.0035601599
 30
0.0
 40
0.0787401574803184
100
AcDbArc
 50
90.0
 51
180.0
  0
LINE
  5
156
330
1F
100
AcDbEntity
  8
0
  6
Continuous
 62
     7
370
    15
100
AcDbLine
 10
16.8103916076
 20
33.4917491423
 30
0.0
 11
16.8103916076
 21
34.0035601765
 31
0.0
  0
ARC
  5
157
330
1F
100
AcDbEntity
  8
0
  6
Continuous
 62
     7
370
    15
100
AcDbCircle
 10
16.8891317985
 20
33.4917491363
 30
0.0
 40
0.0787401574803148
100
AcDbArc
 50
180.0
 51
270.0
  0
LINE
  5
158
330
1F
100
AcDbEntity
  8
0
  6
Continuous
 62
     7
370
    15
100
AcDbLine
 10
17.4009430203
 20
33.4130089719
 30
0.0
 11
16.8891320396
 21
33.4130089719
 31
0.0
  0
ARC
  5
159
330
1F
100
AcDbEntity
  8
0
  6
Continuous
 62
     7
370
    15
100
AcDbCircle
 10
17.4009428221
 20
33.4917491363
 30
0.0
 40
0.0787401574803148
100
AcDbArc
 50
270.0
 51
0.0
  0
LINE
  5
15A
330
1F
100
AcDbEntity
  8
0
  6
Continuous
 62
     7
370
    15
100
AcDbLine
 10
17.4796829302
 20
34.0035601765
 30
0.0
 11
17.4796829302
 21
33.4917491423
 31
0.0
  0
ARC
  5
15B
330
1F
100
AcDbEntity
  8
0
  6
Continuous
 62
     7
370
    15
100
AcDbCircle
 10
17.4009428221
 20
34.0035601599
 30
0.0
 40
0.0787401574803148
100
AcDbArc
 50
0.0
 51
90.0
  0
LINE
  5
15C
330
1F
100
AcDbEntity
  8
0
  6
Continuous
 62
     7
370
    15
100
AcDbLine
 10
16.8891320396
 20
34.0823003469
 30
0.0
 11
17.4009430203
 21
34.0823003469
 31
0.0
  0
ARC
  5
15D
330
1F
100
AcDbEntity
  8
0
  6
Continuous
 62
     7
370
    15
100
AcDbCircle
 10
16.8891317985
 20
33.0193081914
 30
0.0
 40
0.0787401574803184
100
AcDbArc
 50
90.0
 51
180.0
  0
LINE
  5
15E
330
1F
100
AcDbEntity
  8
0
  6
Continuous
 62
     7
370
    15
100
AcDbLine
 10
16.8103916076
 20
32.5074972324
 30
0.0
 11
16.8103916076
 21
33.01930812
 31
0.0
  0
ARC
  5
15F
330
1F
100
AcDbEntity
  8
0
  6
Continuous
 62
     7
370
    15
100
AcDbCircle
 10
16.8891317985
 20
32.5074971678
 30
0.0
 40
0.0787401574803184
100
AcDbArc
 50
180.0
 51
270.0
  0
LINE
  5
160
330
1F
100
AcDbEntity
  8
0
  6
Continuous
 62
     7
370
    15
100
AcDbLine
 10
17.4009430203
 20
32.4287569154
 30
0.0
 11
16.8891320396
 21
32.4287569154
 31
0.0
  0
ARC
  5
161
330
1F
100
AcDbEntity
  8
0
  6
Continuous
 62
     7
370
    15
100
AcDbCircle
 10
17.4009428221
 20
32.5074971678
 30
0.0
 40
0.0787401574803184
100
AcDbArc
 50
270.0
 51
0.0
  0
LINE
  5
162
330
1F
100
AcDbEntity
  8
0
  6
Continuous
 62
     7
370
    15
100
AcDbLine
 10
17.4796829302
 20
33.01930812
 30
0.0
 11
17.4796829302
 21
32.5074972324
 31
0.0
  0
ARC
  5
163
330
1F
100
AcDbEntity
  8
0
  6
Continuous
 62
     7
370
    15
100
AcDbCircle
 10
17.4009428221
 20
33.0193081914
 30
0.0
 40
0.0787401574803184
100
AcDbArc
 50
0.0
 51
90.0
  0
LINE
  5
164
330
1F
100
AcDbEntity
  8
0
  6
Continuous
 62
     7
370
    15
100
AcDbLine
 10
16.8891320396
 20
33.0980482903
 30
0.0
 11
17.4009430203
 21
33.0980482903
 31
0.0
  0
ARC
  5
165
330
1F
100
AcDbEntity
  8
0
  6
Continuous
 62
     7
370
    15
100
AcDbCircle
 10
17.873383767
 20
38.9248200024
 30
0.0
 40
0.0787401574803184
100
AcDbArc
 50
90.0
 51
180.0
  0
LINE
  5
166
330
1F
100
AcDbEntity
  8
0
  6
Continuous
 62
     7
370
    15
100
AcDbLine
 10
17.7946436141
 20
38.4130089848
 30
0.0
 11
17.7946436141
 21
38.9248198723
 31
0.0
  0
ARC
  5
167
330
1F
100
AcDbEntity
  8
0
  6
Continuous
 62
     7
370
    15
100
AcDbCircle
 10
17.873383767
 20
38.4130089788
 30
0.0
 40
0.0787401574803184
100
AcDbArc
 50
180.0
 51
270.0
  0
LINE
  5
168
330
1F
100
AcDbEntity
  8
0
  6
Continuous
 62
     7
370
    15
100
AcDbLine
 10
18.3851945046
 20
38.3342689611
 30
0.0
 11
17.8733835239
 21
38.3342689611
 31
0.0
  0
ARC
  5
169
330
1F
100
AcDbEntity
  8
0
  6
Continuous
 62
     7
370
    15
100
AcDbCircle
 10
18.3851947906
 20
38.4130089788
 30
0.0
 40
0.0787401574803184
100
AcDbArc
 50
270.0
 51
0.0
  0
LINE
  5
16A
330
1F
100
AcDbEntity
  8
0
  6
Continuous
 62
     7
370
    15
100
AcDbLine
 10
18.463934998
 20
38.9248198723
 30
0.0
 11
18.463934998
 21
38.4130089848
 31
0.0
  0
ARC
  5
16B
330
1F
100
AcDbEntity
  8
0
  6
Continuous
 62
     7
370
    15
100
AcDbCircle
 10
18.3851947906
 20
38.9248200024
 30
0.0
 40
0.0787401574803184
100
AcDbArc
 50
0.0
 51
90.0
  0
LINE
  5
16C
330
1F
100
AcDbEntity
  8
0
  6
Continuous
 62
     7
370
    15
100
AcDbLine
 10
17.8733835239
 20
39.0035601894
 30
0.0
 11
18.3851945046
 21
39.0035601894
 31
0.0
  0
ARC
  5
16D
330
1F
100
AcDbEntity
  8
0
  6
Continuous
 62
     7
370
    15
100
AcDbCircle
 10
17.873383767
 20
37.9405680339
 30
0.0
 40
0.0787401574803184
100
AcDbArc
 50
90.0
 51
180.0
  0
LINE
  5
16E
330
1F
100
AcDbEntity
  8
0
  6
Continuous
 62
     7
370
    15
100
AcDbLine
 10
17.7946436141
 20
37.428757075
 30
0.0
 11
17.7946436141
 21
37.9405679625
 31
0.0
  0
ARC
  5
16F
330
1F
100
AcDbEntity
  8
0
  6
Continuous
 62
     7
370
    15
100
AcDbCircle
 10
17.873383767
 20
37.4287570103
 30
0.0
 40
0.0787401574803184
100
AcDbArc
 50
180.0
 51
270.0
  0
LINE
  5
170
330
1F
100
AcDbEntity
  8
0
  6
Continuous
 62
     7
370
    15
100
AcDbLine
 10
18.3851945046
 20
37.3500169046
 30
0.0
 11
17.8733835239
 21
37.3500169046
 31
0.0
  0
ARC
  5
171
330
1F
100
AcDbEntity
  8
0
  6
Continuous
 62
     7
370
    15
100
AcDbCircle
 10
18.3851947906
 20
37.4287570103
 30
0.0
 40
0.0787401574803113
100
AcDbArc
 50
270.0
 51
0.0
  0
LINE
  5
172
330
1F
100
AcDbEntity
  8
0
  6
Continuous
 62
     7
370
    15
100
AcDbLine
 10
18.463934998
 20
37.9405679625
 30
0.0
 11
18.463934998
 21
37.428757075
 31
0.0
  0
ARC
  5
173
330
1F
100
AcDbEntity
  8
0
  6
Continuous
 62
     7
370
    15
100
AcDbCircle
 10
18.3851947906
 20
37.9405680339
 30
0.0
 40
0.0787401574803184
100
AcDbArc
 50
0.0
 51
90.0
  0
LINE
  5
174
330
1F
100
AcDbEntity
  8
0
  6
Continuous
 62
     7
370
    15
100
AcDbLine
 10
17.8733835239
 20
38.0193082795
 30
0.0
 11
18.3851945046
 21
38.0193082795
 31
0.0
  0
ARC
  5
175
330
1F
100
AcDbEntity
  8
0
  6
Continuous
 62
     7
370
    15
100
AcDbCircle
 10
17.873383767
 20
36.9563160654
 30
0.0
 40
0.0787401574803184
100
AcDbArc
 50
90.0
 51
180.0
  0
LINE
  5
176
330
1F
100
AcDbEntity
  8
0
  6
Continuous
 62
     7
370
    15
100
AcDbLine
 10
17.7946436141
 20
36.4445050185
 30
0.0
 11
17.7946436141
 21
36.9563160526
 31
0.0
  0
ARC
  5
177
330
1F
100
AcDbEntity
  8
0
  6
Continuous
 62
     7
370
    15
100
AcDbCircle
 10
17.873383767
 20
36.4445050418
 30
0.0
 40
0.0787401574803184
100
AcDbArc
 50
180.0
 51
270.0
  0
LINE
  5
178
330
1F
100
AcDbEntity
  8
0
  6
Continuous
 62
     7
370
    15
100
AcDbLine
 10
18.3851945046
 20
36.3657648481
 30
0.0
 11
17.8733835239
 21
36.3657648481
 31
0.0
  0
ARC
  5
179
330
1F
100
AcDbEntity
  8
0
  6
Continuous
 62
     7
370
    15
100
AcDbCircle
 10
18.3851947906
 20
36.4445050418
 30
0.0
 40
0.0787401574803113
100
AcDbArc
 50
270.0
 51
0.0
  0
LINE
  5
17A
330
1F
100
AcDbEntity
  8
0
  6
Continuous
 62
     7
370
    15
100
AcDbLine
 10
18.463934998
 20
36.9563160526
 30
0.0
 11
18.463934998
 21
36.4445050185
 31
0.0
  0
ARC
  5
17B
330
1F
100
AcDbEntity
  8
0
  6
Continuous
 62
     7
370
    15
100
AcDbCircle
 10
18.3851947906
 20
36.9563160654
 30
0.0
 40
0.0787401574803113
100
AcDbArc
 50
0.0
 51
90.0
  0
LINE
  5
17C
330
1F
100
AcDbEntity
  8
0
  6
Continuous
 62
     7
370
    15
100
AcDbLine
 10
17.8733835239
 20
37.035056223
 30
0.0
 11
18.3851945046
 21
37.035056223
 31
0.0
  0
ARC
  5
17D
330
1F
100
AcDbEntity
  8
0
  6
Continuous
 62
     7
370
    15
100
AcDbCircle
 10
17.873383767
 20
35.9720640969
 30
0.0
 40
0.0787401574803184
100
AcDbArc
 50
90.0
 51
180.0
  0
LINE
  5
17E
330
1F
100
AcDbEntity
  8
0
  6
Continuous
 62
     7
370
    15
100
AcDbLine
 10
17.7946436141
 20
35.460253072
 30
0.0
 11
17.7946436141
 21
35.9720640695
 31
0.0
  0
ARC
  5
17F
330
1F
100
AcDbEntity
  8
0
  6
Continuous
 62
     7
370
    15
100
AcDbCircle
 10
17.873383767
 20
35.4602530733
 30
0.0
 40
0.0787401574803148
100
AcDbArc
 50
180.0
 51
270.0
  0
LINE
  5
180
330
1F
100
AcDbEntity
  8
0
  6
Continuous
 62
     7
370
    15
100
AcDbLine
 10
18.3851945046
 20
35.3815129199
 30
0.0
 11
17.8733835239
 21
35.3815129199
 31
0.0
  0
ARC
  5
181
330
1F
100
AcDbEntity
  8
0
  6
Continuous
 62
     7
370
    15
100
AcDbCircle
 10
18.3851947906
 20
35.4602530733
 30
0.0
 40
0.0787401574803113
100
AcDbArc
 50
270.0
 51
0.0
  0
LINE
  5
182
330
1F
100
AcDbEntity
  8
0
  6
Continuous
 62
     7
370
    15
100
AcDbLine
 10
18.463934998
 20
35.9720640695
 30
0.0
 11
18.463934998
 21
35.460253072
 31
0.0
  0
ARC
  5
183
330
1F
100
AcDbEntity
  8
0
  6
Continuous
 62
     7
370
    15
100
AcDbCircle
 10
18.3851947906
 20
35.9720640969
 30
0.0
 40
0.0787401574803184
100
AcDbArc
 50
0.0
 51
90.0
  0
LINE
  5
184
330
1F
100
AcDbEntity
  8
0
  6
Continuous
 62
     7
370
    15
100
AcDbLine
 10
17.8733835239
 20
36.0508042399
 30
0.0
 11
18.3851945046
 21
36.0508042399
 31
0.0
  0
ARC
  5
185
330
1F
100
AcDbEntity
  8
0
  6
Continuous
 62
     7
370
    15
100
AcDbCircle
 10
17.873383767
 20
34.9878121284
 30
0.0
 40
0.0787401574803184
100
AcDbArc
 50
90.0
 51
180.0
  0
LINE
  5
186
330
1F
100
AcDbEntity
  8
0
  6
Continuous
 62
     7
370
    15
100
AcDbLine
 10
17.7946436141
 20
34.4760011255
 30
0.0
 11
17.7946436141
 21
34.987812123
 31
0.0
  0
ARC
  5
187
330
1F
100
AcDbEntity
  8
0
  6
Continuous
 62
     7
370
    15
100
AcDbCircle
 10
17.873383767
 20
34.4760011048
 30
0.0
 40
0.0787401574803184
100
AcDbArc
 50
180.0
 51
270.0
  0
LINE
  5
188
330
1F
100
AcDbEntity
  8
0
  6
Continuous
 62
     7
370
    15
100
AcDbLine
 10
18.3851945046
 20
34.3972609551
 30
0.0
 11
17.8733835239
 21
34.3972609551
 31
0.0
  0
ARC
  5
189
330
1F
100
AcDbEntity
  8
0
  6
Continuous
 62
     7
370
    15
100
AcDbCircle
 10
18.3851947906
 20
34.4760011048
 30
0.0
 40
0.0787401574803113
100
AcDbArc
 50
270.0
 51
0.0
  0
LINE
  5
18A
330
1F
100
AcDbEntity
  8
0
  6
Continuous
 62
     7
370
    15
100
AcDbLine
 10
18.463934998
 20
34.987812123
 30
0.0
 11
18.463934998
 21
34.4760011255
 31
0.0
  0
ARC
  5
18B
330
1F
100
AcDbEntity
  8
0
  6
Continuous
 62
     7
370
    15
100
AcDbCircle
 10
18.3851947906
 20
34.9878121284
 30
0.0
 40
0.0787401574803113
100
AcDbArc
 50
0.0
 51
90.0
  0
LINE
  5
18C
330
1F
100
AcDbEntity
  8
0
  6
Continuous
 62
     7
370
    15
100
AcDbLine
 10
17.8733835239
 20
35.0665522934
 30
0.0
 11
18.3851945046
 21
35.0665522934
 31
0.0
  0
ARC
  5
18D
330
1F
100
AcDbEntity
  8
0
  6
Continuous
 62
     7
370
    15
100
AcDbCircle
 10
17.873383767
 20
34.0035601599
 30
0.0
 40
0.0787401574803184
100
AcDbArc
 50
90.0
 51
180.0
  0
LINE
  5
18E
330
1F
100
AcDbEntity
  8
0
  6
Continuous
 62
     7
370
    15
100
AcDbLine
 10
17.7946436141
 20
33.4917491423
 30
0.0
 11
17.7946436141
 21
34.0035601765
 31
0.0
  0
ARC
  5
18F
330
1F
100
AcDbEntity
  8
0
  6
Continuous
 62
     7
370
    15
100
AcDbCircle
 10
17.873383767
 20
33.4917491363
 30
0.0
 40
0.0787401574803184
100
AcDbArc
 50
180.0
 51
270.0
  0
LINE
  5
190
330
1F
100
AcDbEntity
  8
0
  6
Continuous
 62
     7
370
    15
100
AcDbLine
 10
18.3851945046
 20
33.4130089719
 30
0.0
 11
17.8733835239
 21
33.4130089719
 31
0.0
  0
ARC
  5
191
330
1F
100
AcDbEntity
  8
0
  6
Continuous
 62
     7
370
    15
100
AcDbCircle
 10
18.3851947906
 20
33.4917491363
 30
0.0
 40
0.0787401574803184
100
AcDbArc
 50
270.0
 51
0.0
  0
LINE
  5
192
330
1F
100
AcDbEntity
  8
0
  6
Continuous
 62
     7
370
    15
100
AcDbLine
 10
18.463934998
 20
34.0035601765
 30
0.0
 11
18.463934998
 21
33.4917491423
 31
0.0
  0
ARC
  5
193
330
1F
100
AcDbEntity
  8
0
  6
Continuous
 62
     7
370
    15
100
AcDbCircle
 10
18.3851947906
 20
34.0035601599
 30
0.0
 40
0.0787401574803113
100
AcDbArc
 50
0.0
 51
90.0
  0
LINE
  5
194
330
1F
100
AcDbEntity
  8
0
  6
Continuous
 62
     7
370
    15
100
AcDbLine
 10
17.8733835239
 20
34.0823003469
 30
0.0
 11
18.3851945046
 21
34.0823003469
 31
0.0
  0
ARC
  5
195
330
1F
100
AcDbEntity
  8
0
  6
Continuous
 62
     7
370
    15
100
AcDbCircle
 10
17.873383767
 20
33.0193081914
 30
0.0
 40
0.0787401574803184
100
AcDbArc
 50
90.0
 51
180.0
  0
LINE
  5
196
330
1F
100
AcDbEntity
  8
0
  6
Continuous
 62
     7
370
    15
100
AcDbLine
 10
17.7946436141
 20
32.5074972324
 30
0.0
 11
17.7946436141
 21
33.01930812
 31
0.0
  0
ARC
  5
197
330
1F
100
AcDbEntity
  8
0
  6
Continuous
 62
     7
370
    15
100
AcDbCircle
 10
17.873383767
 20
32.5074971678
 30
0.0
 40
0.0787401574803184
100
AcDbArc
 50
180.0
 51
270.0
  0
LINE
  5
198
330
1F
100
AcDbEntity
  8
0
  6
Continuous
 62
     7
370
    15
100
AcDbLine
 10
18.3851945046
 20
32.4287569154
 30
0.0
 11
17.8733835239
 21
32.4287569154
 31
0.0
  0
ARC
  5
199
330
1F
100
AcDbEntity
  8
0
  6
Continuous
 62
     7
370
    15
100
AcDbCircle
 10
18.3851947906
 20
32.5074971678
 30
0.0
 40
0.0787401574803184
100
AcDbArc
 50
270.0
 51
0.0
  0
LINE
  5
19A
330
1F
100
AcDbEntity
  8
0
  6
Continuous
 62
     7
370
    15
100
AcDbLine
 10
18.463934998
 20
33.01930812
 30
0.0
 11
18.463934998
 21
32.5074972324
 31
0.0
  0
ARC
  5
19B
330
1F
100
AcDbEntity
  8
0
  6
Continuous
 62
     7
370
    15
100
AcDbCircle
 10
18.3851947906
 20
33.0193081914
 30
0.0
 40
0.0787401574803184
100
AcDbArc
 50
0.0
 51
90.0
  0
LINE
  5
19C
330
1F
100
AcDbEntity
  8
0
  6
Continuous
 62
     7
370
    15
100
AcDbLine
 10
17.8733835239
 20
33.0980482903
 30
0.0
 11
18.3851945046
 21
33.0980482903
 31
0.0
  0
ARC
  5
19D
330
1F
100
AcDbEntity
  8
0
  6
Continuous
 62
     7
370
    15
100
AcDbCircle
 10
18.8576357355
 20
38.9248200024
 30
0.0
 40
0.0787401574803184
100
AcDbArc
 50
90.0
 51
180.0
  0
LINE
  5
19E
330
1F
100
AcDbEntity
  8
0
  6
Continuous
 62
     7
370
    15
100
AcDbLine
 10
18.7788956818
 20
38.4130089848
 30
0.0
 11
18.7788956818
 21
38.9248198723
 31
0.0
  0
ARC
  5
19F
330
1F
100
AcDbEntity
  8
0
  6
Continuous
 62
     7
370
    15
100
AcDbCircle
 10
18.8576357355
 20
38.4130089788
 30
0.0
 40
0.0787401574803184
100
AcDbArc
 50
180.0
 51
270.0
  0
LINE
  5
1A0
330
1F
100
AcDbEntity
  8
0
  6
Continuous
 62
     7
370
    15
100
AcDbLine
 10
19.3694465724
 20
38.3342689611
 30
0.0
 11
18.8576355917
 21
38.3342689611
 31
0.0
  0
ARC
  5
1A1
330
1F
100
AcDbEntity
  8
0
  6
Continuous
 62
     7
370
    15
100
AcDbCircle
 10
19.3694467591
 20
38.4130089788
 30
0.0
 40
0.0787401574803184
100
AcDbArc
 50
270.0
 51
0.0
  0
LINE
  5
1A2
330
1F
100
AcDbEntity
  8
0
  6
Continuous
 62
     7
370
    15
100
AcDbLine
 10
19.4481870044
 20
38.9248198723
 30
0.0
 11
19.4481870044
 21
38.4130089848
 31
0.0
  0
ARC
  5
1A3
330
1F
100
AcDbEntity
  8
0
  6
Continuous
 62
     7
370
    15
100
AcDbCircle
 10
19.3694467591
 20
38.9248200024
 30
0.0
 40
0.0787401574803184
100
AcDbArc
 50
0.0
 51
90.0
  0
LINE
  5
1A4
330
1F
100
AcDbEntity
  8
0
  6
Continuous
 62
     7
370
    15
100
AcDbLine
 10
18.8576355917
 20
39.0035601894
 30
0.0
 11
19.3694465724
 21
39.0035601894
 31
0.0
  0
ARC
  5
1A5
330
1F
100
AcDbEntity
  8
0
  6
Continuous
 62
     7
370
    15
100
AcDbCircle
 10
18.8576357355
 20
37.9405680339
 30
0.0
 40
0.0787401574803148
100
AcDbArc
 50
90.0
 51
180.0
  0
LINE
  5
1A6
330
1F
100
AcDbEntity
  8
0
  6
Continuous
 62
     7
370
    15
100
AcDbLine
 10
18.7788956818
 20
37.428757075
 30
0.0
 11
18.7788956818
 21
37.9405679625
 31
0.0
  0
ARC
  5
1A7
330
1F
100
AcDbEntity
  8
0
  6
Continuous
 62
     7
370
    15
100
AcDbCircle
 10
18.8576357355
 20
37.4287570103
 30
0.0
 40
0.0787401574803148
100
AcDbArc
 50
180.0
 51
270.0
  0
LINE
  5
1A8
330
1F
100
AcDbEntity
  8
0
  6
Continuous
 62
     7
370
    15
100
AcDbLine
 10
19.3694465724
 20
37.3500169046
 30
0.0
 11
18.8576355917
 21
37.3500169046
 31
0.0
  0
ARC
  5
1A9
330
1F
100
AcDbEntity
  8
0
  6
Continuous
 62
     7
370
    15
100
AcDbCircle
 10
19.3694467591
 20
37.4287570103
 30
0.0
 40
0.0787401574803184
100
AcDbArc
 50
270.0
 51
0.0
  0
LINE
  5
1AA
330
1F
100
AcDbEntity
  8
0
  6
Continuous
 62
     7
370
    15
100
AcDbLine
 10
19.4481870044
 20
37.9405679625
 30
0.0
 11
19.4481870044
 21
37.428757075
 31
0.0
  0
ARC
  5
1AB
330
1F
100
AcDbEntity
  8
0
  6
Continuous
 62
     7
370
    15
100
AcDbCircle
 10
19.3694467591
 20
37.9405680339
 30
0.0
 40
0.0787401574803184
100
AcDbArc
 50
0.0
 51
90.0
  0
LINE
  5
1AC
330
1F
100
AcDbEntity
  8
0
  6
Continuous
 62
     7
370
    15
100
AcDbLine
 10
18.8576355917
 20
38.0193082795
 30
0.0
 11
19.3694465724
 21
38.0193082795
 31
0.0
  0
ARC
  5
1AD
330
1F
100
AcDbEntity
  8
0
  6
Continuous
 62
     7
370
    15
100
AcDbCircle
 10
18.8576357355
 20
36.9563160654
 30
0.0
 40
0.0787401574803184
100
AcDbArc
 50
90.0
 51
180.0
  0
LINE
  5
1AE
330
1F
100
AcDbEntity
  8
0
  6
Continuous
 62
     7
370
    15
100
AcDbLine
 10
18.7788956818
 20
36.4445050185
 30
0.0
 11
18.7788956818
 21
36.9563160526
 31
0.0
  0
ARC
  5
1AF
330
1F
100
AcDbEntity
  8
0
  6
Continuous
 62
     7
370
    15
100
AcDbCircle
 10
18.8576357355
 20
36.4445050418
 30
0.0
 40
0.0787401574803148
100
AcDbArc
 50
180.0
 51
270.0
  0
LINE
  5
1B0
330
1F
100
AcDbEntity
  8
0
  6
Continuous
 62
     7
370
    15
100
AcDbLine
 10
19.3694465724
 20
36.3657648481
 30
0.0
 11
18.8576355917
 21
36.3657648481
 31
0.0
  0
ARC
  5
1B1
330
1F
100
AcDbEntity
  8
0
  6
Continuous
 62
     7
370
    15
100
AcDbCircle
 10
19.3694467591
 20
36.4445050418
 30
0.0
 40
0.0787401574803184
100
AcDbArc
 50
270.0
 51
0.0
  0
LINE
  5
1B2
330
1F
100
AcDbEntity
  8
0
  6
Continuous
 62
     7
370
    15
100
AcDbLine
 10
19.4481870044
 20
36.9563160526
 30
0.0
 11
19.4481870044
 21
36.4445050185
 31
0.0
  0
ARC
  5
1B3
330
1F
100
AcDbEntity
  8
0
  6
Continuous
 62
     7
370
    15
100
AcDbCircle
 10
19.3694467591
 20
36.9563160654
 30
0.0
 40
0.0787401574803184
100
AcDbArc
 50
0.0
 51
90.0
  0
LINE
  5
1B4
330
1F
100
AcDbEntity
  8
0
  6
Continuous
 62
     7
370
    15
100
AcDbLine
 10
18.8576355917
 20
37.035056223
 30
0.0
 11
19.3694465724
 21
37.035056223
 31
0.0
  0
ARC
  5
1B5
330
1F
100
AcDbEntity
  8
0
  6
Continuous
 62
     7
370
    15
100
AcDbCircle
 10
18.8576357355
 20
35.9720640969
 30
0.0
 40
0.0787401574803148
100
AcDbArc
 50
90.0
 51
180.0
  0
LINE
  5
1B6
330
1F
100
AcDbEntity
  8
0
  6
Continuous
 62
     7
370
    15
100
AcDbLine
 10
18.7788956818
 20
35.460253072
 30
0.0
 11
18.7788956818
 21
35.9720640695
 31
0.0
  0
ARC
  5
1B7
330
1F
100
AcDbEntity
  8
0
  6
Continuous
 62
     7
370
    15
100
AcDbCircle
 10
18.8576357355
 20
35.4602530733
 30
0.0
 40
0.0787401574803148
100
AcDbArc
 50
180.0
 51
270.0
  0
LINE
  5
1B8
330
1F
100
AcDbEntity
  8
0
  6
Continuous
 62
     7
370
    15
100
AcDbLine
 10
19.3694465724
 20
35.3815129199
 30
0.0
 11
18.8576355917
 21
35.3815129199
 31
0.0
  0
ARC
  5
1B9
330
1F
100
AcDbEntity
  8
0
  6
Continuous
 62
     7
370
    15
100
AcDbCircle
 10
19.3694467591
 20
35.4602530733
 30
0.0
 40
0.0787401574803184
100
AcDbArc
 50
270.0
 51
0.0
  0
LINE
  5
1BA
330
1F
100
AcDbEntity
  8
0
  6
Continuous
 62
     7
370
    15
100
AcDbLine
 10
19.4481870044
 20
35.9720640695
 30
0.0
 11
19.4481870044
 21
35.460253072
 31
0.0
  0
ARC
  5
1BB
330
1F
100
AcDbEntity
  8
0
  6
Continuous
 62
     7
370
    15
100
AcDbCircle
 10
19.3694467591
 20
35.9720640969
 30
0.0
 40
0.0787401574803184
100
AcDbArc
 50
0.0
 51
90.0
  0
LINE
  5
1BC
330
1F
100
AcDbEntity
  8
0
  6
Continuous
 62
     7
370
    15
100
AcDbLine
 10
18.8576355917
 20
36.0508042399
 30
0.0
 11
19.3694465724
 21
36.0508042399
 31
0.0
  0
ARC
  5
1BD
330
1F
100
AcDbEntity
  8
0
  6
Continuous
 62
     7
370
    15
100
AcDbCircle
 10
18.8576357355
 20
34.9878121284
 30
0.0
 40
0.0787401574803148
100
AcDbArc
 50
90.0
 51
180.0
  0
LINE
  5
1BE
330
1F
100
AcDbEntity
  8
0
  6
Continuous
 62
     7
370
    15
100
AcDbLine
 10
18.7788956818
 20
34.4760011255
 30
0.0
 11
18.7788956818
 21
34.987812123
 31
0.0
  0
ARC
  5
1BF
330
1F
100
AcDbEntity
  8
0
  6
Continuous
 62
     7
370
    15
100
AcDbCircle
 10
18.8576357355
 20
34.4760011048
 30
0.0
 40
0.0787401574803148
100
AcDbArc
 50
180.0
 51
270.0
  0
LINE
  5
1C0
330
1F
100
AcDbEntity
  8
0
  6
Continuous
 62
     7
370
    15
100
AcDbLine
 10
19.3694465724
 20
34.3972609551
 30
0.0
 11
18.8576355917
 21
34.3972609551
 31
0.0
  0
ARC
  5
1C1
330
1F
100
AcDbEntity
  8
0
  6
Continuous
 62
     7
370
    15
100
AcDbCircle
 10
19.3694467591
 20
34.4760011048
 30
0.0
 40
0.0787401574803184
100
AcDbArc
 50
270.0
 51
0.0
  0
LINE
  5
1C2
330
1F
100
AcDbEntity
  8
0
  6
Continuous
 62
     7
370
    15
100
AcDbLine
 10
19.4481870044
 20
34.987812123
 30
0.0
 11
19.4481870044
 21
34.4760011255
 31
0.0
  0
ARC
  5
1C3
330
1F
100
AcDbEntity
  8
0
  6
Continuous
 62
     7
370
    15
100
AcDbCircle
 10
19.3694467591
 20
34.9878121284
 30
0.0
 40
0.0787401574803184
100
AcDbArc
 50
0.0
 51
90.0
  0
LINE
  5
1C4
330
1F
100
AcDbEntity
  8
0
  6
Continuous
 62
     7
370
    15
100
AcDbLine
 10
18.8576355917
 20
35.0665522934
 30
0.0
 11
19.3694465724
 21
35.0665522934
 31
0.0
  0
ARC
  5
1C5
330
1F
100
AcDbEntity
  8
0
  6
Continuous
 62
     7
370
    15
100
AcDbCircle
 10
18.8576357355
 20
34.0035601599
 30
0.0
 40
0.0787401574803184
100
AcDbArc
 50
90.0
 51
180.0
  0
LINE
  5
1C6
330
1F
100
AcDbEntity
  8
0
  6
Continuous
 62
     7
370
    15
100
AcDbLine
 10
18.7788956818
 20
33.4917491423
 30
0.0
 11
18.7788956818
 21
34.0035601765
 31
0.0
  0
ARC
  5
1C7
330
1F
100
AcDbEntity
  8
0
  6
Continuous
 62
     7
370
    15
100
AcDbCircle
 10
18.8576357355
 20
33.4917491363
 30
0.0
 40
0.0787401574803184
100
AcDbArc
 50
180.0
 51
270.0
  0
LINE
  5
1C8
330
1F
100
AcDbEntity
  8
0
  6
Continuous
 62
     7
370
    15
100
AcDbLine
 10
19.3694465724
 20
33.4130089719
 30
0.0
 11
18.8576355917
 21
33.4130089719
 31
0.0
  0
ARC
  5
1C9
330
1F
100
AcDbEntity
  8
0
  6
Continuous
 62
     7
370
    15
100
AcDbCircle
 10
19.3694467591
 20
33.4917491363
 30
0.0
 40
0.0787401574803184
100
AcDbArc
 50
270.0
 51
0.0
  0
LINE
  5
1CA
330
1F
100
AcDbEntity
  8
0
  6
Continuous
 62
     7
370
    15
100
AcDbLine
 10
19.4481870044
 20
34.0035601765
 30
0.0
 11
19.4481870044
 21
33.4917491423
 31
0.0
  0
ARC
  5
1CB
330
1F
100
AcDbEntity
  8
0
  6
Continuous
 62
     7
370
    15
100
AcDbCircle
 10
19.3694467591
 20
34.0035601599
 30
0.0
 40
0.0787401574803184
100
AcDbArc
 50
0.0
 51
90.0
  0
LINE
  5
1CC
330
1F
100
AcDbEntity
  8
0
  6
Continuous
 62
     7
370
    15
100
AcDbLine
 10
18.8576355917
 20
34.0823003469
 30
0.0
 11
19.3694465724
 21
34.0823003469
 31
0.0
  0
ARC
  5
1CD
330
1F
100
AcDbEntity
  8
0
  6
Continuous
 62
     7
370
    15
100
AcDbCircle
 10
18.8576357355
 20
33.0193081914
 30
0.0
 40
0.0787401574803184
100
AcDbArc
 50
90.0
 51
180.0
  0
LINE
  5
1CE
330
1F
100
AcDbEntity
  8
0
  6
Continuous
 62
     7
370
    15
100
AcDbLine
 10
18.7788956818
 20
32.5074972324
 30
0.0
 11
18.7788956818
 21
33.01930812
 31
0.0
  0
ARC
  5
1CF
330
1F
100
AcDbEntity
  8
0
  6
Continuous
 62
     7
370
    15
100
AcDbCircle
 10
18.8576357355
 20
32.5074971678
 30
0.0
 40
0.0787401574803184
100
AcDbArc
 50
180.0
 51
270.0
  0
LINE
  5
1D0
330
1F
100
AcDbEntity
  8
0
  6
Continuous
 62
     7
370
    15
100
AcDbLine
 10
19.3694465724
 20
32.4287569154
 30
0.0
 11
18.8576355917
 21
32.4287569154
 31
0.0
  0
ARC
  5
1D1
330
1F
100
AcDbEntity
  8
0
  6
Continuous
 62
     7
370
    15
100
AcDbCircle
 10
19.3694467591
 20
32.5074971678
 30
0.0
 40
0.0787401574803184
100
AcDbArc
 50
270.0
 51
0.0
  0
LINE
  5
1D2
330
1F
100
AcDbEntity
  8
0
  6
Continuous
 62
     7
370
    15
100
AcDbLine
 10
19.4481870044
 20
33.01930812
 30
0.0
 11
19.4481870044
 21
32.5074972324
 31
0.0
  0
ARC
  5
1D3
330
1F
100
AcDbEntity
  8
0
  6
Continuous
 62
     7
370
    15
100
AcDbCircle
 10
19.3694467591
 20
33.0193081914
 30
0.0
 40
0.0787401574803184
100
AcDbArc
 50
0.0
 51
90.0
  0
LINE
  5
1D4
330
1F
100
AcDbEntity
  8
0
  6
Continuous
 62
     7
370
    15
100
AcDbLine
 10
18.8576355917
 20
33.0980482903
 30
0.0
 11
19.3694465724
 21
33.0980482903
 31
0.0
  0
ARC
  5
1D5
330
1F
100
AcDbEntity
  8
0
  6
Continuous
 62
     7
370
    15
100
AcDbCircle
 10
19.841887704
 20
38.9248200024
 30
0.0
 40
0.0787401574803184
100
AcDbArc
 50
90.0
 51
180.0
  0
LINE
  5
1D6
330
1F
100
AcDbEntity
  8
0
  6
Continuous
 62
     7
370
    15
100
AcDbLine
 10
19.7631477496
 20
38.4130089848
 30
0.0
 11
19.7631477496
 21
38.9248198723
 31
0.0
  0
ARC
  5
1D7
330
1F
100
AcDbEntity
  8
0
  6
Continuous
 62
     7
370
    15
100
AcDbCircle
 10
19.841887704
 20
38.4130089788
 30
0.0
 40
0.0787401574803184
100
AcDbArc
 50
180.0
 51
270.0
  0
LINE
  5
1D8
330
1F
100
AcDbEntity
  8
0
  6
Continuous
 62
     7
370
    15
100
AcDbLine
 10
20.3536985789
 20
38.3342689611
 30
0.0
 11
19.8418875982
 21
38.3342689611
 31
0.0
  0
ARC
  5
1D9
330
1F
100
AcDbEntity
  8
0
  6
Continuous
 62
     7
370
    15
100
AcDbCircle
 10
20.3536987276
 20
38.4130089788
 30
0.0
 40
0.0787401574803184
100
AcDbArc
 50
270.0
 51
0.0
  0
LINE
  5
1DA
330
1F
100
AcDbEntity
  8
0
  6
Continuous
 62
     7
370
    15
100
AcDbLine
 10
20.4324390722
 20
38.9248198723
 30
0.0
 11
20.4324390722
 21
38.4130089848
 31
0.0
  0
ARC
  5
1DB
330
1F
100
AcDbEntity
  8
0
  6
Continuous
 62
     7
370
    15
100
AcDbCircle
 10
20.3536987276
 20
38.9248200024
 30
0.0
 40
0.0787401574803184
100
AcDbArc
 50
0.0
 51
90.0
  0
LINE
  5
1DC
330
1F
100
AcDbEntity
  8
0
  6
Continuous
 62
     7
370
    15
100
AcDbLine
 10
19.8418875982
 20
39.0035601894
 30
0.0
 11
20.3536985789
 21
39.0035601894
 31
0.0
  0
ARC
  5
1DD
330
1F
100
AcDbEntity
  8
0
  6
Continuous
 62
     7
370
    15
100
AcDbCircle
 10
19.841887704
 20
37.9405680339
 30
0.0
 40
0.0787401574803184
100
AcDbArc
 50
90.0
 51
180.0
  0
LINE
  5
1DE
330
1F
100
AcDbEntity
  8
0
  6
Continuous
 62
     7
370
    15
100
AcDbLine
 10
19.7631477496
 20
37.428757075
 30
0.0
 11
19.7631477496
 21
37.9405679625
 31
0.0
  0
ARC
  5
1DF
330
1F
100
AcDbEntity
  8
0
  6
Continuous
 62
     7
370
    15
100
AcDbCircle
 10
19.841887704
 20
37.4287570103
 30
0.0
 40
0.0787401574803148
100
AcDbArc
 50
180.0
 51
270.0
  0
LINE
  5
1E0
330
1F
100
AcDbEntity
  8
0
  6
Continuous
 62
     7
370
    15
100
AcDbLine
 10
20.3536985789
 20
37.3500169046
 30
0.0
 11
19.8418875982
 21
37.3500169046
 31
0.0
  0
ARC
  5
1E1
330
1F
100
AcDbEntity
  8
0
  6
Continuous
 62
     7
370
    15
100
AcDbCircle
 10
20.3536987276
 20
37.4287570103
 30
0.0
 40
0.0787401574803148
100
AcDbArc
 50
270.0
 51
0.0
  0
LINE
  5
1E2
330
1F
100
AcDbEntity
  8
0
  6
Continuous
 62
     7
370
    15
100
AcDbLine
 10
20.4324390722
 20
37.9405679625
 30
0.0
 11
20.4324390722
 21
37.428757075
 31
0.0
  0
ARC
  5
1E3
330
1F
100
AcDbEntity
  8
0
  6
Continuous
 62
     7
370
    15
100
AcDbCircle
 10
20.3536987276
 20
37.9405680339
 30
0.0
 40
0.0787401574803184
100
AcDbArc
 50
0.0
 51
90.0
  0
LINE
  5
1E4
330
1F
100
AcDbEntity
  8
0
  6
Continuous
 62
     7
370
    15
100
AcDbLine
 10
19.8418875982
 20
38.0193082795
 30
0.0
 11
20.3536985789
 21
38.0193082795
 31
0.0
  0
ARC
  5
1E5
330
1F
100
AcDbEntity
  8
0
  6
Continuous
 62
     7
370
    15
100
AcDbCircle
 10
19.841887704
 20
36.9563160654
 30
0.0
 40
0.0787401574803184
100
AcDbArc
 50
90.0
 51
180.0
  0
LINE
  5
1E6
330
1F
100
AcDbEntity
  8
0
  6
Continuous
 62
     7
370
    15
100
AcDbLine
 10
19.7631477496
 20
36.4445050185
 30
0.0
 11
19.7631477496
 21
36.9563160526
 31
0.0
  0
ARC
  5
1E7
330
1F
100
AcDbEntity
  8
0
  6
Continuous
 62
     7
370
    15
100
AcDbCircle
 10
19.841887704
 20
36.4445050418
 30
0.0
 40
0.0787401574803148
100
AcDbArc
 50
180.0
 51
270.0
  0
LINE
  5
1E8
330
1F
100
AcDbEntity
  8
0
  6
Continuous
 62
     7
370
    15
100
AcDbLine
 10
20.3536985789
 20
36.3657648481
 30
0.0
 11
19.8418875982
 21
36.3657648481
 31
0.0
  0
ARC
  5
1E9
330
1F
100
AcDbEntity
  8
0
  6
Continuous
 62
     7
370
    15
100
AcDbCircle
 10
20.3536987276
 20
36.4445050418
 30
0.0
 40
0.0787401574803148
100
AcDbArc
 50
270.0
 51
0.0
  0
LINE
  5
1EA
330
1F
100
AcDbEntity
  8
0
  6
Continuous
 62
     7
370
    15
100
AcDbLine
 10
20.4324390722
 20
36.9563160526
 30
0.0
 11
20.4324390722
 21
36.4445050185
 31
0.0
  0
ARC
  5
1EB
330
1F
100
AcDbEntity
  8
0
  6
Continuous
 62
     7
370
    15
100
AcDbCircle
 10
20.3536987276
 20
36.9563160654
 30
0.0
 40
0.0787401574803184
100
AcDbArc
 50
0.0
 51
90.0
  0
LINE
  5
1EC
330
1F
100
AcDbEntity
  8
0
  6
Continuous
 62
     7
370
    15
100
AcDbLine
 10
19.8418875982
 20
37.035056223
 30
0.0
 11
20.3536985789
 21
37.035056223
 31
0.0
  0
ARC
  5
1ED
330
1F
100
AcDbEntity
  8
0
  6
Continuous
 62
     7
370
    15
100
AcDbCircle
 10
19.841887704
 20
35.9720640969
 30
0.0
 40
0.0787401574803148
100
AcDbArc
 50
90.0
 51
180.0
  0
LINE
  5
1EE
330
1F
100
AcDbEntity
  8
0
  6
Continuous
 62
     7
370
    15
100
AcDbLine
 10
19.7631477496
 20
35.460253072
 30
0.0
 11
19.7631477496
 21
35.9720640695
 31
0.0
  0
ARC
  5
1EF
330
1F
100
AcDbEntity
  8
0
  6
Continuous
 62
     7
370
    15
100
AcDbCircle
 10
19.841887704
 20
35.4602530733
 30
0.0
 40
0.0787401574803148
100
AcDbArc
 50
180.0
 51
270.0
  0
LINE
  5
1F0
330
1F
100
AcDbEntity
  8
0
  6
Continuous
 62
     7
370
    15
100
AcDbLine
 10
20.3536985789
 20
35.3815129199
 30
0.0
 11
19.8418875982
 21
35.3815129199
 31
0.0
  0
ARC
  5
1F1
330
1F
100
AcDbEntity
  8
0
  6
Continuous
 62
     7
370
    15
100
AcDbCircle
 10
20.3536987276
 20
35.4602530733
 30
0.0
 40
0.0787401574803148
100
AcDbArc
 50
270.0
 51
0.0
  0
LINE
  5
1F2
330
1F
100
AcDbEntity
  8
0
  6
Continuous
 62
     7
370
    15
100
AcDbLine
 10
20.4324390722
 20
35.9720640695
 30
0.0
 11
20.4324390722
 21
35.460253072
 31
0.0
  0
ARC
  5
1F3
330
1F
100
AcDbEntity
  8
0
  6
Continuous
 62
     7
370
    15
100
AcDbCircle
 10
20.3536987276
 20
35.9720640969
 30
0.0
 40
0.0787401574803148
100
AcDbArc
 50
0.0
 51
90.0
  0
LINE
  5
1F4
330
1F
100
AcDbEntity
  8
0
  6
Continuous
 62
     7
370
    15
100
AcDbLine
 10
19.8418875982
 20
36.0508042399
 30
0.0
 11
20.3536985789
 21
36.0508042399
 31
0.0
  0
ARC
  5
1F5
330
1F
100
AcDbEntity
  8
0
  6
Continuous
 62
     7
370
    15
100
AcDbCircle
 10
19.841887704
 20
34.9878121284
 30
0.0
 40
0.0787401574803184
100
AcDbArc
 50
90.0
 51
180.0
  0
LINE
  5
1F6
330
1F
100
AcDbEntity
  8
0
  6
Continuous
 62
     7
370
    15
100
AcDbLine
 10
19.7631477496
 20
34.4760011255
 30
0.0
 11
19.7631477496
 21
34.987812123
 31
0.0
  0
ARC
  5
1F7
330
1F
100
AcDbEntity
  8
0
  6
Continuous
 62
     7
370
    15
100
AcDbCircle
 10
19.841887704
 20
34.4760011048
 30
0.0
 40
0.0787401574803184
100
AcDbArc
 50
180.0
 51
270.0
  0
LINE
  5
1F8
330
1F
100
AcDbEntity
  8
0
  6
Continuous
 62
     7
370
    15
100
AcDbLine
 10
20.3536985789
 20
34.3972609551
 30
0.0
 11
19.8418875982
 21
34.3972609551
 31
0.0
  0
ARC
  5
1F9
330
1F
100
AcDbEntity
  8
0
  6
Continuous
 62
     7
370
    15
100
AcDbCircle
 10
20.3536987276
 20
34.4760011048
 30
0.0
 40
0.0787401574803184
100
AcDbArc
 50
270.0
 51
0.0
  0
LINE
  5
1FA
330
1F
100
AcDbEntity
  8
0
  6
Continuous
 62
     7
370
    15
100
AcDbLine
 10
20.4324390722
 20
34.987812123
 30
0.0
 11
20.4324390722
 21
34.4760011255
 31
0.0
  0
ARC
  5
1FB
330
1F
100
AcDbEntity
  8
0
  6
Continuous
 62
     7
370
    15
100
AcDbCircle
 10
20.3536987276
 20
34.9878121284
 30
0.0
 40
0.0787401574803184
100
AcDbArc
 50
0.0
 51
90.0
  0
LINE
  5
1FC
330
1F
100
AcDbEntity
  8
0
  6
Continuous
 62
     7
370
    15
100
AcDbLine
 10
19.8418875982
 20
35.0665522934
 30
0.0
 11
20.3536985789
 21
35.0665522934
 31
0.0
  0
ARC
  5
1FD
330
1F
100
AcDbEntity
  8
0
  6
Continuous
 62
     7
370
    15
100
AcDbCircle
 10
19.841887704
 20
34.0035601599
 30
0.0
 40
0.0787401574803184
100
AcDbArc
 50
90.0
 51
180.0
  0
LINE
  5
1FE
330
1F
100
AcDbEntity
  8
0
  6
Continuous
 62
     7
370
    15
100
AcDbLine
 10
19.7631477496
 20
33.4917491423
 30
0.0
 11
19.7631477496
 21
34.0035601765
 31
0.0
  0
ARC
  5
1FF
330
1F
100
AcDbEntity
  8
0
  6
Continuous
 62
     7
370
    15
100
AcDbCircle
 10
19.841887704
 20
33.4917491363
 30
0.0
 40
0.0787401574803184
100
AcDbArc
 50
180.0
 51
270.0
  0
LINE
  5
200
330
1F
100
AcDbEntity
  8
0
  6
Continuous
 62
     7
370
    15
100
AcDbLine
 10
20.3536985789
 20
33.4130089719
 30
0.0
 11
19.8418875982
 21
33.4130089719
 31
0.0
  0
ARC
  5
201
330
1F
100
AcDbEntity
  8
0
  6
Continuous
 62
     7
370
    15
100
AcDbCircle
 10
20.3536987276
 20
33.4917491363
 30
0.0
 40
0.0787401574803184
100
AcDbArc
 50
270.0
 51
0.0
  0
LINE
  5
202
330
1F
100
AcDbEntity
  8
0
  6
Continuous
 62
     7
370
    15
100
AcDbLine
 10
20.4324390722
 20
34.0035601765
 30
0.0
 11
20.4324390722
 21
33.4917491423
 31
0.0
  0
ARC
  5
203
330
1F
100
AcDbEntity
  8
0
  6
Continuous
 62
     7
370
    15
100
AcDbCircle
 10
20.3536987276
 20
34.0035601599
 30
0.0
 40
0.0787401574803184
100
AcDbArc
 50
0.0
 51
90.0
  0
LINE
  5
204
330
1F
100
AcDbEntity
  8
0
  6
Continuous
 62
     7
370
    15
100
AcDbLine
 10
19.8418875982
 20
34.0823003469
 30
0.0
 11
20.3536985789
 21
34.0823003469
 31
0.0
  0
ARC
  5
205
330
1F
100
AcDbEntity
  8
0
  6
Continuous
 62
     7
370
    15
100
AcDbCircle
 10
19.841887704
 20
33.0193081914
 30
0.0
 40
0.0787401574803184
100
AcDbArc
 50
90.0
 51
180.0
  0
LINE
  5
206
330
1F
100
AcDbEntity
  8
0
  6
Continuous
 62
     7
370
    15
100
AcDbLine
 10
19.7631477496
 20
32.5074972324
 30
0.0
 11
19.7631477496
 21
33.01930812
 31
0.0
  0
ARC
  5
207
330
1F
100
AcDbEntity
  8
0
  6
Continuous
 62
     7
370
    15
100
AcDbCircle
 10
19.841887704
 20
32.5074971678
 30
0.0
 40
0.0787401574803184
100
AcDbArc
 50
180.0
 51
270.0
  0
LINE
  5
208
330
1F
100
AcDbEntity
  8
0
  6
Continuous
 62
     7
370
    15
100
AcDbLine
 10
20.3536985789
 20
32.4287569154
 30
0.0
 11
19.8418875982
 21
32.4287569154
 31
0.0
  0
ARC
  5
209
330
1F
100
AcDbEntity
  8
0
  6
Continuous
 62
     7
370
    15
100
AcDbCircle
 10
20.3536987276
 20
32.5074971678
 30
0.0
 40
0.0787401574803184
100
AcDbArc
 50
270.0
 51
0.0
  0
LINE
  5
20A
330
1F
100
AcDbEntity
  8
0
  6
Continuous
 62
     7
370
    15
100
AcDbLine
 10
20.4324390722
 20
33.01930812
 30
0.0
 11
20.4324390722
 21
32.5074972324
 31
0.0
  0
ARC
  5
20B
330
1F
100
AcDbEntity
  8
0
  6
Continuous
 62
     7
370
    15
100
AcDbCircle
 10
20.3536987276
 20
33.0193081914
 30
0.0
 40
0.0787401574803184
100
AcDbArc
 50
0.0
 51
90.0
  0
LINE
  5
20C
330
1F
100
AcDbEntity
  8
0
  6
Continuous
 62
     7
370
    15
100
AcDbLine
 10
19.8418875982
 20
33.0980482903
 30
0.0
 11
20.3536985789
 21
33.0980482903
 31
0.0
  0
ARC
  5
20D
330
1F
100
AcDbEntity
  8
0
  6
Continuous
 62
     7
370
    15
100
AcDbCircle
 10
20.8261396725
 20
38.9248200024
 30
0.0
 40
0.0787401574803184
100
AcDbArc
 50
90.0
 51
180.0
  0
LINE
  5
20E
330
1F
100
AcDbEntity
  8
0
  6
Continuous
 62
     7
370
    15
100
AcDbLine
 10
20.747399756
 20
38.4130089848
 30
0.0
 11
20.747399756
 21
38.9248198723
 31
0.0
  0
ARC
  5
20F
330
1F
100
AcDbEntity
  8
0
  6
Continuous
 62
     7
370
    15
100
AcDbCircle
 10
20.8261396725
 20
38.4130089788
 30
0.0
 40
0.0787401574803148
100
AcDbArc
 50
180.0
 51
270.0
  0
LINE
  5
210
330
1F
100
AcDbEntity
  8
0
  6
Continuous
 62
     7
370
    15
100
AcDbLine
 10
21.3379506466
 20
38.3342689611
 30
0.0
 11
20.8261396659
 21
38.3342689611
 31
0.0
  0
ARC
  5
211
330
1F
100
AcDbEntity
  8
0
  6
Continuous
 62
     7
370
    15
100
AcDbCircle
 10
21.3379506961
 20
38.4130089788
 30
0.0
 40
0.0787401574803148
100
AcDbArc
 50
270.0
 51
0.0
  0
LINE
  5
212
330
1F
100
AcDbEntity
  8
0
  6
Continuous
 62
     7
370
    15
100
AcDbLine
 10
21.41669114
 20
38.9248198723
 30
0.0
 11
21.41669114
 21
38.4130089848
 31
0.0
  0
ARC
  5
213
330
1F
100
AcDbEntity
  8
0
  6
Continuous
 62
     7
370
    15
100
AcDbCircle
 10
21.3379506961
 20
38.9248200024
 30
0.0
 40
0.0787401574803184
100
AcDbArc
 50
0.0
 51
90.0
  0
LINE
  5
214
330
1F
100
AcDbEntity
  8
0
  6
Continuous
 62
     7
370
    15
100
AcDbLine
 10
20.8261396659
 20
39.0035601894
 30
0.0
 11
21.3379506466
 21
39.0035601894
 31
0.0
  0
ARC
  5
215
330
1F
100
AcDbEntity
  8
0
  6
Continuous
 62
     7
370
    15
100
AcDbCircle
 10
20.8261396725
 20
37.9405680339
 30
0.0
 40
0.0787401574803148
100
AcDbArc
 50
90.0
 51
180.0
  0
LINE
  5
216
330
1F
100
AcDbEntity
  8
0
  6
Continuous
 62
     7
370
    15
100
AcDbLine
 10
20.747399756
 20
37.428757075
 30
0.0
 11
20.747399756
 21
37.9405679625
 31
0.0
  0
ARC
  5
217
330
1F
100
AcDbEntity
  8
0
  6
Continuous
 62
     7
370
    15
100
AcDbCircle
 10
20.8261396725
 20
37.4287570103
 30
0.0
 40
0.0787401574803148
100
AcDbArc
 50
180.0
 51
270.0
  0
LINE
  5
218
330
1F
100
AcDbEntity
  8
0
  6
Continuous
 62
     7
370
    15
100
AcDbLine
 10
21.3379506466
 20
37.3500169046
 30
0.0
 11
20.8261396659
 21
37.3500169046
 31
0.0
  0
ARC
  5
219
330
1F
100
AcDbEntity
  8
0
  6
Continuous
 62
     7
370
    15
100
AcDbCircle
 10
21.3379506961
 20
37.4287570103
 30
0.0
 40
0.0787401574803148
100
AcDbArc
 50
270.0
 51
0.0
  0
LINE
  5
21A
330
1F
100
AcDbEntity
  8
0
  6
Continuous
 62
     7
370
    15
100
AcDbLine
 10
21.41669114
 20
37.9405679625
 30
0.0
 11
21.41669114
 21
37.428757075
 31
0.0
  0
ARC
  5
21B
330
1F
100
AcDbEntity
  8
0
  6
Continuous
 62
     7
370
    15
100
AcDbCircle
 10
21.3379506961
 20
37.9405680339
 30
0.0
 40
0.0787401574803148
100
AcDbArc
 50
0.0
 51
90.0
  0
LINE
  5
21C
330
1F
100
AcDbEntity
  8
0
  6
Continuous
 62
     7
370
    15
100
AcDbLine
 10
20.8261396659
 20
38.0193082795
 30
0.0
 11
21.3379506466
 21
38.0193082795
 31
0.0
  0
ARC
  5
21D
330
1F
100
AcDbEntity
  8
0
  6
Continuous
 62
     7
370
    15
100
AcDbCircle
 10
20.8261396725
 20
36.9563160654
 30
0.0
 40
0.0787401574803184
100
AcDbArc
 50
90.0
 51
180.0
  0
LINE
  5
21E
330
1F
100
AcDbEntity
  8
0
  6
Continuous
 62
     7
370
    15
100
AcDbLine
 10
20.747399756
 20
36.4445050185
 30
0.0
 11
20.747399756
 21
36.9563160526
 31
0.0
  0
ARC
  5
21F
330
1F
100
AcDbEntity
  8
0
  6
Continuous
 62
     7
370
    15
100
AcDbCircle
 10
20.8261396725
 20
36.4445050418
 30
0.0
 40
0.0787401574803148
100
AcDbArc
 50
180.0
 51
270.0
  0
LINE
  5
220
330
1F
100
AcDbEntity
  8
0
  6
Continuous
 62
     7
370
    15
100
AcDbLine
 10
21.3379506466
 20
36.3657648481
 30
0.0
 11
20.8261396659
 21
36.3657648481
 31
0.0
  0
ARC
  5
221
330
1F
100
AcDbEntity
  8
0
  6
Continuous
 62
     7
370
    15
100
AcDbCircle
 10
21.3379506961
 20
36.4445050418
 30
0.0
 40
0.0787401574803148
100
AcDbArc
 50
270.0
 51
0.0
  0
LINE
  5
222
330
1F
100
AcDbEntity
  8
0
  6
Continuous
 62
     7
370
    15
100
AcDbLine
 10
21.41669114
 20
36.9563160526
 30
0.0
 11
21.41669114
 21
36.4445050185
 31
0.0
  0
ARC
  5
223
330
1F
100
AcDbEntity
  8
0
  6
Continuous
 62
     7
370
    15
100
AcDbCircle
 10
21.3379506961
 20
36.9563160654
 30
0.0
 40
0.0787401574803148
100
AcDbArc
 50
0.0
 51
90.0
  0
LINE
  5
224
330
1F
100
AcDbEntity
  8
0
  6
Continuous
 62
     7
370
    15
100
AcDbLine
 10
20.8261396659
 20
37.035056223
 30
0.0
 11
21.3379506466
 21
37.035056223
 31
0.0
  0
ARC
  5
225
330
1F
100
AcDbEntity
  8
0
  6
Continuous
 62
     7
370
    15
100
AcDbCircle
 10
20.8261396725
 20
35.9720640969
 30
0.0
 40
0.0787401574803184
100
AcDbArc
 50
90.0
 51
180.0
  0
LINE
  5
226
330
1F
100
AcDbEntity
  8
0
  6
Continuous
 62
     7
370
    15
100
AcDbLine
 10
20.747399756
 20
35.460253072
 30
0.0
 11
20.747399756
 21
35.9720640695
 31
0.0
  0
ARC
  5
227
330
1F
100
AcDbEntity
  8
0
  6
Continuous
 62
     7
370
    15
100
AcDbCircle
 10
20.8261396725
 20
35.4602530733
 30
0.0
 40
0.0787401574803184
100
AcDbArc
 50
180.0
 51
270.0
  0
LINE
  5
228
330
1F
100
AcDbEntity
  8
0
  6
Continuous
 62
     7
370
    15
100
AcDbLine
 10
21.3379506466
 20
35.3815129199
 30
0.0
 11
20.8261396659
 21
35.3815129199
 31
0.0
  0
ARC
  5
229
330
1F
100
AcDbEntity
  8
0
  6
Continuous
 62
     7
370
    15
100
AcDbCircle
 10
21.3379506961
 20
35.4602530733
 30
0.0
 40
0.0787401574803184
100
AcDbArc
 50
270.0
 51
0.0
  0
LINE
  5
22A
330
1F
100
AcDbEntity
  8
0
  6
Continuous
 62
     7
370
    15
100
AcDbLine
 10
21.41669114
 20
35.9720640695
 30
0.0
 11
21.41669114
 21
35.460253072
 31
0.0
  0
ARC
  5
22B
330
1F
100
AcDbEntity
  8
0
  6
Continuous
 62
     7
370
    15
100
AcDbCircle
 10
21.3379506961
 20
35.9720640969
 30
0.0
 40
0.0787401574803148
100
AcDbArc
 50
0.0
 51
90.0
  0
LINE
  5
22C
330
1F
100
AcDbEntity
  8
0
  6
Continuous
 62
     7
370
    15
100
AcDbLine
 10
20.8261396659
 20
36.0508042399
 30
0.0
 11
21.3379506466
 21
36.0508042399
 31
0.0
  0
ARC
  5
22D
330
1F
100
AcDbEntity
  8
0
  6
Continuous
 62
     7
370
    15
100
AcDbCircle
 10
20.8261396725
 20
34.9878121284
 30
0.0
 40
0.0787401574803184
100
AcDbArc
 50
90.0
 51
180.0
  0
LINE
  5
22E
330
1F
100
AcDbEntity
  8
0
  6
Continuous
 62
     7
370
    15
100
AcDbLine
 10
20.747399756
 20
34.4760011255
 30
0.0
 11
20.747399756
 21
34.987812123
 31
0.0
  0
ARC
  5
22F
330
1F
100
AcDbEntity
  8
0
  6
Continuous
 62
     7
370
    15
100
AcDbCircle
 10
20.8261396725
 20
34.4760011048
 30
0.0
 40
0.0787401574803184
100
AcDbArc
 50
180.0
 51
270.0
  0
LINE
  5
230
330
1F
100
AcDbEntity
  8
0
  6
Continuous
 62
     7
370
    15
100
AcDbLine
 10
21.3379506466
 20
34.3972609551
 30
0.0
 11
20.8261396659
 21
34.3972609551
 31
0.0
  0
ARC
  5
231
330
1F
100
AcDbEntity
  8
0
  6
Continuous
 62
     7
370
    15
100
AcDbCircle
 10
21.3379506961
 20
34.4760011048
 30
0.0
 40
0.0787401574803184
100
AcDbArc
 50
270.0
 51
0.0
  0
LINE
  5
232
330
1F
100
AcDbEntity
  8
0
  6
Continuous
 62
     7
370
    15
100
AcDbLine
 10
21.41669114
 20
34.987812123
 30
0.0
 11
21.41669114
 21
34.4760011255
 31
0.0
  0
ARC
  5
233
330
1F
100
AcDbEntity
  8
0
  6
Continuous
 62
     7
370
    15
100
AcDbCircle
 10
21.3379506961
 20
34.9878121284
 30
0.0
 40
0.0787401574803184
100
AcDbArc
 50
0.0
 51
90.0
  0
LINE
  5
234
330
1F
100
AcDbEntity
  8
0
  6
Continuous
 62
     7
370
    15
100
AcDbLine
 10
20.8261396659
 20
35.0665522934
 30
0.0
 11
21.3379506466
 21
35.0665522934
 31
0.0
  0
ARC
  5
235
330
1F
100
AcDbEntity
  8
0
  6
Continuous
 62
     7
370
    15
100
AcDbCircle
 10
20.8261396725
 20
34.0035601599
 30
0.0
 40
0.0787401574803184
100
AcDbArc
 50
90.0
 51
180.0
  0
LINE
  5
236
330
1F
100
AcDbEntity
  8
0
  6
Continuous
 62
     7
370
    15
100
AcDbLine
 10
20.747399756
 20
33.4917491423
 30
0.0
 11
20.747399756
 21
34.0035601765
 31
0.0
  0
ARC
  5
237
330
1F
100
AcDbEntity
  8
0
  6
Continuous
 62
     7
370
    15
100
AcDbCircle
 10
20.8261396725
 20
33.4917491363
 30
0.0
 40
0.0787401574803148
100
AcDbArc
 50
180.0
 51
270.0
  0
LINE
  5
238
330
1F
100
AcDbEntity
  8
0
  6
Continuous
 62
     7
370
    15
100
AcDbLine
 10
21.3379506466
 20
33.4130089719
 30
0.0
 11
20.8261396659
 21
33.4130089719
 31
0.0
  0
ARC
  5
239
330
1F
100
AcDbEntity
  8
0
  6
Continuous
 62
     7
370
    15
100
AcDbCircle
 10
21.3379506961
 20
33.4917491363
 30
0.0
 40
0.0787401574803184
100
AcDbArc
 50
270.0
 51
0.0
  0
LINE
  5
23A
330
1F
100
AcDbEntity
  8
0
  6
Continuous
 62
     7
370
    15
100
AcDbLine
 10
21.41669114
 20
34.0035601765
 30
0.0
 11
21.41669114
 21
33.4917491423
 31
0.0
  0
ARC
  5
23B
330
1F
100
AcDbEntity
  8
0
  6
Continuous
 62
     7
370
    15
100
AcDbCircle
 10
21.3379506961
 20
34.0035601599
 30
0.0
 40
0.0787401574803184
100
AcDbArc
 50
0.0
 51
90.0
  0
LINE
  5
23C
330
1F
100
AcDbEntity
  8
0
  6
Continuous
 62
     7
370
    15
100
AcDbLine
 10
20.8261396659
 20
34.0823003469
 30
0.0
 11
21.3379506466
 21
34.0823003469
 31
0.0
  0
ARC
  5
23D
330
1F
100
AcDbEntity
  8
0
  6
Continuous
 62
     7
370
    15
100
AcDbCircle
 10
20.8261396725
 20
33.0193081914
 30
0.0
 40
0.0787401574803184
100
AcDbArc
 50
90.0
 51
180.0
  0
LINE
  5
23E
330
1F
100
AcDbEntity
  8
0
  6
Continuous
 62
     7
370
    15
100
AcDbLine
 10
20.747399756
 20
32.5074972324
 30
0.0
 11
20.747399756
 21
33.01930812
 31
0.0
  0
ARC
  5
23F
330
1F
100
AcDbEntity
  8
0
  6
Continuous
 62
     7
370
    15
100
AcDbCircle
 10
20.8261396725
 20
32.5074971678
 30
0.0
 40
0.0787401574803148
100
AcDbArc
 50
180.0
 51
270.0
  0
LINE
  5
240
330
1F
100
AcDbEntity
  8
0
  6
Continuous
 62
     7
370
    15
100
AcDbLine
 10
21.3379506466
 20
32.4287569154
 30
0.0
 11
20.8261396659
 21
32.4287569154
 31
0.0
  0
ARC
  5
241
330
1F
100
AcDbEntity
  8
0
  6
Continuous
 62
     7
370
    15
100
AcDbCircle
 10
21.3379506961
 20
32.5074971678
 30
0.0
 40
0.0787401574803148
100
AcDbArc
 50
270.0
 51
0.0
  0
LINE
  5
242
330
1F
100
AcDbEntity
  8
0
  6
Continuous
 62
     7
370
    15
100
AcDbLine
 10
21.41669114
 20
33.01930812
 30
0.0
 11
21.41669114
 21
32.5074972324
 31
0.0
  0
ARC
  5
243
330
1F
100
AcDbEntity
  8
0
  6
Continuous
 62
     7
370
    15
100
AcDbCircle
 10
21.3379506961
 20
33.0193081914
 30
0.0
 40
0.0787401574803184
100
AcDbArc
 50
0.0
 51
90.0
  0
LINE
  5
244
330
1F
100
AcDbEntity
  8
0
  6
Continuous
 62
     7
370
    15
100
AcDbLine
 10
20.8261396659
 20
33.0980482903
 30
0.0
 11
21.3379506466
 21
33.0980482903
 31
0.0
  0
ARC
  5
245
330
1F
100
AcDbEntity
  8
0
  6
Continuous
 62
     7
370
    15
100
AcDbCircle
 10
21.810391641
 20
38.9248200024
 30
0.0
 40
0.0787401574803184
100
AcDbArc
 50
90.0
 51
180.0
  0
LINE
  5
246
330
1F
100
AcDbEntity
  8
0
  6
Continuous
 62
     7
370
    15
100
AcDbLine
 10
21.7316515321
 20
38.4130089848
 30
0.0
 11
21.7316515321
 21
38.9248198723
 31
0.0
  0
ARC
  5
247
330
1F
100
AcDbEntity
  8
0
  6
Continuous
 62
     7
370
    15
100
AcDbCircle
 10
21.810391641
 20
38.4130089788
 30
0.0
 40
0.0787401574803184
100
AcDbArc
 50
180.0
 51
270.0
  0
LINE
  5
248
330
1F
100
AcDbEntity
  8
0
  6
Continuous
 62
     7
370
    15
100
AcDbLine
 10
22.3222027144
 20
38.3342689611
 30
0.0
 11
21.8103917337
 21
38.3342689611
 31
0.0
  0
ARC
  5
249
330
1F
100
AcDbEntity
  8
0
  6
Continuous
 62
     7
370
    15
100
AcDbCircle
 10
22.3222026646
 20
38.4130089788
 30
0.0
 40
0.0787401574803113
100
AcDbArc
 50
270.0
 51
0.0
  0
LINE
  5
24A
330
1F
100
AcDbEntity
  8
0
  6
Continuous
 62
     7
370
    15
100
AcDbLine
 10
22.4009428547
 20
38.9248198723
 30
0.0
 11
22.4009428547
 21
38.4130089848
 31
0.0
  0
ARC
  5
24B
330
1F
100
AcDbEntity
  8
0
  6
Continuous
 62
     7
370
    15
100
AcDbCircle
 10
22.3222026646
 20
38.9248200024
 30
0.0
 40
0.0787401574803113
100
AcDbArc
 50
0.0
 51
90.0
  0
LINE
  5
24C
330
1F
100
AcDbEntity
  8
0
  6
Continuous
 62
     7
370
    15
100
AcDbLine
 10
21.8103917337
 20
39.0035601894
 30
0.0
 11
22.3222027144
 21
39.0035601894
 31
0.0
  0
ARC
  5
24D
330
1F
100
AcDbEntity
  8
0
  6
Continuous
 62
     7
370
    15
100
AcDbCircle
 10
21.810391641
 20
37.9405680339
 30
0.0
 40
0.0787401574803184
100
AcDbArc
 50
90.0
 51
180.0
  0
LINE
  5
24E
330
1F
100
AcDbEntity
  8
0
  6
Continuous
 62
     7
370
    15
100
AcDbLine
 10
21.7316515321
 20
37.428757075
 30
0.0
 11
21.7316515321
 21
37.9405679625
 31
0.0
  0
ARC
  5
24F
330
1F
100
AcDbEntity
  8
0
  6
Continuous
 62
     7
370
    15
100
AcDbCircle
 10
21.810391641
 20
37.4287570103
 30
0.0
 40
0.0787401574803184
100
AcDbArc
 50
180.0
 51
270.0
  0
LINE
  5
250
330
1F
100
AcDbEntity
  8
0
  6
Continuous
 62
     7
370
    15
100
AcDbLine
 10
22.3222027144
 20
37.3500169046
 30
0.0
 11
21.8103917337
 21
37.3500169046
 31
0.0
  0
ARC
  5
251
330
1F
100
AcDbEntity
  8
0
  6
Continuous
 62
     7
370
    15
100
AcDbCircle
 10
22.3222026646
 20
37.4287570103
 30
0.0
 40
0.0787401574803113
100
AcDbArc
 50
270.0
 51
0.0
  0
LINE
  5
252
330
1F
100
AcDbEntity
  8
0
  6
Continuous
 62
     7
370
    15
100
AcDbLine
 10
22.4009428547
 20
37.9405679625
 30
0.0
 11
22.4009428547
 21
37.428757075
 31
0.0
  0
ARC
  5
253
330
1F
100
AcDbEntity
  8
0
  6
Continuous
 62
     7
370
    15
100
AcDbCircle
 10
22.3222026646
 20
37.9405680339
 30
0.0
 40
0.0787401574803113
100
AcDbArc
 50
0.0
 51
90.0
  0
LINE
  5
254
330
1F
100
AcDbEntity
  8
0
  6
Continuous
 62
     7
370
    15
100
AcDbLine
 10
21.8103917337
 20
38.0193082795
 30
0.0
 11
22.3222027144
 21
38.0193082795
 31
0.0
  0
ARC
  5
255
330
1F
100
AcDbEntity
  8
0
  6
Continuous
 62
     7
370
    15
100
AcDbCircle
 10
21.810391641
 20
36.9563160654
 30
0.0
 40
0.0787401574803184
100
AcDbArc
 50
90.0
 51
180.0
  0
LINE
  5
256
330
1F
100
AcDbEntity
  8
0
  6
Continuous
 62
     7
370
    15
100
AcDbLine
 10
21.7316515321
 20
36.4445050185
 30
0.0
 11
21.7316515321
 21
36.9563160526
 31
0.0
  0
ARC
  5
257
330
1F
100
AcDbEntity
  8
0
  6
Continuous
 62
     7
370
    15
100
AcDbCircle
 10
21.810391641
 20
36.4445050418
 30
0.0
 40
0.0787401574803184
100
AcDbArc
 50
180.0
 51
270.0
  0
LINE
  5
258
330
1F
100
AcDbEntity
  8
0
  6
Continuous
 62
     7
370
    15
100
AcDbLine
 10
22.3222027144
 20
36.3657648481
 30
0.0
 11
21.8103917337
 21
36.3657648481
 31
0.0
  0
ARC
  5
259
330
1F
100
AcDbEntity
  8
0
  6
Continuous
 62
     7
370
    15
100
AcDbCircle
 10
22.3222026646
 20
36.4445050418
 30
0.0
 40
0.0787401574803113
100
AcDbArc
 50
270.0
 51
0.0
  0
LINE
  5
25A
330
1F
100
AcDbEntity
  8
0
  6
Continuous
 62
     7
370
    15
100
AcDbLine
 10
22.4009428547
 20
36.9563160526
 30
0.0
 11
22.4009428547
 21
36.4445050185
 31
0.0
  0
ARC
  5
25B
330
1F
100
AcDbEntity
  8
0
  6
Continuous
 62
     7
370
    15
100
AcDbCircle
 10
22.3222026646
 20
36.9563160654
 30
0.0
 40
0.0787401574803113
100
AcDbArc
 50
0.0
 51
90.0
  0
LINE
  5
25C
330
1F
100
AcDbEntity
  8
0
  6
Continuous
 62
     7
370
    15
100
AcDbLine
 10
21.8103917337
 20
37.035056223
 30
0.0
 11
22.3222027144
 21
37.035056223
 31
0.0
  0
ARC
  5
25D
330
1F
100
AcDbEntity
  8
0
  6
Continuous
 62
     7
370
    15
100
AcDbCircle
 10
21.810391641
 20
35.9720640969
 30
0.0
 40
0.0787401574803184
100
AcDbArc
 50
90.0
 51
180.0
  0
LINE
  5
25E
330
1F
100
AcDbEntity
  8
0
  6
Continuous
 62
     7
370
    15
100
AcDbLine
 10
21.7316515321
 20
35.460253072
 30
0.0
 11
21.7316515321
 21
35.9720640695
 31
0.0
  0
ARC
  5
25F
330
1F
100
AcDbEntity
  8
0
  6
Continuous
 62
     7
370
    15
100
AcDbCircle
 10
21.810391641
 20
35.4602530733
 30
0.0
 40
0.0787401574803184
100
AcDbArc
 50
180.0
 51
270.0
  0
LINE
  5
260
330
1F
100
AcDbEntity
  8
0
  6
Continuous
 62
     7
370
    15
100
AcDbLine
 10
22.3222027144
 20
35.3815129199
 30
0.0
 11
21.8103917337
 21
35.3815129199
 31
0.0
  0
ARC
  5
261
330
1F
100
AcDbEntity
  8
0
  6
Continuous
 62
     7
370
    15
100
AcDbCircle
 10
22.3222026646
 20
35.4602530733
 30
0.0
 40
0.0787401574803113
100
AcDbArc
 50
270.0
 51
0.0
  0
LINE
  5
262
330
1F
100
AcDbEntity
  8
0
  6
Continuous
 62
     7
370
    15
100
AcDbLine
 10
22.4009428547
 20
35.9720640695
 30
0.0
 11
22.4009428547
 21
35.460253072
 31
0.0
  0
ARC
  5
263
330
1F
100
AcDbEntity
  8
0
  6
Continuous
 62
     7
370
    15
100
AcDbCircle
 10
22.3222026646
 20
35.9720640969
 30
0.0
 40
0.0787401574803113
100
AcDbArc
 50
0.0
 51
90.0
  0
LINE
  5
264
330
1F
100
AcDbEntity
  8
0
  6
Continuous
 62
     7
370
    15
100
AcDbLine
 10
21.8103917337
 20
36.0508042399
 30
0.0
 11
22.3222027144
 21
36.0508042399
 31
0.0
  0
ARC
  5
265
330
1F
100
AcDbEntity
  8
0
  6
Continuous
 62
     7
370
    15
100
AcDbCircle
 10
21.810391641
 20
34.9878121284
 30
0.0
 40
0.0787401574803184
100
AcDbArc
 50
90.0
 51
180.0
  0
LINE
  5
266
330
1F
100
AcDbEntity
  8
0
  6
Continuous
 62
     7
370
    15
100
AcDbLine
 10
21.7316515321
 20
34.4760011255
 30
0.0
 11
21.7316515321
 21
34.987812123
 31
0.0
  0
ARC
  5
267
330
1F
100
AcDbEntity
  8
0
  6
Continuous
 62
     7
370
    15
100
AcDbCircle
 10
21.810391641
 20
34.4760011048
 30
0.0
 40
0.0787401574803184
100
AcDbArc
 50
180.0
 51
270.0
  0
LINE
  5
268
330
1F
100
AcDbEntity
  8
0
  6
Continuous
 62
     7
370
    15
100
AcDbLine
 10
22.3222027144
 20
34.3972609551
 30
0.0
 11
21.8103917337
 21
34.3972609551
 31
0.0
  0
ARC
  5
269
330
1F
100
AcDbEntity
  8
0
  6
Continuous
 62
     7
370
    15
100
AcDbCircle
 10
22.3222026646
 20
34.4760011048
 30
0.0
 40
0.0787401574803113
100
AcDbArc
 50
270.0
 51
0.0
  0
LINE
  5
26A
330
1F
100
AcDbEntity
  8
0
  6
Continuous
 62
     7
370
    15
100
AcDbLine
 10
22.4009428547
 20
34.987812123
 30
0.0
 11
22.4009428547
 21
34.4760011255
 31
0.0
  0
ARC
  5
26B
330
1F
100
AcDbEntity
  8
0
  6
Continuous
 62
     7
370
    15
100
AcDbCircle
 10
22.3222026646
 20
34.9878121284
 30
0.0
 40
0.0787401574803184
100
AcDbArc
 50
0.0
 51
90.0
  0
LINE
  5
26C
330
1F
100
AcDbEntity
  8
0
  6
Continuous
 62
     7
370
    15
100
AcDbLine
 10
21.8103917337
 20
35.0665522934
 30
0.0
 11
22.3222027144
 21
35.0665522934
 31
0.0
  0
ARC
  5
26D
330
1F
100
AcDbEntity
  8
0
  6
Continuous
 62
     7
370
    15
100
AcDbCircle
 10
21.810391641
 20
34.0035601599
 30
0.0
 40
0.0787401574803184
100
AcDbArc
 50
90.0
 51
180.0
  0
LINE
  5
26E
330
1F
100
AcDbEntity
  8
0
  6
Continuous
 62
     7
370
    15
100
AcDbLine
 10
21.7316515321
 20
33.4917491423
 30
0.0
 11
21.7316515321
 21
34.0035601765
 31
0.0
  0
ARC
  5
26F
330
1F
100
AcDbEntity
  8
0
  6
Continuous
 62
     7
370
    15
100
AcDbCircle
 10
21.810391641
 20
33.4917491363
 30
0.0
 40
0.0787401574803184
100
AcDbArc
 50
180.0
 51
270.0
  0
LINE
  5
270
330
1F
100
AcDbEntity
  8
0
  6
Continuous
 62
     7
370
    15
100
AcDbLine
 10
22.3222027144
 20
33.4130089719
 30
0.0
 11
21.8103917337
 21
33.4130089719
 31
0.0
  0
ARC
  5
271
330
1F
100
AcDbEntity
  8
0
  6
Continuous
 62
     7
370
    15
100
AcDbCircle
 10
22.3222026646
 20
33.4917491363
 30
0.0
 40
0.0787401574803113
100
AcDbArc
 50
270.0
 51
0.0
  0
LINE
  5
272
330
1F
100
AcDbEntity
  8
0
  6
Continuous
 62
     7
370
    15
100
AcDbLine
 10
22.4009428547
 20
34.0035601765
 30
0.0
 11
22.4009428547
 21
33.4917491423
 31
0.0
  0
ARC
  5
273
330
1F
100
AcDbEntity
  8
0
  6
Continuous
 62
     7
370
    15
100
AcDbCircle
 10
22.3222026646
 20
34.0035601599
 30
0.0
 40
0.0787401574803184
100
AcDbArc
 50
0.0
 51
90.0
  0
LINE
  5
274
330
1F
100
AcDbEntity
  8
0
  6
Continuous
 62
     7
370
    15
100
AcDbLine
 10
21.8103917337
 20
34.0823003469
 30
0.0
 11
22.3222027144
 21
34.0823003469
 31
0.0
  0
ARC
  5
275
330
1F
100
AcDbEntity
  8
0
  6
Continuous
 62
     7
370
    15
100
AcDbCircle
 10
21.810391641
 20
33.0193081914
 30
0.0
 40
0.0787401574803184
100
AcDbArc
 50
90.0
 51
180.0
  0
LINE
  5
276
330
1F
100
AcDbEntity
  8
0
  6
Continuous
 62
     7
370
    15
100
AcDbLine
 10
21.7316515321
 20
32.5074972324
 30
0.0
 11
21.7316515321
 21
33.01930812
 31
0.0
  0
ARC
  5
277
330
1F
100
AcDbEntity
  8
0
  6
Continuous
 62
     7
370
    15
100
AcDbCircle
 10
21.810391641
 20
32.5074971678
 30
0.0
 40
0.0787401574803184
100
AcDbArc
 50
180.0
 51
270.0
  0
LINE
  5
278
330
1F
100
AcDbEntity
  8
0
  6
Continuous
 62
     7
370
    15
100
AcDbLine
 10
22.3222027144
 20
32.4287569154
 30
0.0
 11
21.8103917337
 21
32.4287569154
 31
0.0
  0
ARC
  5
279
330
1F
100
AcDbEntity
  8
0
  6
Continuous
 62
     7
370
    15
100
AcDbCircle
 10
22.3222026646
 20
32.5074971678
 30
0.0
 40
0.0787401574803184
100
AcDbArc
 50
270.0
 51
0.0
  0
LINE
  5
27A
330
1F
100
AcDbEntity
  8
0
  6
Continuous
 62
     7
370
    15
100
AcDbLine
 10
22.4009428547
 20
33.01930812
 30
0.0
 11
22.4009428547
 21
32.5074972324
 31
0.0
  0
ARC
  5
27B
330
1F
100
AcDbEntity
  8
0
  6
Continuous
 62
     7
370
    15
100
AcDbCircle
 10
22.3222026646
 20
33.0193081914
 30
0.0
 40
0.0787401574803113
100
AcDbArc
 50
0.0
 51
90.0
  0
LINE
  5
27C
330
1F
100
AcDbEntity
  8
0
  6
Continuous
 62
     7
370
    15
100
AcDbLine
 10
21.8103917337
 20
33.0980482903
 30
0.0
 11
22.3222027144
 21
33.0980482903
 31
0.0
  0
ARC
  5
27D
330
1F
100
AcDbEntity
  8
0
  6
Continuous
 62
     7
370
    15
100
AcDbCircle
 10
22.7946436095
 20
38.9248200024
 30
0.0
 40
0.0787401574803113
100
AcDbArc
 50
90.0
 51
180.0
  0
LINE
  5
27E
330
1F
100
AcDbEntity
  8
0
  6
Continuous
 62
     7
370
    15
100
AcDbLine
 10
22.7159035999
 20
38.4130089848
 30
0.0
 11
22.7159035999
 21
38.9248198723
 31
0.0
  0
ARC
  5
27F
330
1F
100
AcDbEntity
  8
0
  6
Continuous
 62
     7
370
    15
100
AcDbCircle
 10
22.7946436095
 20
38.4130089788
 30
0.0
 40
0.0787401574803113
100
AcDbArc
 50
180.0
 51
270.0
  0
LINE
  5
280
330
1F
100
AcDbEntity
  8
0
  6
Continuous
 62
     7
370
    15
100
AcDbLine
 10
23.3064547208
 20
38.3342689611
 30
0.0
 11
22.7946437401
 21
38.3342689611
 31
0.0
  0
ARC
  5
281
330
1F
100
AcDbEntity
  8
0
  6
Continuous
 62
     7
370
    15
100
AcDbCircle
 10
23.3064546331
 20
38.4130089788
 30
0.0
 40
0.0787401574803113
100
AcDbArc
 50
270.0
 51
0.0
  0
LINE
  5
282
330
1F
100
AcDbEntity
  8
0
  6
Continuous
 62
     7
370
    15
100
AcDbLine
 10
23.3851949225
 20
38.9248198723
 30
0.0
 11
23.3851949225
 21
38.4130089848
 31
0.0
  0
ARC
  5
283
330
1F
100
AcDbEntity
  8
0
  6
Continuous
 62
     7
370
    15
100
AcDbCircle
 10
23.3064546331
 20
38.9248200024
 30
0.0
 40
0.0787401574803113
100
AcDbArc
 50
0.0
 51
90.0
  0
LINE
  5
284
330
1F
100
AcDbEntity
  8
0
  6
Continuous
 62
     7
370
    15
100
AcDbLine
 10
22.7946437401
 20
39.0035601894
 30
0.0
 11
23.3064547208
 21
39.0035601894
 31
0.0
  0
ARC
  5
285
330
1F
100
AcDbEntity
  8
0
  6
Continuous
 62
     7
370
    15
100
AcDbCircle
 10
22.7946436095
 20
37.9405680339
 30
0.0
 40
0.0787401574803113
100
AcDbArc
 50
90.0
 51
180.0
  0
LINE
  5
286
330
1F
100
AcDbEntity
  8
0
  6
Continuous
 62
     7
370
    15
100
AcDbLine
 10
22.7159035999
 20
37.428757075
 30
0.0
 11
22.7159035999
 21
37.9405679625
 31
0.0
  0
ARC
  5
287
330
1F
100
AcDbEntity
  8
0
  6
Continuous
 62
     7
370
    15
100
AcDbCircle
 10
22.7946436095
 20
37.4287570103
 30
0.0
 40
0.0787401574803184
100
AcDbArc
 50
180.0
 51
270.0
  0
LINE
  5
288
330
1F
100
AcDbEntity
  8
0
  6
Continuous
 62
     7
370
    15
100
AcDbLine
 10
23.3064547208
 20
37.3500169046
 30
0.0
 11
22.7946437401
 21
37.3500169046
 31
0.0
  0
ARC
  5
289
330
1F
100
AcDbEntity
  8
0
  6
Continuous
 62
     7
370
    15
100
AcDbCircle
 10
23.3064546331
 20
37.4287570103
 30
0.0
 40
0.0787401574803184
100
AcDbArc
 50
270.0
 51
0.0
  0
LINE
  5
28A
330
1F
100
AcDbEntity
  8
0
  6
Continuous
 62
     7
370
    15
100
AcDbLine
 10
23.3851949225
 20
37.9405679625
 30
0.0
 11
23.3851949225
 21
37.428757075
 31
0.0
  0
ARC
  5
28B
330
1F
100
AcDbEntity
  8
0
  6
Continuous
 62
     7
370
    15
100
AcDbCircle
 10
23.3064546331
 20
37.9405680339
 30
0.0
 40
0.0787401574803113
100
AcDbArc
 50
0.0
 51
90.0
  0
LINE
  5
28C
330
1F
100
AcDbEntity
  8
0
  6
Continuous
 62
     7
370
    15
100
AcDbLine
 10
22.7946437401
 20
38.0193082795
 30
0.0
 11
23.3064547208
 21
38.0193082795
 31
0.0
  0
ARC
  5
28D
330
1F
100
AcDbEntity
  8
0
  6
Continuous
 62
     7
370
    15
100
AcDbCircle
 10
22.7946436095
 20
36.9563160654
 30
0.0
 40
0.0787401574803113
100
AcDbArc
 50
90.0
 51
180.0
  0
LINE
  5
28E
330
1F
100
AcDbEntity
  8
0
  6
Continuous
 62
     7
370
    15
100
AcDbLine
 10
22.7159035999
 20
36.4445050185
 30
0.0
 11
22.7159035999
 21
36.9563160526
 31
0.0
  0
ARC
  5
28F
330
1F
100
AcDbEntity
  8
0
  6
Continuous
 62
     7
370
    15
100
AcDbCircle
 10
22.7946436095
 20
36.4445050418
 30
0.0
 40
0.0787401574803113
100
AcDbArc
 50
180.0
 51
270.0
  0
LINE
  5
290
330
1F
100
AcDbEntity
  8
0
  6
Continuous
 62
     7
370
    15
100
AcDbLine
 10
23.3064547208
 20
36.3657648481
 30
0.0
 11
22.7946437401
 21
36.3657648481
 31
0.0
  0
ARC
  5
291
330
1F
100
AcDbEntity
  8
0
  6
Continuous
 62
     7
370
    15
100
AcDbCircle
 10
23.3064546331
 20
36.4445050418
 30
0.0
 40
0.0787401574803113
100
AcDbArc
 50
270.0
 51
0.0
  0
LINE
  5
292
330
1F
100
AcDbEntity
  8
0
  6
Continuous
 62
     7
370
    15
100
AcDbLine
 10
23.3851949225
 20
36.9563160526
 30
0.0
 11
23.3851949225
 21
36.4445050185
 31
0.0
  0
ARC
  5
293
330
1F
100
AcDbEntity
  8
0
  6
Continuous
 62
     7
370
    15
100
AcDbCircle
 10
23.3064546331
 20
36.9563160654
 30
0.0
 40
0.0787401574803113
100
AcDbArc
 50
0.0
 51
90.0
  0
LINE
  5
294
330
1F
100
AcDbEntity
  8
0
  6
Continuous
 62
     7
370
    15
100
AcDbLine
 10
22.7946437401
 20
37.035056223
 30
0.0
 11
23.3064547208
 21
37.035056223
 31
0.0
  0
ARC
  5
295
330
1F
100
AcDbEntity
  8
0
  6
Continuous
 62
     7
370
    15
100
AcDbCircle
 10
22.7946436095
 20
35.9720640969
 30
0.0
 40
0.0787401574803184
100
AcDbArc
 50
90.0
 51
180.0
  0
LINE
  5
296
330
1F
100
AcDbEntity
  8
0
  6
Continuous
 62
     7
370
    15
100
AcDbLine
 10
22.7159035999
 20
35.460253072
 30
0.0
 11
22.7159035999
 21
35.9720640695
 31
0.0
  0
ARC
  5
297
330
1F
100
AcDbEntity
  8
0
  6
Continuous
 62
     7
370
    15
100
AcDbCircle
 10
22.7946436095
 20
35.4602530733
 30
0.0
 40
0.0787401574803184
100
AcDbArc
 50
180.0
 51
270.0
  0
LINE
  5
298
330
1F
100
AcDbEntity
  8
0
  6
Continuous
 62
     7
370
    15
100
AcDbLine
 10
23.3064547208
 20
35.3815129199
 30
0.0
 11
22.7946437401
 21
35.3815129199
 31
0.0
  0
ARC
  5
299
330
1F
100
AcDbEntity
  8
0
  6
Continuous
 62
     7
370
    15
100
AcDbCircle
 10
23.3064546331
 20
35.4602530733
 30
0.0
 40
0.0787401574803184
100
AcDbArc
 50
270.0
 51
0.0
  0
LINE
  5
29A
330
1F
100
AcDbEntity
  8
0
  6
Continuous
 62
     7
370
    15
100
AcDbLine
 10
23.3851949225
 20
35.9720640695
 30
0.0
 11
23.3851949225
 21
35.460253072
 31
0.0
  0
ARC
  5
29B
330
1F
100
AcDbEntity
  8
0
  6
Continuous
 62
     7
370
    15
100
AcDbCircle
 10
23.3064546331
 20
35.9720640969
 30
0.0
 40
0.0787401574803184
100
AcDbArc
 50
0.0
 51
90.0
  0
LINE
  5
29C
330
1F
100
AcDbEntity
  8
0
  6
Continuous
 62
     7
370
    15
100
AcDbLine
 10
22.7946437401
 20
36.0508042399
 30
0.0
 11
23.3064547208
 21
36.0508042399
 31
0.0
  0
ARC
  5
29D
330
1F
100
AcDbEntity
  8
0
  6
Continuous
 62
     7
370
    15
100
AcDbCircle
 10
22.7946436095
 20
34.9878121284
 30
0.0
 40
0.0787401574803184
100
AcDbArc
 50
90.0
 51
180.0
  0
LINE
  5
29E
330
1F
100
AcDbEntity
  8
0
  6
Continuous
 62
     7
370
    15
100
AcDbLine
 10
22.7159035999
 20
34.4760011255
 30
0.0
 11
22.7159035999
 21
34.987812123
 31
0.0
  0
ARC
  5
29F
330
1F
100
AcDbEntity
  8
0
  6
Continuous
 62
     7
370
    15
100
AcDbCircle
 10
22.7946436095
 20
34.4760011048
 30
0.0
 40
0.0787401574803113
100
AcDbArc
 50
180.0
 51
270.0
  0
LINE
  5
2A0
330
1F
100
AcDbEntity
  8
0
  6
Continuous
 62
     7
370
    15
100
AcDbLine
 10
23.3064547208
 20
34.3972609551
 30
0.0
 11
22.7946437401
 21
34.3972609551
 31
0.0
  0
ARC
  5
2A1
330
1F
100
AcDbEntity
  8
0
  6
Continuous
 62
     7
370
    15
100
AcDbCircle
 10
23.3064546331
 20
34.4760011048
 30
0.0
 40
0.0787401574803113
100
AcDbArc
 50
270.0
 51
0.0
  0
LINE
  5
2A2
330
1F
100
AcDbEntity
  8
0
  6
Continuous
 62
     7
370
    15
100
AcDbLine
 10
23.3851949225
 20
34.987812123
 30
0.0
 11
23.3851949225
 21
34.4760011255
 31
0.0
  0
ARC
  5
2A3
330
1F
100
AcDbEntity
  8
0
  6
Continuous
 62
     7
370
    15
100
AcDbCircle
 10
23.3064546331
 20
34.9878121284
 30
0.0
 40
0.0787401574803184
100
AcDbArc
 50
0.0
 51
90.0
  0
LINE
  5
2A4
330
1F
100
AcDbEntity
  8
0
  6
Continuous
 62
     7
370
    15
100
AcDbLine
 10
22.7946437401
 20
35.0665522934
 30
0.0
 11
23.3064547208
 21
35.0665522934
 31
0.0
  0
ARC
  5
2A5
330
1F
100
AcDbEntity
  8
0
  6
Continuous
 62
     7
370
    15
100
AcDbCircle
 10
22.7946436095
 20
34.0035601599
 30
0.0
 40
0.0787401574803113
100
AcDbArc
 50
90.0
 51
180.0
  0
LINE
  5
2A6
330
1F
100
AcDbEntity
  8
0
  6
Continuous
 62
     7
370
    15
100
AcDbLine
 10
22.7159035999
 20
33.4917491423
 30
0.0
 11
22.7159035999
 21
34.0035601765
 31
0.0
  0
ARC
  5
2A7
330
1F
100
AcDbEntity
  8
0
  6
Continuous
 62
     7
370
    15
100
AcDbCircle
 10
22.7946436095
 20
33.4917491363
 30
0.0
 40
0.0787401574803113
100
AcDbArc
 50
180.0
 51
270.0
  0
LINE
  5
2A8
330
1F
100
AcDbEntity
  8
0
  6
Continuous
 62
     7
370
    15
100
AcDbLine
 10
23.3064547208
 20
33.4130089719
 30
0.0
 11
22.7946437401
 21
33.4130089719
 31
0.0
  0
ARC
  5
2A9
330
1F
100
AcDbEntity
  8
0
  6
Continuous
 62
     7
370
    15
100
AcDbCircle
 10
23.3064546331
 20
33.4917491363
 30
0.0
 40
0.0787401574803113
100
AcDbArc
 50
270.0
 51
0.0
  0
LINE
  5
2AA
330
1F
100
AcDbEntity
  8
0
  6
Continuous
 62
     7
370
    15
100
AcDbLine
 10
23.3851949225
 20
34.0035601765
 30
0.0
 11
23.3851949225
 21
33.4917491423
 31
0.0
  0
ARC
  5
2AB
330
1F
100
AcDbEntity
  8
0
  6
Continuous
 62
     7
370
    15
100
AcDbCircle
 10
23.3064546331
 20
34.0035601599
 30
0.0
 40
0.0787401574803113
100
AcDbArc
 50
0.0
 51
90.0
  0
LINE
  5
2AC
330
1F
100
AcDbEntity
  8
0
  6
Continuous
 62
     7
370
    15
100
AcDbLine
 10
22.7946437401
 20
34.0823003469
 30
0.0
 11
23.3064547208
 21
34.0823003469
 31
0.0
  0
ARC
  5
2AD
330
1F
100
AcDbEntity
  8
0
  6
Continuous
 62
     7
370
    15
100
AcDbCircle
 10
22.7946436095
 20
33.0193081914
 30
0.0
 40
0.0787401574803113
100
AcDbArc
 50
90.0
 51
180.0
  0
LINE
  5
2AE
330
1F
100
AcDbEntity
  8
0
  6
Continuous
 62
     7
370
    15
100
AcDbLine
 10
22.7159035999
 20
32.5074972324
 30
0.0
 11
22.7159035999
 21
33.01930812
 31
0.0
  0
ARC
  5
2AF
330
1F
100
AcDbEntity
  8
0
  6
Continuous
 62
     7
370
    15
100
AcDbCircle
 10
22.7946436095
 20
32.5074971678
 30
0.0
 40
0.0787401574803113
100
AcDbArc
 50
180.0
 51
270.0
  0
LINE
  5
2B0
330
1F
100
AcDbEntity
  8
0
  6
Continuous
 62
     7
370
    15
100
AcDbLine
 10
23.3064547208
 20
32.4287569154
 30
0.0
 11
22.7946437401
 21
32.4287569154
 31
0.0
  0
ARC
  5
2B1
330
1F
100
AcDbEntity
  8
0
  6
Continuous
 62
     7
370
    15
100
AcDbCircle
 10
23.3064546331
 20
32.5074971678
 30
0.0
 40
0.0787401574803113
100
AcDbArc
 50
270.0
 51
0.0
  0
LINE
  5
2B2
330
1F
100
AcDbEntity
  8
0
  6
Continuous
 62
     7
370
    15
100
AcDbLine
 10
23.3851949225
 20
33.01930812
 30
0.0
 11
23.3851949225
 21
32.5074972324
 31
0.0
  0
ARC
  5
2B3
330
1F
100
AcDbEntity
  8
0
  6
Continuous
 62
     7
370
    15
100
AcDbCircle
 10
23.3064546331
 20
33.0193081914
 30
0.0
 40
0.0787401574803113
100
AcDbArc
 50
0.0
 51
90.0
  0
LINE
  5
2B4
330
1F
100
AcDbEntity
  8
0
  6
Continuous
 62
     7
370
    15
100
AcDbLine
 10
22.7946437401
 20
33.0980482903
 30
0.0
 11
23.3064547208
 21
33.0980482903
 31
0.0
  0
ARC
  5
2B5
330
1F
100
AcDbEntity
  8
0
  6
Continuous
 62
     7
370
    15
100
AcDbCircle
 10
22.7946436095
 20
32.0350562229
 30
0.0
 40
0.0787401574803184
100
AcDbArc
 50
90.0
 51
180.0
  0
LINE
  5
2B6
330
1F
100
AcDbEntity
  8
0
  6
Continuous
 62
     7
370
    15
100
AcDbLine
 10
22.7159035999
 20
31.5232453226
 30
0.0
 11
22.7159035999
 21
32.0350562101
 31
0.0
  0
ARC
  5
2B7
330
1F
100
AcDbEntity
  8
0
  6
Continuous
 62
     7
370
    15
100
AcDbCircle
 10
22.7946436095
 20
31.5232451993
 30
0.0
 40
0.0787401574803113
100
AcDbArc
 50
180.0
 51
270.0
  0
LINE
  5
2B8
330
1F
100
AcDbEntity
  8
0
  6
Continuous
 62
     7
370
    15
100
AcDbLine
 10
23.3064547208
 20
31.4445050056
 30
0.0
 11
22.7946437401
 21
31.4445050056
 31
0.0
  0
ARC
  5
2B9
330
1F
100
AcDbEntity
  8
0
  6
Continuous
 62
     7
370
    15
100
AcDbCircle
 10
23.3064546331
 20
31.5232451993
 30
0.0
 40
0.0787401574803148
100
AcDbArc
 50
270.0
 51
0.0
  0
LINE
  5
2BA
330
1F
100
AcDbEntity
  8
0
  6
Continuous
 62
     7
370
    15
100
AcDbLine
 10
23.3851949225
 20
32.0350562101
 30
0.0
 11
23.3851949225
 21
31.5232453226
 31
0.0
  0
ARC
  5
2BB
330
1F
100
AcDbEntity
  8
0
  6
Continuous
 62
     7
370
    15
100
AcDbCircle
 10
23.3064546331
 20
32.0350562229
 30
0.0
 40
0.0787401574803184
100
AcDbArc
 50
0.0
 51
90.0
  0
LINE
  5
2BC
330
1F
100
AcDbEntity
  8
0
  6
Continuous
 62
     7
370
    15
100
AcDbLine
 10
22.7946437401
 20
32.1137962338
 30
0.0
 11
23.3064547208
 21
32.1137962338
 31
0.0
  0
CIRCLE
  5
2BD
330
1F
100
AcDbEntity
  8
0
  6
Continuous
 62
     7
370
    15
100
AcDbCircle
 10
19.7084272951
 20
31.383624366
 30
0.0
 40
0.0549999999999997
  0
CIRCLE
  5
2BE
330
1F
100
AcDbEntity
  8
0
  6
Continuous
 62
     7
370
    15
100
AcDbCircle
 10
19.7082114069
 20
35.3206322341
 30
0.0
 40
0.0549999999999997
  0
CIRCLE
  5
2BF
330
1F
100
AcDbEntity
  8
0
  6
Continuous
 62
     7
370
    15
100
AcDbCircle
 10
19.7080063131
 20
39.0607897088
 30
0.0
 40
0.0549999999999997
  0
CIRCLE
  5
2C0
330
1F
100
AcDbEntity
  8
0
  6
Continuous
 62
     7
370
    15
100
AcDbCircle
 10
19.7087853238
 20
35.1220998227
 30
0.0
 40
0.0549999999999997
  0
CIRCLE
  5
2C1
330
1F
100
AcDbEntity
  8
0
  6
Continuous
 62
     7
370
    15
100
AcDbCircle
 10
19.5117298366
 20
31.3819531424
 30
0.0
 40
0.0550000000000033
  0
CIRCLE
  5
2C2
330
1F
100
AcDbEntity
  8
0
  6
Continuous
 62
     7
370
    15
100
AcDbCircle
 10
19.5113610135
 20
35.3206214397
 30
0.0
 40
0.0549999999999997
  0
CIRCLE
  5
2C3
330
1F
100
AcDbEntity
  8
0
  6
Continuous
 62
     7
370
    15
100
AcDbCircle
 10
19.5111559197
 20
39.0607789144
 30
0.0
 40
0.0549999999999997
  0
CIRCLE
  5
2C4
330
1F
100
AcDbEntity
  8
0
  6
Continuous
 62
     7
370
    15
100
AcDbCircle
 10
19.5113718079
 20
35.1237710463
 30
0.0
 40
0.0549999999999997
  0
CIRCLE
  5
2C5
330
1F
100
AcDbEntity
  8
0
  6
Continuous
 62
     7
370
    15
100
AcDbCircle
 10
15.7712143332
 20
35.1235659525
 30
0.0
 40
0.0549999999999997
  0
CIRCLE
  5
2C6
330
1F
100
AcDbEntity
  8
0
  6
Continuous
 62
     7
370
    15
100
AcDbCircle
 10
23.448379676
 20
35.1239869345
 30
0.0
 40
0.0549999999999997
  0
CIRCLE
  5
2C7
330
1F
100
AcDbEntity
  8
0
  6
Continuous
 62
     7
370
    15
100
AcDbCircle
 10
23.4481637878
 20
39.0609948026
 30
0.0
 40
0.0549999999999997
  0
CIRCLE
  5
2C8
330
1F
100
AcDbEntity
  8
0
  6
Continuous
 62
     7
370
    15
100
AcDbCircle
 10
15.7712035388
 20
35.3204163459
 30
0.0
 40
0.0549999999999962
  0
CIRCLE
  5
2C9
330
1F
100
AcDbEntity
  8
0
  6
Continuous
 62
     7
370
    15
100
AcDbCircle
 10
23.4485847698
 20
31.3838294598
 30
0.0
 40
0.0549999999999997
  0
CIRCLE
  5
2CA
330
1F
100
AcDbEntity
  8
0
  6
Continuous
 62
     7
370
    15
100
AcDbCircle
 10
15.770998445
 20
39.0605738206
 30
0.0
 40
0.0549999999999962
  0
CIRCLE
  5
2CB
330
1F
100
AcDbEntity
  8
0
  6
Continuous
 62
     7
370
    15
100
AcDbCircle
 10
23.4483688816
 20
35.3208373279
 30
0.0
 40
0.0549999999999997
  0
CIRCLE
  5
2CC
330
1F
100
AcDbEntity
  8
0
  6
Continuous
 62
     7
370
    15
100
AcDbCircle
 10
15.7714195074
 20
31.381942348
 30
0.0
 40
0.0549999999999997
  0
ENDSEC
  0
SECTION
  2
OBJECTS
  0
DICTIONARY
  5
C
330
0
100
AcDbDictionary
281
     1
  3
ACAD_GROUP
350
D
  3
ACAD_LAYOUT
350
1A
  3
ACAD_MLINESTYLE
350
17
  3
ACAD_PLOTSETTINGS
350
19
  3
ACAD_PLOTSTYLENAME
350
E
  3
ACAD_SCALELIST
350
47
  0
DICTIONARY
  5
D
102
{ACAD_REACTORS
330
C
102
}
330
C
100
AcDbDictionary
281
     1
  0
DICTIONARY
  5
1A
102
{ACAD_REACTORS
330
C
102
}
330
C
100
AcDbDictionary
281
     1
  3
Layout1
350
1E
  3
Layout2
350
26
  3
Model
350
22
  0
DICTIONARY
  5
17
102
{ACAD_REACTORS
330
C
102
}
330
C
100
AcDbDictionary
281
     1
  3
Standard
350
18
  0
DICTIONARY
  5
19
102
{ACAD_REACTORS
330
C
102
}
330
C
100
AcDbDictionary
281
     1
  0
ACDBDICTIONARYWDFLT
  5
E
102
{ACAD_REACTORS
330
C
102
}
330
C
100
AcDbDictionary
281
     1
  3
Normal
350
F
100
AcDbDictionaryWithDefault
340
F
  0
DICTIONARY
  5
47
102
{ACAD_REACTORS
330
C
102
}
330
C
100
AcDbDictionary
281
     1
  3
A0
350
48
  3
A1
350
49
  3
A2
350
4A
  3
A3
350
4B
  3
A4
350
4C
  3
A5
350
4D
  3
A6
350
4E
  3
A7
350
4F
  3
A8
350
50
  3
A9
350
51
  3
B0
350
52
  3
B1
350
53
  3
B2
350
54
  3
B3
350
55
  3
B4
350
56
  3
B5
350
57
  3
B6
350
58
  3
B7
350
59
  3
B8
350
5A
  3
B9
350
5B
  3
C0
350
5C
  3
C1
350
5D
  3
C2
350
5E
  3
C3
350
5F
  3
C4
350
60
  3
C5
350
61
  3
C6
350
62
  3
C7
350
63
  3
C8
350
64
  3
C9
350
65
  3
D0
350
66
  3
D1
350
67
  3
D2
350
68
  0
LAYOUT
  5
1E
102
{ACAD_REACTORS
330
1A
102
}
330
1A
100
AcDbPlotSettings
  1

  2
none_device
  4

  6

 40
0.0
 41
0.0
 42
0.0
 43
0.0
 44
0.0
 45
0.0
 46
0.0
 47
0.0
 48
0.0
 49
0.0
140
0.0
141
0.0
142
1.0
143
1.0
 70
   688
 72
     0
 73
     0
 74
     5
  7

 75
    16
147
1.0
148
0.0
149
0.0
100
AcDbLayout
  1
Layout1
 70
     1
 71
     1
 10
0.0
 20
0.0
 11
12.0
 21
9.0
 12
0.0
 22
0.0
 32
0.0
 14
1.0000000000E+20
 24
1.0000000000E+20
 34
1.0000000000E+20
 15
-1.0000000000E+20
 25
-1.0000000000E+20
 35
-1.0000000000E+20
146
0.0
 13
0.0
 23
0.0
 33
0.0
 16
1.0
 26
0.0
 36
0.0
 17
0.0
 27
1.0
 37
0.0
 76
     0
330
1B
  0
LAYOUT
  5
26
102
{ACAD_REACTORS
330
1A
102
}
330
1A
100
AcDbPlotSettings
  1

  2
none_device
  4

  6

 40
0.0
 41
0.0
 42
0.0
 43
0.0
 44
0.0
 45
0.0
 46
0.0
 47
0.0
 48
0.0
 49
0.0
140
0.0
141
0.0
142
1.0
143
1.0
 70
   688
 72
     0
 73
     0
 74
     5
  7

 75
    16
147
1.0
148
0.0
149
0.0
100
AcDbLayout
  1
Layout2
 70
     1
 71
     2
 10
0.0
 20
0.0
 11
0.0
 21
0.0
 12
0.0
 22
0.0
 32
0.0
 14
0.0
 24
0.0
 34
0.0
 15
0.0
 25
0.0
 35
0.0
146
0.0
 13
0.0
 23
0.0
 33
0.0
 16
1.0
 26
0.0
 36
0.0
 17
0.0
 27
1.0
 37
0.0
 76
     0
330
23
  0
LAYOUT
  5
22
102
{ACAD_REACTORS
330
1A
102
}
330
1A
100
AcDbPlotSettings
  1

  2
none_device
  4
Letter_(8.50_x_11.00_Inches)
  6

 40
6.35
 41
6.35
 42
6.35000508
 43
6.35000508
 44
215.9
 45
279.4
 46
0.0
 47
0.0
 48
0.0
 49
0.0
140
0.0
141
0.0
142
1.0
143
1.0
 70
  1712
 72
     0
 73
     0
 74
     0
  7

 75
     0
147
1.0
148
0.0
149
0.0
100
AcDbLayout
  1
Model
 70
     1
 71
     0
 10
0.0
 20
0.0
 11
41.3385826772
 21
58.4645669291
 12
0.0
 22
0.0
 32
0.0
 14
0.0
 24
0.0
 34
0.0
 15
41.3385826772
 25
58.4645669291
 35
0.0
146
0.0
 13
0.0
 23
0.0
 33
0.0
 16
1.0
 26
0.0
 36
0.0
 17
0.0
 27
1.0
 37
0.0
 76
     0
330
1F
331
29
  0
MLINESTYLE
  5
18
102
{ACAD_REACTORS
330
17
102
}
330
17
100
AcDbMlineStyle
  2
Standard
 70
     0
  3

 62
   256
 51
90.0
 52
90.0
 71
     2
 49
0.5
 62
   256
  6
BYLAYER
 49
-0.5
 62
   256
  6
BYLAYER
  0
ACDBPLACEHOLDER
  5
F
102
{ACAD_REACTORS
330
E
102
}
330
E
  0
SCALE
  5
48
102
{ACAD_REACTORS
330
47
102
}
330
47
100
AcDbScale
 70
     0
300
1:1
140
1.0
141
1.0
290
     1
  0
SCALE
  5
49
102
{ACAD_REACTORS
330
47
102
}
330
47
100
AcDbScale
 70
     0
300
1:2
140
1.0
141
2.0
290
     0
  0
SCALE
  5
4A
102
{ACAD_REACTORS
330
47
102
}
330
47
100
AcDbScale
 70
     0
300
1:4
140
1.0
141
4.0
290
     0
  0
SCALE
  5
4B
102
{ACAD_REACTORS
330
47
102
}
330
47
100
AcDbScale
 70
     0
300
1:5
140
1.0
141
5.0
290
     0
  0
SCALE
  5
4C
102
{ACAD_REACTORS
330
47
102
}
330
47
100
AcDbScale
 70
     0
300
1:8
140
1.0
141
8.0
290
     0
  0
SCALE
  5
4D
102
{ACAD_REACTORS
330
47
102
}
330
47
100
AcDbScale
 70
     0
300
1:10
140
1.0
141
10.0
290
     0
  0
SCALE
  5
4E
102
{ACAD_REACTORS
330
47
102
}
330
47
100
AcDbScale
 70
     0
300
1:16
140
1.0
141
16.0
290
     0
  0
SCALE
  5
4F
102
{ACAD_REACTORS
330
47
102
}
330
47
100
AcDbScale
 70
     0
300
1:20
140
1.0
141
20.0
290
     0
  0
SCALE
  5
50
102
{ACAD_REACTORS
330
47
102
}
330
47
100
AcDbScale
 70
     0
300
1:30
140
1.0
141
30.0
290
     0
  0
SCALE
  5
51
102
{ACAD_REACTORS
330
47
102
}
330
47
100
AcDbScale
 70
     0
300
1:40
140
1.0
141
40.0
290
     0
  0
SCALE
  5
52
102
{ACAD_REACTORS
330
47
102
}
330
47
100
AcDbScale
 70
     0
300
1:50
140
1.0
141
50.0
290
     0
  0
SCALE
  5
53
102
{ACAD_REACTORS
330
47
102
}
330
47
100
AcDbScale
 70
     0
300
1:100
140
1.0
141
100.0
290
     0
  0
SCALE
  5
54
102
{ACAD_REACTORS
330
47
102
}
330
47
100
AcDbScale
 70
     0
300
2:1
140
2.0
141
1.0
290
     0
  0
SCALE
  5
55
102
{ACAD_REACTORS
330
47
102
}
330
47
100
AcDbScale
 70
     0
300
4:1
140
4.0
141
1.0
290
     0
  0
SCALE
  5
56
102
{ACAD_REACTORS
330
47
102
}
330
47
100
AcDbScale
 70
     0
300
8:1
140
8.0
141
1.0
290
     0
  0
SCALE
  5
57
102
{ACAD_REACTORS
330
47
102
}
330
47
100
AcDbScale
 70
     0
300
10:1
140
10.0
141
1.0
290
     0
  0
SCALE
  5
58
102
{ACAD_REACTORS
330
47
102
}
330
47
100
AcDbScale
 70
     0
300
100:1
140
100.0
141
1.0
290
     0
  0
SCALE
  5
59
102
{ACAD_REACTORS
330
47
102
}
330
47
100
AcDbScale
 70
     0
300
1/128" = 1'-0"
140
0.0078125
141
12.0
290
     0
  0
SCALE
  5
5A
102
{ACAD_REACTORS
330
47
102
}
330
47
100
AcDbScale
 70
     0
300
1/64" = 1'-0"
140
0.015625
141
12.0
290
     0
  0
SCALE
  5
5B
102
{ACAD_REACTORS
330
47
102
}
330
47
100
AcDbScale
 70
     0
300
1/32" = 1'-0"
140
0.03125
141
12.0
290
     0
  0
SCALE
  5
5C
102
{ACAD_REACTORS
330
47
102
}
330
47
100
AcDbScale
 70
     0
300
1/16" = 1'-0"
140
0.0625
141
12.0
290
     0
  0
SCALE
  5
5D
102
{ACAD_REACTORS
330
47
102
}
330
47
100
AcDbScale
 70
     0
300
3/32" = 1'-0"
140
0.09375
141
12.0
290
     0
  0
SCALE
  5
5E
102
{ACAD_REACTORS
330
47
102
}
330
47
100
AcDbScale
 70
     0
300
1/8" = 1'-0"
140
0.125
141
12.0
290
     0
  0
SCALE
  5
5F
102
{ACAD_REACTORS
330
47
102
}
330
47
100
AcDbScale
 70
     0
300
3/16" = 1'-0"
140
0.1875
141
12.0
290
     0
  0
SCALE
  5
60
102
{ACAD_REACTORS
330
47
102
}
330
47
100
AcDbScale
 70
     0
300
1/4" = 1'-0"
140
0.25
141
12.0
290
     0
  0
SCALE
  5
61
102
{ACAD_REACTORS
330
47
102
}
330
47
100
AcDbScale
 70
     0
300
3/8" = 1'-0"
140
0.375
141
12.0
290
     0
  0
SCALE
  5
62
102
{ACAD_REACTORS
330
47
102
}
330
47
100
AcDbScale
 70
     0
300
1/2" = 1'-0"
140
0.5
141
12.0
290
     0
  0
SCALE
  5
63
102
{ACAD_REACTORS
330
47
102
}
330
47
100
AcDbScale
 70
     0
300
3/4" = 1'-0"
140
0.75
141
12.0
290
     0
  0
SCALE
  5
64
102
{ACAD_REACTORS
330
47
102
}
330
47
100
AcDbScale
 70
     0
300
1" = 1'-0"
140
1.0
141
12.0
290
     0
  0
SCALE
  5
65
102
{ACAD_REACTORS
330
47
102
}
330
47
100
AcDbScale
 70
     0
300
1-1/2" = 1'-0"
140
1.5
141
12.0
290
     0
  0
SCALE
  5
66
102
{ACAD_REACTORS
330
47
102
}
330
47
100
AcDbScale
 70
     0
300
3" = 1'-0"
140
3.0
141
12.0
290
     0
  0
SCALE
  5
67
102
{ACAD_REACTORS
330
47
102
}
330
47
100
AcDbScale
 70
     0
300
6" = 1'-0"
140
6.0
141
12.0
290
     0
  0
SCALE
  5
68
102
{ACAD_REACTORS
330
47
102
}
330
47
100
AcDbScale
 70
     0
300
1'-0" = 1'-0"
140
12.0
141
12.0
290
     0
  0
ENDSEC
  0
EOF
